<?xml version="1.0" encoding="UTF-8"?>
<svg id="_レイヤー_1" data-name="レイヤー 1" xmlns="http://www.w3.org/2000/svg" viewBox="0 0 772.58 148.78">
  <defs>
    <style>
      .cls-1 {
        stroke-width: 2.83px;
      }

      .cls-1, .cls-2 {
        fill: none;
        stroke: #000;
        stroke-miterlimit: 10;
      }

      .cls-2 {
        stroke-width: 5.67px;
      }

      .cls-3 {
        fill: #d04d57;
      }
    </style>
  </defs>
  <g>
    <path d="M148.18,49.53h.36l20.16,46.8h-5.76l-4.68-11.1h-20.82l-4.86,11.1h-5.64l21.24-46.8ZM156.28,80.49l-8.1-19.32h-.12l-8.52,19.32h16.74Z"/>
    <path d="M179.68,51.09v45.24h-5.4v-45.24h5.4Z"/>
    <path d="M191.08,87.51l10.2-10.2-10.2-10.2,2.88-2.88,10.14,10.2,10.14-10.14,2.88,2.88-10.2,10.08,10.2,10.14-2.88,2.88-10.08-10.14-10.2,10.2-2.88-2.82Z"/>
    <path d="M223.2,51.09h5.58l13.62,32.82h.18l12.06-34.38h.36l11.88,34.38h.18l12.9-32.82h5.52l-18.42,46.8h-.36l-11.94-33.96h-.12l-11.88,33.96h-.36l-19.2-46.8Z"/>
    <path d="M286.92,74.07c0-13.86,10.08-23.76,23.7-23.76,8.04,0,15.48,4.2,19.8,11.46l-4.5,2.52c-3.66-5.82-9.24-9.06-15.54-9.06-10.2,0-17.76,7.5-17.76,18.9,0,10.44,7.62,18.18,18.06,18.18,9,0,15.78-5.76,16.26-14.1h-14.64v-4.56h20.28c.54,13.98-8.52,23.46-22.38,23.46-13.14,0-23.28-9.84-23.28-23.04Z"/>
    <path d="M348.12,51.09h18.96v4.8l-14.94-.06-3,9.9c1.02-.24,2.58-.42,4.08-.42,9.18,0,15,6.9,15,15,0,10.74-7.56,17.1-16.56,17.1-6.48,0-12.18-3-14.94-8.34l4.02-3.6h.18c2.1,4.2,6.18,6.78,10.62,6.78,5.7,0,10.98-3.96,10.98-11.76,0-6.06-4.26-10.62-11.04-10.62-3.24,0-6.36.96-9,3.06l-.18-.12,5.82-21.72Z"/>
  </g>
  <rect class="cls-3" x="22.31" y="68.82" width="30.62" height="9.47" transform="translate(111.18 35.94) rotate(90)"/>
  <polygon class="cls-2" points="47.86 59.56 47.86 87.62 73.46 100.22 115.95 76.05 115.95 73.7 115.95 71.24 73.34 47.19 47.86 59.56"/>
  <line class="cls-2" x1="80.56" y1="73.7" x2="115.95" y2="73.7"/>
  <circle class="cls-2" cx="74.03" cy="73.7" r="5.78"/>
  <g>
    <path d="M427.93,53.12h2.29l5.57,14.33h-2.47l-1.46-3.9h-5.56l-1.46,3.9h-2.47l5.56-14.33ZM431.24,61.7l-1.33-3.63c-.38-1.02-.65-1.92-.8-2.7h-.07c-.15.78-.41,1.68-.79,2.7l-1.34,3.63h4.33Z"/>
    <path d="M437.37,53.19h5.98v1.58h-1.83v11.1h1.83v1.58h-5.98v-1.58h1.83v-11.1h-1.83v-1.58Z"/>
    <path d="M447.83,54.95l4.35,4.35,4.34-4.35,1.02,1.02-4.35,4.35,4.35,4.35-1.02,1.01-4.34-4.34-4.35,4.34-1.02-1.01,4.35-4.35-4.35-4.35,1.02-1.02Z"/>
    <path d="M477.68,53.19l-3.68,14.46h-2.06l-2.39-7.27c-.25-.75-.45-1.73-.6-2.92h-.07c-.17,1.24-.37,2.21-.6,2.92l-2.39,7.27h-2.06l-3.68-14.46h2.34l1.81,7.78c.24,1.04.48,2.23.71,3.59h.05c.17-1,.47-2.2.89-3.59l1.95-6.64h2.05l1.95,6.64c.41,1.41.7,2.61.88,3.59h.06c.22-1.35.45-2.55.7-3.59l1.81-7.78h2.35Z"/>
    <path d="M479.85,53.19h9.66v1.92h-7.41v4.08h6.55v1.9h-6.55v4.4h7.66v1.97h-9.91v-14.26Z"/>
    <path d="M492.88,53.19h4.61c1.44,0,2.55.17,3.34.5,1.5.62,2.24,1.64,2.24,3.07,0,.91-.29,1.66-.86,2.23-.56.56-1.3.9-2.23,1.03v.06c1.03.18,1.85.5,2.45.96.79.61,1.18,1.43,1.18,2.44,0,1.36-.59,2.4-1.77,3.14-.89.55-2.15.83-3.76.83h-5.21v-14.26ZM495.12,54.95v4.2h2c2.35,0,3.52-.7,3.52-2.11,0-.76-.38-1.33-1.14-1.7-.53-.26-1.28-.39-2.27-.39h-2.11ZM495.12,60.92v4.73h2.48c1,0,1.78-.15,2.33-.44.79-.42,1.19-1.06,1.19-1.9,0-.92-.52-1.59-1.56-2.01-.64-.25-1.43-.38-2.37-.38h-2.06Z"/>
    <path d="M514.06,58.38c.45,0,.85.15,1.21.45.48.39.71.89.71,1.5,0,.37-.11.72-.32,1.04-.38.6-.93.89-1.63.89-.31,0-.6-.07-.89-.22-.22-.11-.41-.27-.57-.46-.31-.37-.47-.8-.47-1.27,0-.66.28-1.19.83-1.58.33-.23.71-.34,1.12-.34Z"/>
    <path d="M535.43,67.52l-.4-1.6c-.36.51-.82.92-1.38,1.23-.76.41-1.6.62-2.52.62-1.89,0-3.49-.64-4.8-1.93-1.37-1.36-2.05-3.18-2.05-5.46,0-2,.55-3.68,1.65-5.04,1.34-1.66,3.12-2.48,5.32-2.48,1.15,0,2.18.19,3.09.57.7.29,1.43.74,2.18,1.35l-1.28,1.59c-.68-.57-1.29-.96-1.81-1.19-.61-.26-1.32-.39-2.11-.39-1.34,0-2.44.51-3.3,1.54-.84,1-1.26,2.36-1.26,4.08,0,1.62.39,2.91,1.17,3.89.8,1.01,1.9,1.51,3.29,1.51.97,0,1.82-.23,2.54-.7.57-.37.97-.81,1.18-1.32v-1.78h-3.82v-1.81h5.95v7.31h-1.64Z"/>
    <path d="M540.68,53.19h5.01c1.52,0,2.71.26,3.58.79,1.2.73,1.8,1.77,1.8,3.12,0,1.2-.47,2.13-1.41,2.78-.6.41-1.4.7-2.42.85v.05c.87.27,1.62.91,2.27,1.93.68,1.07,1.53,2.65,2.57,4.74h-2.75c-1.09-2.51-1.92-4.1-2.5-4.78-.67-.78-1.56-1.17-2.69-1.17h-1.16v5.95h-2.29v-14.26ZM542.96,54.98v4.75h2.08c1.02,0,1.83-.18,2.44-.54.76-.45,1.14-1.11,1.14-1.97,0-1.5-1.14-2.24-3.41-2.24h-2.25Z"/>
    <path d="M558.72,53.12h2.29l5.57,14.33h-2.47l-1.46-3.9h-5.56l-1.46,3.9h-2.47l5.56-14.33ZM562.03,61.7l-1.33-3.63c-.38-1.02-.65-1.92-.8-2.7h-.07c-.15.78-.41,1.68-.79,2.7l-1.34,3.63h4.33Z"/>
    <path d="M569.12,53.19h4.96c1.57,0,2.79.23,3.66.7.49.26.9.62,1.25,1.07.54.74.82,1.6.82,2.57,0,1.23-.34,2.25-1.01,3.05-.53.63-1.25,1.06-2.18,1.3-.72.18-1.58.27-2.6.27h-2.59v5.3h-2.3v-14.26ZM571.43,55.02v5.3h2.18c1.29,0,2.19-.17,2.7-.52.65-.44.98-1.17.98-2.22,0-1.71-1.13-2.57-3.4-2.57h-2.47Z"/>
    <path d="M582.8,53.19h2.29v5.91h7.01v-5.91h2.29v14.26h-2.29v-6.43h-7.01v6.43h-2.29v-14.26Z"/>
    <path d="M597.41,53.19h5.98v1.58h-1.83v11.1h1.83v1.58h-5.98v-1.58h1.83v-11.1h-1.83v-1.58Z"/>
    <path d="M618.28,65.85c-1.44,1.29-3.25,1.93-5.42,1.93s-3.99-.77-5.34-2.3c-1.15-1.3-1.72-3.01-1.72-5.12s.56-3.7,1.67-5.07c1.32-1.63,3.07-2.45,5.24-2.45,1.24,0,2.34.24,3.31.71.65.32,1.32.8,2.03,1.44l-1.37,1.57c-1.03-1.19-2.32-1.79-3.87-1.79-1.36,0-2.46.52-3.29,1.55-.83,1.01-1.24,2.37-1.24,4.07,0,1.39.33,2.55.98,3.5.88,1.26,2.09,1.89,3.63,1.89,1.69,0,3.09-.6,4.23-1.8l1.16,1.85Z"/>
    <path d="M627.61,53.19h4.66c2,0,3.62.41,4.88,1.23,1.01.66,1.76,1.56,2.25,2.72.41.95.62,2.01.62,3.16,0,1.96-.56,3.58-1.68,4.86-.84.96-1.92,1.62-3.23,1.97-.84.22-1.84.33-2.98.33h-4.52v-14.26ZM629.9,55.1v10.39h1.92c1.67,0,2.95-.3,3.83-.89,1.3-.89,1.95-2.33,1.95-4.31,0-2.09-.73-3.58-2.2-4.45-.83-.49-1.98-.74-3.47-.74h-2.02Z"/>
    <path d="M643.14,53.19h9.66v1.92h-7.41v4.08h6.55v1.9h-6.55v4.4h7.66v1.97h-9.91v-14.26Z"/>
    <path d="M656.45,63.84c1.18,1.33,2.64,1.99,4.38,1.99.79,0,1.42-.16,1.9-.47.56-.38.84-.92.84-1.6,0-.62-.24-1.12-.73-1.51-.32-.26-1.09-.63-2.32-1.11l-.33-.13-.58-.23s-.11-.05-.21-.09c-1.26-.48-2.08-.87-2.45-1.18-.06-.05-.13-.12-.22-.21-.61-.66-.92-1.45-.92-2.38,0-1.2.43-2.16,1.29-2.9.9-.77,2.12-1.15,3.65-1.15,1.07,0,2.02.16,2.85.47.67.26,1.33.65,1.99,1.19l-1.19,1.65c-1.01-.96-2.23-1.44-3.64-1.44-.92,0-1.59.21-2.01.65-.36.37-.53.81-.53,1.33,0,.6.26,1.07.77,1.43.33.23,1.02.53,2.08.91l.69.25c1.51.54,2.55,1.08,3.11,1.6.78.73,1.17,1.64,1.17,2.74,0,1.36-.54,2.43-1.61,3.19-.88.62-2.09.94-3.61.94-2.37,0-4.27-.81-5.7-2.42l1.32-1.51Z"/>
    <path d="M668.71,53.19h5.98v1.58h-1.83v11.1h1.83v1.58h-5.98v-1.58h1.83v-11.1h-1.83v-1.58Z"/>
    <path d="M688.16,67.52l-.4-1.6c-.36.51-.82.92-1.38,1.23-.76.41-1.6.62-2.52.62-1.89,0-3.49-.64-4.8-1.93-1.37-1.36-2.05-3.18-2.05-5.46,0-2,.55-3.68,1.65-5.04,1.34-1.66,3.12-2.48,5.32-2.48,1.15,0,2.18.19,3.09.57.7.29,1.43.74,2.18,1.35l-1.28,1.59c-.68-.57-1.29-.96-1.81-1.19-.61-.26-1.32-.39-2.11-.39-1.34,0-2.44.51-3.3,1.54-.84,1-1.26,2.36-1.26,4.08,0,1.62.39,2.91,1.17,3.89.8,1.01,1.9,1.51,3.29,1.51.97,0,1.82-.23,2.54-.7.57-.37.96-.81,1.18-1.32v-1.78h-3.82v-1.81h5.95v7.31h-1.64Z"/>
    <path d="M693.3,53.19h3.03l5,7.83c.51.8,1.05,1.87,1.63,3.21h.07c-.12-1.61-.17-3.18-.17-4.7v-6.34h2.24v14.26h-2.24l-5.83-9.09c-.64-1-1.19-2.02-1.63-3.08h-.09c.17,1.65.25,3.34.25,5.07v7.09h-2.25v-14.26Z"/>
    <path d="M708.72,53.19h9.66v1.92h-7.41v4.08h6.55v1.9h-6.55v4.4h7.66v1.97h-9.91v-14.26Z"/>
    <path d="M721.61,53.19h5.01c1.52,0,2.71.26,3.58.79,1.2.73,1.8,1.77,1.8,3.12,0,1.2-.47,2.13-1.41,2.78-.6.41-1.4.7-2.42.85v.05c.87.27,1.62.91,2.27,1.93.68,1.07,1.53,2.65,2.57,4.74h-2.75c-1.09-2.51-1.92-4.1-2.5-4.78-.67-.78-1.56-1.17-2.69-1.17h-1.16v5.95h-2.29v-14.26ZM723.9,54.98v4.75h2.08c1.02,0,1.83-.18,2.44-.54.76-.45,1.14-1.11,1.14-1.97,0-1.5-1.14-2.24-3.41-2.24h-2.25Z"/>
    <path d="M422.33,84h12.08v1.99h-4.9v12.28h-2.29v-12.28h-4.89v-1.99Z"/>
    <path d="M436.69,84h5.01c1.52,0,2.71.26,3.58.79,1.2.73,1.8,1.77,1.8,3.12,0,1.2-.47,2.13-1.41,2.78-.6.41-1.4.7-2.42.85v.05c.87.27,1.62.91,2.27,1.93.68,1.07,1.53,2.65,2.57,4.74h-2.75c-1.09-2.51-1.92-4.1-2.5-4.78-.67-.78-1.56-1.17-2.69-1.17h-1.16v5.95h-2.29v-14.26ZM438.97,85.8v4.75h2.08c1.02,0,1.83-.18,2.44-.54.76-.45,1.14-1.11,1.14-1.97,0-1.5-1.14-2.24-3.41-2.24h-2.25Z"/>
    <path d="M454.73,83.93h2.29l5.57,14.33h-2.47l-1.46-3.9h-5.56l-1.46,3.9h-2.47l5.56-14.33ZM458.04,92.51l-1.33-3.63c-.38-1.02-.65-1.92-.8-2.7h-.07c-.15.78-.41,1.68-.79,2.7l-1.34,3.63h4.33Z"/>
    <path d="M464.16,84h5.98v1.58h-1.83v11.1h1.83v1.58h-5.98v-1.58h1.83v-11.1h-1.83v-1.58Z"/>
    <path d="M473.07,84h3.03l5,7.83c.51.8,1.05,1.87,1.63,3.21h.07c-.11-1.61-.17-3.18-.17-4.7v-6.34h2.23v14.26h-2.23l-5.83-9.09c-.64-1-1.19-2.02-1.63-3.08h-.09c.17,1.65.25,3.34.25,5.07v7.09h-2.25v-14.26Z"/>
    <path d="M487.79,84h5.98v1.58h-1.83v11.1h1.83v1.58h-5.98v-1.58h1.83v-11.1h-1.83v-1.58Z"/>
    <path d="M496.7,84h3.03l5,7.83c.51.8,1.05,1.87,1.63,3.21h.07c-.11-1.61-.17-3.18-.17-4.7v-6.34h2.23v14.26h-2.23l-5.83-9.09c-.64-1-1.19-2.02-1.63-3.08h-.09c.17,1.65.25,3.34.25,5.07v7.09h-2.25v-14.26Z"/>
    <path d="M522.57,98.33l-.4-1.6c-.36.51-.82.92-1.38,1.23-.76.41-1.6.62-2.52.62-1.89,0-3.49-.64-4.8-1.93-1.37-1.36-2.05-3.18-2.05-5.46,0-2,.55-3.68,1.65-5.04,1.34-1.66,3.12-2.48,5.32-2.48,1.15,0,2.18.19,3.09.57.7.29,1.43.74,2.18,1.35l-1.28,1.59c-.68-.57-1.29-.96-1.81-1.19-.61-.26-1.32-.39-2.11-.39-1.34,0-2.44.51-3.3,1.54-.84,1-1.26,2.36-1.26,4.08,0,1.62.39,2.91,1.17,3.89.8,1.01,1.9,1.51,3.29,1.51.97,0,1.82-.23,2.54-.7.57-.37.97-.81,1.18-1.32v-1.78h-3.82v-1.81h5.95v7.31h-1.64Z"/>
    <path d="M546.09,96.66c-1.44,1.29-3.25,1.93-5.42,1.93s-3.99-.77-5.34-2.3c-1.15-1.3-1.72-3.01-1.72-5.12s.56-3.7,1.67-5.07c1.32-1.63,3.07-2.45,5.24-2.45,1.24,0,2.34.24,3.31.71.65.32,1.32.8,2.03,1.44l-1.37,1.57c-1.03-1.19-2.32-1.79-3.87-1.79-1.36,0-2.46.52-3.29,1.55-.83,1.01-1.24,2.37-1.24,4.07,0,1.39.33,2.55.98,3.5.88,1.26,2.09,1.89,3.63,1.89,1.69,0,3.09-.6,4.23-1.8l1.16,1.85Z"/>
    <path d="M555.22,83.66c1.43,0,2.71.36,3.82,1.08,1.18.76,2.04,1.84,2.57,3.22.37.95.55,1.99.55,3.12,0,1.9-.5,3.52-1.5,4.87-.7.93-1.58,1.63-2.65,2.08-.87.37-1.81.56-2.84.56-2.25,0-4.04-.83-5.36-2.49-1.07-1.35-1.61-3.02-1.61-5.01,0-1.27.23-2.43.7-3.48.83-1.86,2.2-3.08,4.12-3.65.68-.2,1.41-.3,2.19-.3ZM555.17,85.53c-1.01,0-1.89.32-2.66.97-1.21,1.03-1.81,2.56-1.81,4.6,0,1.19.22,2.23.65,3.11.33.65.76,1.19,1.29,1.6.73.57,1.59.85,2.56.85,1.38,0,2.49-.55,3.33-1.66.76-1,1.14-2.3,1.14-3.9s-.4-2.96-1.21-3.97c-.85-1.07-1.95-1.6-3.29-1.6Z"/>
    <path d="M565.16,84h2.3v8.92c0,1,.21,1.79.64,2.39.66.9,1.64,1.35,2.95,1.35,1.45,0,2.48-.53,3.1-1.59.33-.56.49-1.28.49-2.15v-8.92h2.3v9.31c0,1.34-.35,2.44-1.04,3.29-1.08,1.34-2.71,2.01-4.87,2.01s-3.76-.67-4.85-2.01c-.69-.85-1.04-1.95-1.04-3.29v-9.31Z"/>
    <path d="M580.76,84h5.01c1.52,0,2.71.26,3.58.79,1.2.73,1.8,1.77,1.8,3.12,0,1.2-.47,2.13-1.41,2.78-.6.41-1.4.7-2.42.85v.05c.87.27,1.62.91,2.27,1.93.68,1.07,1.53,2.65,2.57,4.74h-2.75c-1.09-2.51-1.92-4.1-2.5-4.78-.67-.78-1.56-1.17-2.69-1.17h-1.16v5.95h-2.29v-14.26ZM583.05,85.8v4.75h2.08c1.02,0,1.83-.18,2.44-.54.76-.45,1.14-1.11,1.14-1.97,0-1.5-1.14-2.24-3.41-2.24h-2.25Z"/>
    <path d="M595.1,94.65c1.18,1.33,2.64,1.99,4.38,1.99.79,0,1.42-.16,1.9-.47.56-.38.84-.92.84-1.6,0-.62-.24-1.12-.73-1.51-.32-.26-1.09-.63-2.32-1.11l-.33-.13-.58-.23s-.11-.05-.21-.09c-1.26-.48-2.08-.87-2.45-1.18-.06-.05-.13-.12-.22-.21-.61-.66-.92-1.45-.92-2.38,0-1.2.43-2.16,1.29-2.9.9-.77,2.12-1.15,3.65-1.15,1.07,0,2.02.16,2.85.47.67.26,1.33.65,1.99,1.19l-1.19,1.65c-1.01-.96-2.23-1.44-3.64-1.44-.92,0-1.59.21-2.01.65-.36.37-.53.81-.53,1.33,0,.6.26,1.07.77,1.43.33.23,1.02.53,2.08.91l.69.25c1.51.54,2.55,1.08,3.11,1.6.78.73,1.17,1.64,1.17,2.74,0,1.36-.54,2.43-1.61,3.19-.88.62-2.09.94-3.61.94-2.37,0-4.27-.81-5.7-2.42l1.32-1.51Z"/>
    <path d="M608.07,84h9.66v1.92h-7.41v4.08h6.55v1.9h-6.55v4.4h7.66v1.97h-9.91v-14.26Z"/>
    <path d="M628.47,84h8.33v1.9h-6.46l-.51,4.07h.07c.88-.64,1.91-.95,3.07-.95.8,0,1.54.18,2.24.54.98.5,1.67,1.26,2.05,2.28.22.57.33,1.21.33,1.91,0,1.57-.58,2.81-1.74,3.71-.96.75-2.16,1.13-3.59,1.13-2.08,0-3.74-.62-5-1.87l1.18-1.48c.46.45,1.02.8,1.68,1.05.72.27,1.42.4,2.11.4.79,0,1.46-.22,2.01-.65.71-.56,1.07-1.32,1.07-2.3,0-.85-.25-1.55-.74-2.09-.53-.58-1.27-.88-2.21-.88-1.28,0-2.21.45-2.81,1.34l-1.93-.32.86-7.78Z"/>
    <path d="M639.82,84h12.08v1.99h-4.9v12.28h-2.29v-12.28h-4.89v-1.99Z"/>
    <path d="M654.17,84h2.29v5.91h7.01v-5.91h2.29v14.26h-2.29v-6.43h-7.01v6.43h-2.29v-14.26Z"/>
    <path d="M687.78,96.66c-1.44,1.29-3.25,1.93-5.42,1.93s-3.99-.77-5.34-2.3c-1.15-1.3-1.72-3.01-1.72-5.12s.56-3.7,1.67-5.07c1.32-1.63,3.07-2.45,5.24-2.45,1.24,0,2.34.24,3.31.71.65.32,1.32.8,2.03,1.44l-1.37,1.57c-1.03-1.19-2.32-1.79-3.87-1.79-1.36,0-2.46.52-3.29,1.55-.83,1.01-1.24,2.37-1.24,4.07,0,1.39.33,2.55.98,3.5.88,1.26,2.09,1.89,3.63,1.89,1.69,0,3.09-.6,4.23-1.8l1.16,1.85Z"/>
    <path d="M690.81,84h2.32v12.23h6.53v2.03h-8.85v-14.26Z"/>
    <path d="M706.13,83.93h2.29l5.57,14.33h-2.47l-1.46-3.9h-5.56l-1.46,3.9h-2.47l5.56-14.33ZM709.44,92.51l-1.33-3.63c-.38-1.02-.64-1.92-.8-2.7h-.07c-.15.78-.41,1.68-.79,2.7l-1.34,3.63h4.33Z"/>
    <path d="M716.7,94.65c1.18,1.33,2.64,1.99,4.38,1.99.79,0,1.42-.16,1.9-.47.56-.38.84-.92.84-1.6,0-.62-.24-1.12-.73-1.51-.32-.26-1.09-.63-2.32-1.11l-.33-.13-.58-.23s-.11-.05-.21-.09c-1.26-.48-2.08-.87-2.45-1.18-.06-.05-.13-.12-.22-.21-.61-.66-.92-1.45-.92-2.38,0-1.2.43-2.16,1.29-2.9.9-.77,2.12-1.15,3.65-1.15,1.07,0,2.02.16,2.85.47.67.26,1.33.65,1.99,1.19l-1.19,1.65c-1.01-.96-2.23-1.44-3.64-1.44-.92,0-1.59.21-2.01.65-.36.37-.53.81-.53,1.33,0,.6.26,1.07.77,1.43.33.23,1.02.53,2.08.91l.69.25c1.51.54,2.55,1.08,3.11,1.6.78.73,1.17,1.64,1.17,2.74,0,1.36-.54,2.43-1.61,3.19-.88.62-2.09.94-3.61.94-2.37,0-4.27-.81-5.7-2.42l1.32-1.51Z"/>
    <path d="M730.1,94.65c1.18,1.33,2.64,1.99,4.38,1.99.79,0,1.42-.16,1.9-.47.56-.38.84-.92.84-1.6,0-.62-.24-1.12-.73-1.51-.32-.26-1.09-.63-2.32-1.11l-.33-.13-.58-.23s-.11-.05-.21-.09c-1.26-.48-2.08-.87-2.45-1.18-.06-.05-.13-.12-.22-.21-.61-.66-.92-1.45-.92-2.38,0-1.2.43-2.16,1.29-2.9.9-.77,2.12-1.15,3.65-1.15,1.07,0,2.02.16,2.85.47.67.26,1.33.65,1.99,1.19l-1.19,1.65c-1.01-.96-2.23-1.44-3.64-1.44-.92,0-1.59.21-2.01.65-.36.37-.53.81-.53,1.33,0,.6.26,1.07.77,1.43.33.23,1.02.53,2.08.91l.69.25c1.51.54,2.55,1.08,3.11,1.6.78.73,1.17,1.64,1.17,2.74,0,1.36-.54,2.43-1.61,3.19-.88.62-2.09.94-3.61.94-2.37,0-4.27-.81-5.7-2.42l1.32-1.51Z"/>
  </g>
  <line class="cls-1" x1="395.22" y1="51.09" x2="395.22" y2="97.89"/>
</svg>