<?xml version="1.0" encoding="UTF-8"?>
<svg id="_レイヤー_1" xmlns="http://www.w3.org/2000/svg" version="1.1" viewBox="0 0 401.93 148.78">
  <!-- Generator: Adobe Illustrator 30.0.0, SVG Export Plug-In . SVG Version: 2.1.1 Build 123)  -->
  <defs>
    <style>
      .st0 {
        fill: #d04d57;
      }

      .st1 {
        fill: none;
        stroke: #000;
        stroke-miterlimit: 10;
        stroke-width: 5.67px;
      }
    </style>
  </defs>
  <g>
    <path d="M148.59,49.53h.36l20.16,46.8h-5.76l-4.68-11.1h-20.82l-4.86,11.1h-5.64l21.24-46.8h0ZM156.69,80.49l-8.1-19.32h-.12l-8.52,19.32h16.74Z"/>
    <path d="M180.09,51.09v45.24h-5.4v-45.24h5.4Z"/>
    <path d="M191.49,87.51l10.2-10.2-10.2-10.2,2.88-2.88,10.14,10.2,10.14-10.14,2.88,2.88-10.2,10.08,10.2,10.14-2.88,2.88-10.08-10.14-10.2,10.2-2.88-2.82Z"/>
    <path d="M223.61,51.09h5.58l13.62,32.82h.18l12.06-34.38h.36l11.88,34.38h.18l12.9-32.82h5.52l-18.42,46.8h-.36l-11.94-33.96h-.12l-11.88,33.96h-.36l-19.2-46.8h0Z"/>
    <path d="M287.33,74.07c0-13.86,10.08-23.76,23.7-23.76,8.04,0,15.48,4.2,19.8,11.46l-4.5,2.52c-3.66-5.82-9.24-9.06-15.54-9.06-10.2,0-17.76,7.5-17.76,18.9,0,10.44,7.62,18.18,18.06,18.18,9,0,15.78-5.76,16.26-14.1h-14.64v-4.56h20.28c.54,13.98-8.52,23.46-22.38,23.46-13.14,0-23.28-9.84-23.28-23.04h0Z"/>
    <path d="M348.53,51.09h18.96v4.8l-14.94-.06-3,9.9c1.02-.24,2.58-.42,4.08-.42,9.18,0,15,6.9,15,15,0,10.74-7.56,17.1-16.56,17.1-6.48,0-12.18-3-14.94-8.34l4.02-3.6h.18c2.1,4.2,6.18,6.78,10.62,6.78,5.7,0,10.98-3.96,10.98-11.76,0-6.06-4.26-10.62-11.04-10.62-3.24,0-6.36.96-9,3.06l-.18-.12,5.82-21.72h0Z"/>
  </g>
  <rect class="st0" x="33.3" y="58.25" width="9.47" height="30.62"/>
  <polygon class="st1" points="48.27 59.56 48.27 87.62 73.87 100.22 116.36 76.05 116.36 73.7 116.36 71.24 73.75 47.19 48.27 59.56"/>
  <line class="st1" x1="80.97" y1="73.7" x2="116.36" y2="73.7"/>
  <circle class="st1" cx="74.44" cy="73.7" r="5.78"/>
</svg>