<?xml version="1.0" encoding="utf-8"?>
<!-- Generator: Adobe Illustrator 15.1.0, SVG Export Plug-In  -->
<!DOCTYPE svg PUBLIC "-//W3C//DTD SVG 1.1//EN" "http://www.w3.org/Graphics/SVG/1.1/DTD/svg11.dtd" [
	<!ENTITY ns_flows "http://ns.adobe.com/Flows/1.0/">
]>
<svg version="1.1"
	 xmlns="http://www.w3.org/2000/svg" xmlns:xlink="http://www.w3.org/1999/xlink" xmlns:a="http://ns.adobe.com/AdobeSVGViewerExtensions/3.0/"
	 x="0px" y="0px" width="142px" height="116px" viewBox="134.294 222.35 142 116" enable-background="new 134.294 222.35 142 116"
	 xml:space="preserve">
<defs>
</defs>
<g>
	<defs>
		<rect id="SVGID_1_" x="134.294" y="222.35" width="141.732" height="115.863"/>
	</defs>
	<clipPath id="SVGID_2_">
		<use xlink:href="#SVGID_1_"  overflow="visible"/>
	</clipPath>
	<line clip-path="url(#SVGID_2_)" fill="#FFFFFF" x1="12.134" y1="367.795" x2="12.134" y2="377.982"/>
	
		<rect x="71.663" y="148.35" clip-path="url(#SVGID_2_)" fill-rule="evenodd" clip-rule="evenodd" fill="#FFFFFF" width="288" height="230.569"/>
	<path clip-path="url(#SVGID_2_)" fill-rule="evenodd" clip-rule="evenodd" fill="#006661" d="M1.522,0.013
		c-1.418-0.149-0.75,1.1-0.8,1.6c-1.626,16.264,0,33.783,0,50.801c0,119.05,0,239.144,0,357.2c136.533,0,273.067,0,409.599,0
		c0-136.533,0-273.067,0-409.601C274.059,0.013,137.788,0.013,1.522,0.013z M305.122,220.412c6.617,14.352-13.551,32.309-28.799,22
		c-1.821,9.918-17.318,16.13-27.55,7.504c-0.695,6.41-6.927,11.43-14.52,11.43c-4.008,0-7.637-1.4-10.274-3.664
		c-0.349,1.59-0.644,3.334-0.908,5.25c-0.47,3.412-0.202,21.063,0,25.666c0.646,14.682,2.997,40.535,7.75,44.666
		c3.211,2.789,29.681,8.971,31,10.5c-7.944,0.344-34.796-1.52-42.416-1.5c-1.995,1.338-10.743,8.758-12.334,10.5
		c-3.737-1.281-10.795-9.729-14.333-10.5c-6.085-1.328-42.404,4.699-49.833,2c2.875-2.625,29.964-8.281,32.667-10.25
		c9.657-7.035,12.14-31.506,12.908-48.416c0.38-8.351,1.451-18.347,0.135-25.504c-1.91,0.794-4.042,1.252-6.302,1.252
		c-6.133,0-11.374-3.279-13.531-7.918c-0.37,0.172-0.725,0.341-1.059,0.504c-5.511,2.695-15.152,0-16.318-7.043
		c-11.333,8.209-30.167,1.043-30.333-12.457c-15,5-27.5-10.668-21.949-24.02c-9.968-3.623-18.065-10.789-18-23.199
		c0.066-12.691,9.029-21.453,21.6-22.801c-8.976-17.109,5.465-37.008,24.8-30.799c-8.675-22.989,18.514-42.251,36.8-27.601
		c1.844-4.001,5.751-7.696,12-6c1.644-2.734,1.571-5.245,2.8-7.601c8.814-16.889,39.448-15.84,44.4,4
		c8.878-5.604,22.631-0.865,23.2,9.201c16.735-12.594,46.434,4.05,36.799,28.799c25.512-10.69,43.863,24.648,24,40
		C333.705,176.406,334.562,220.678,305.122,220.412z"/>
	<g clip-path="url(#SVGID_2_)">
		<path fill="#006661" d="M180.144,249.223c-0.546-0.126-0.998-0.283-1.356-0.472c-0.358-0.188-0.581-0.37-0.668-0.546
			c0.063-0.313,0.128-0.763,0.198-1.346c0.069-0.584,0.11-1.014,0.123-1.29c0.138-0.113,0.313-0.183,0.527-0.207
			c0.05,1.004,0.308,1.772,0.772,2.307c0.464,0.533,1.136,0.8,2.015,0.8c0.917,0,1.648-0.27,2.194-0.81
			c0.546-0.539,0.819-1.23,0.819-2.071c0-0.414-0.073-0.769-0.217-1.064c-0.145-0.294-0.339-0.552-0.583-0.771
			c-0.245-0.22-0.593-0.48-1.045-0.781c-0.628-0.439-1.133-0.825-1.516-1.158c-0.383-0.333-0.688-0.709-0.914-1.13
			s-0.339-0.901-0.339-1.44c0-0.69,0.191-1.29,0.574-1.799s0.904-0.897,1.563-1.167c0.659-0.271,1.396-0.405,2.213-0.405
			c0.791,0,1.513,0.116,2.166,0.349c0.652,0.232,1.067,0.479,1.243,0.743c-0.502,1.13-0.797,1.89-0.885,2.279
			c-0.188,0.075-0.415,0.112-0.678,0.112c0.163-0.439,0.245-0.822,0.245-1.148c0-0.502-0.192-0.885-0.575-1.148
			s-0.882-0.396-1.497-0.396c-0.879,0-1.528,0.238-1.949,0.716c-0.421,0.477-0.631,1.029-0.631,1.657
			c0,0.603,0.188,1.11,0.565,1.524c0.376,0.415,0.866,0.804,1.469,1.168c0.652,0.402,1.167,0.75,1.544,1.045
			c0.377,0.295,0.694,0.662,0.951,1.102s0.386,0.967,0.386,1.582c0,0.816-0.226,1.522-0.678,2.118
			c-0.452,0.597-1.058,1.052-1.817,1.365c-0.759,0.314-1.598,0.471-2.514,0.471C181.258,249.41,180.69,249.348,180.144,249.223z"/>
		<path fill="#006661" d="M214.539,251.972c0,0.477-0.201,0.895-0.603,1.252c-0.402,0.358-0.967,0.634-1.695,0.829
			c-0.728,0.194-1.569,0.292-2.523,0.292c-2.184,0-4.315-0.516-6.393-1.545s-3.98-2.389-5.706-4.076
			c-1.727-1.688-3.217-3.544-4.473-5.565c-0.101,0.49-0.295,1.463-0.583,2.919c-0.226,1.181-0.402,2.06-0.527,2.637
			c-0.038,0.188-0.091,0.313-0.16,0.377c-0.069,0.063-0.173,0.094-0.311,0.094c-0.59,0.013-0.973,0.031-1.149,0.057
			c-0.176,0.024-0.32,0.081-0.433,0.169c-0.138,0-0.207-0.044-0.207-0.132c0.452-0.991,0.989-2.809,1.61-5.451
			c0.622-2.643,1.051-4.68,1.29-6.11c0.05-0.326,0.075-0.509,0.075-0.547c0-0.138-0.031-0.223-0.094-0.254
			c-0.063-0.031-0.176-0.047-0.339-0.047c-0.339,0-0.709,0.031-1.111,0.094c-0.427,0.051-0.747,0.076-0.96,0.076
			c-0.176,0-0.298-0.02-0.367-0.057c-0.069-0.038-0.104-0.113-0.104-0.227c0-0.226,0.057-0.489,0.169-0.791
			c0.113-0.301,0.232-0.451,0.358-0.451c0.012,0.226,0.245,0.367,0.697,0.423c0.452,0.057,1.054,0.085,1.808,0.085
			c0.716,0,1.707-0.057,2.975-0.169c0.188-0.025,0.458-0.051,0.81-0.075c0,0.101-0.019,0.27-0.057,0.508
			c-0.038,0.239-0.063,0.396-0.075,0.471l-1.525,0.038c-0.163,0-0.27,0.082-0.32,0.245c-0.439,1.531-0.892,3.396-1.355,5.593
			c0.515-0.377,1.085-0.819,1.713-1.328c0.627-0.509,1.243-1.014,1.846-1.516c1.155-0.967,2.121-1.758,2.9-2.373
			c0.778-0.615,1.588-1.198,2.429-1.751h0.301c0.113,0.063,0.471,0.145,1.073,0.245c0.376,0.063,0.615,0.112,0.715,0.15v0.15
			c-0.201-0.038-0.919,0.357-2.156,1.187c-1.237,0.828-2.596,1.789-4.077,2.881c-1.481,1.093-2.574,1.921-3.276,2.486
			c1.217,1.87,2.667,3.556,4.35,5.056s3.458,2.68,5.33,3.54c1.87,0.86,3.684,1.29,5.442,1.29c1.004,0,1.855-0.135,2.552-0.405
			c0.697-0.27,1.296-0.643,1.798-1.12C214.426,251.388,214.539,251.67,214.539,251.972z"/>
		<path fill="#006661" d="M205.434,247.97c-0.986-0.998-1.479-2.432-1.479-4.303c0-1.531,0.33-2.906,0.989-4.124
			s1.579-2.172,2.759-2.862c1.18-0.69,2.517-1.035,4.011-1.035c1.745,0,3.11,0.486,4.096,1.459c0.985,0.973,1.478,2.382,1.478,4.228
			c0,1.507-0.327,2.881-0.979,4.124c-0.653,1.243-1.57,2.222-2.75,2.938c-1.18,0.716-2.523,1.073-4.03,1.073
			C207.784,249.467,206.419,248.968,205.434,247.97z M212.815,247.471c0.834-0.64,1.462-1.487,1.883-2.542
			c0.42-1.055,0.631-2.196,0.631-3.427c0-1.645-0.358-2.869-1.073-3.673c-0.716-0.803-1.688-1.205-2.919-1.205
			c-1.117,0-2.09,0.317-2.919,0.951c-0.828,0.634-1.462,1.487-1.902,2.562c-0.439,1.073-0.659,2.256-0.659,3.549
			c0,1.582,0.339,2.769,1.017,3.56s1.651,1.187,2.919,1.187C210.973,248.432,211.98,248.111,212.815,247.471z"/>
		<path fill="#006661" d="M231.825,242.368c0.025,0.05,0.056,0.188,0.094,0.414c0.038,0.226,0.057,0.389,0.057,0.489
			c-0.339,0.088-0.562,0.186-0.668,0.292c-0.107,0.106-0.191,0.299-0.254,0.574c-0.477,2.172-0.932,4.002-1.365,5.489
			s-0.976,2.759-1.629,3.813c-0.515,0.828-1.268,1.626-2.259,2.392c-0.992,0.766-2.272,1.148-3.842,1.148
			c-0.615,0-1.155-0.065-1.62-0.197s-0.828-0.289-1.092-0.471c-0.264-0.183-0.433-0.343-0.509-0.48l-0.226-0.452
			c0.251,0.163,0.697,0.308,1.337,0.434c0.64,0.125,1.249,0.188,1.827,0.188c1.782,0,3.261-0.681,4.435-2.043
			s2.074-3.424,2.702-6.186c-1.017,1.205-2.423,1.808-4.218,1.808c-1.067,0-2.015-0.21-2.843-0.631s-1.475-1.048-1.939-1.883
			c-0.465-0.835-0.697-1.849-0.697-3.042c0-1.48,0.354-2.853,1.064-4.114c0.709-1.262,1.691-2.269,2.947-3.022
			c1.255-0.753,2.674-1.13,4.256-1.13c0.904,0,1.783,0.126,2.636,0.377s1.557,0.59,2.109,1.017
			c-0.301,0.829-0.534,1.771-0.697,2.825c-0.075,0-0.167,0.009-0.273,0.028c-0.107,0.019-0.186,0.04-0.236,0.065
			c0-0.063-0.012-0.261-0.038-0.593c-0.025-0.333-0.05-0.581-0.075-0.744c-0.125-0.703-0.534-1.199-1.224-1.487
			c-0.69-0.289-1.462-0.434-2.316-0.434c-1.406,0-2.583,0.352-3.531,1.055c-0.948,0.703-1.651,1.604-2.109,2.702
			c-0.458,1.099-0.687,2.257-0.687,3.475c0,1.419,0.326,2.523,0.979,3.314c0.653,0.79,1.638,1.186,2.957,1.186
			c0.891,0,1.679-0.175,2.363-0.527c0.684-0.351,1.214-0.831,1.591-1.44c0.376-0.608,0.565-1.277,0.565-2.005
			c0-0.377-0.057-0.625-0.169-0.744c-0.113-0.119-0.308-0.179-0.584-0.179c-0.603,0-1.457,0.082-2.561,0.244
			c0-0.15,0.019-0.339,0.057-0.564s0.082-0.389,0.132-0.489C229.057,242.839,230.909,242.682,231.825,242.368z"/>
	</g>
</g>
</svg>
