<?xml version="1.0" encoding="UTF-8"?>
<svg id="_レイヤー_1" data-name="レイヤー 1" xmlns="http://www.w3.org/2000/svg" viewBox="0 0 608.44 94.69">
  <defs>
    <style>
      .cls-1 {
        fill: #877a68;
      }

      .cls-2 {
        fill: #e2aa3b;
      }
    </style>
  </defs>
  <g>
    <path class="cls-2" d="M320.32,30.03c-.89-1.33,1.77-4.89,2.11-6.74.43-2.28-.43-3.83-2.58-3.14-5.17,2.59-10.28,14.31-11.9,20.37,2.21.37,11.98-2.75,8.25,3.42-2.6,4.55-7.63,3.16-11.45,4.04-6.54,16.07-10.77,39.48-27.24,45.46-3.81.91-11.8.66-9.91-6.09,1-3.57,4.03-1.98,6.22-2.01,11.08-.38,15.1-27.17,19.7-36.83l-16.89.45c-7.04,15.85-11.83,40.54-28.99,45.39-5.41,1.67-11.39-3.36-5.2-8.16,7.56,1.14,9.39-5.25,13.12-11.11l9.27-25.35c-8.29,2.33-7.73.14-10.9,9.44-4.9,14.07-27.44,25.61-32.27,6.87-.22-.93-.67.28-.86.49-10.48,12.63-27.43,20.94-41.42,12.87-27.71-24.12,13.64-80.95,41.88-70.52,13.74,7.5,2.73,31.31-8.41,35.87-5.48,1.9-7.69-3.58-5.1-8.75,1.71-3.11,4.26-2.32,6.6-4.01,3.22-2.32,7.25-9.44,5.69-13.74-1.39-3.83-6.51-3.54-9.5-2.58-10.81,3.64-19.14,15.96-24.15,27.05-13.55,34.37,19.95,36.72,34.66,14.67,4.49-12.97,15.16-29.57,28.79-27.08,5.29,1.09,8.44,7.35,7.92,13.38-.07,2.03,4.16-.77,5.34-.77,1.69-.46,3.41-.95,5.13-1.08,2.75-6.2,5.42-13.74,9.04-19.27,7.98-14.96,32.01-15.84,21.74,3.27-.91,1.39-3.21,4.45-4.65,4.73-2.85.56-2.6-2.37-1.34-4.51,1.81-.97,2.76-6.24.11-6.51-5.9,1.48-11.57,15.31-13.53,21.62l17.04-.59c4.1-9.11,8.72-20.69,16.79-26.39,13.49-9.37,23.66,6.36,8.86,16.22-.59.23-1.6.18-1.98-.38ZM247.31,37.71c-3.14-.48-4.57,5.59-2.02,8.05.87.84,3.06,2.16,3.8.69,1.11-2.24.8-8.34-1.78-8.73ZM247.36,53.91c-5.6.14-9.42-4.1-9.35-10.55-14.92,20.42.46,33.66,9.35,10.55Z"/>
    <path class="cls-2" d="M377.48,57.04c1.57-1.55,3.55-6.53,5.84-4.5,1.78,1.59-.39,4.54-1.43,6.16-7.21,13.03-32.1,25.92-36.49,4.89-8.49,11.12-29.06,18.59-33.01.19.06-14.1,11.23-30.8,23.66-33.59,21.06-.3,5.93,30.87-12.57,27.6-.12.16-.1,1.93-.07,2.28,2.79,11.26,17.71,2.97,21.77-3.95.12-.15.5-.15.76-.5,3.37-11.1,11.66-24.25,22.5-25.88,22.02-.01,4.36,32.84-11.67,27.83-.81.48-.27,3.55.06,4.37,5.13,8.15,15.6.35,20.67-4.91ZM371.73,37.99c-5.22-5.35-12.4,9.4-14.04,14.23,6.1.81,15.85-6.59,14.04-14.23ZM325.13,52.03c10.53,1.99,20.02-19.79,9.21-13.81-3.88,2.84-7.64,9.15-9.21,13.81Z"/>
    <path class="cls-2" d="M605.08,24.36c-3.55,8.01-30.15,60.57-3.55,33.5.92-.93.99-2.16,2.72-1.58,2.75.92.3,4.73-.71,6.21-4.84,7.87-23.06,19.93-25.41,4.69-5.33,7.84-20.18,11.9-22.24.04-5,5.17-15.11,11.27-21.12,4.25-5.76-5.67,16.89-32.07,3.36-26.67-1.88.98-4.59,4.37-5.84,6.16-4.36,6.72-7.69,14.15-10.63,21.52-1.29,1.94-3.24,1.52-5.14,1.52-5.11.33-6.83-.21-4.95-5.46-4.54,5.75-19.35,10.38-19.23-.86-5.84,6.88-21.4,11.98-22.1-1.33,0-1-.86.39-.97.5-5.68,6.94-20.3,12.98-24.92,2.05-.98-9.22,5.54-17.26,8.48-25.75-4.74-.51-11.14,1.32-5.53-5.67,8.95-3.6,7.3,2.56,11.02-8.26,2.23-3.06,7.3-3,10.62-1.65,2.22,1.9-1.28,5.51-1.46,7.76-.11.25-1.2.14-.69.74,1.2.65,9.86-1.17,7.85,3.75-1.4,4.78-7.63,1.95-10.76,3.47-1.01,4.85-14.53,24.65-2.54,22.29,6.18-2.16,9.72-8,11.79-13.88,4.66-9.15,20.69-24.43,29.65-12.33,3.93-6.86,14.57-2.05,8.53,4.82-1,2.97-12.41,21.1-6.14,21.2,11.83-2.96,15.07-18.03,19.18-27.75,3.89-5.55,13.11-1.35,8.71,5.32,4.78-7.04,20.52-13,21.03-.02-.78,6.28-5.26,13.87-8.23,19.08-.1.32-.24,1.69-.13,1.89.89.29.83,1.73,2.03,1.79,4.91-.89,9.11-6.88,10.44-11.43,3.73-9.41,17.09-25.59,28.42-18.11,1.79,4.92,8.8-19.74,9.58-19.53,2.21-3.37,6.92-4.85,10.74-2.88,4.15,1-1.64,8.63-1.86,10.6ZM584.48,43.57c-5.24-8.89-18.93,13.71-17.19,19.46,6.47,8.61,15.17-10.8,16.73-16.17.09-.27.58-.06.66-.31.01-.63.8-2.84-.2-2.99ZM491.94,60.8c2.25-2.94,12.75-18.81,3.96-18.97-7.42,1.98-13.48,12.09-14.67,19.28.31,8.46,7.57,2.56,10.71-.3Z"/>
    <path class="cls-2" d="M435.76,21.74c-7.35-4.97-19.77,2.88-16.38,11.91,6.23,10.22,27.24,16.29,19.36,32.03-8.71,15.14-37.99,19.53-47.62,3.44-3.84-5.36.39-14.08,6.35-16.22,3.02-1.01,10.58-.31,8.99,4.29-12.97,13.48,15.35,19.2,19.81,6.74,3.05-7.88-5.35-11.9-10.26-15.97-20.03-13.29-3.98-36.38,16.04-35.3,19.45-.88,20.56,25.54,1.96,22.22-6.92-3.47,6.83-6.76,1.74-13.15Z"/>
    <path class="cls-2" d="M123.62,60.6c-1.03,5.7,5.76,8.21,10.53,7.18,8.07-.89,14.09-7.86,18.95-13.48,11.83.53-12.68,20.47-17.05,20.84-8.67,3.62-22.94,3.04-24.86-8.3-5.93,7.99-21.02,16.7-24.61,3.01-11.48,14.96-33.3,7.85-21.64-11.77.6-2.51,9.13-10.76,4.55-11.66-2.55-.37-5.15-.49-7.67-1.01-3.39,6.71-6.4,14.54-10.21,21.12-1.86,3.11-5.56,10.14-10.03,8.48-1.48-.55-1.72-1.6-1.19-3.08,5.53-6.42,9.44-14.73,13-22.38,0,0,2.61-6.87,2.61-6.87.09-.43-.57-.65-.88-.98-.85-.69-.63-1.57-1.49-1.98-.36-.9-.44-4.89.76-5.4,3.07-8.33,12.44-2.84,9.66,4.57,7.24,3.11,17.15-5.73,20.5,5.51-1.61,6.22-10.92,14.04-10.49,21.06,2.39,7.87,11.5-1.43,13.85-5.16,5.06-6.75,7.47-15.11,11.22-22.54,1.98-2.3,7.96-2.77,9.59.03,1.15,3.88-2.95,8.79-4.27,12.51-4.27,6.6-9.17,24.95,3.98,12.58,4.64-5.04,5.3-11.11,9.34-16.12,5.98-7.19,14.11-14.59,24.28-13.14,7.78,1.06,8.58,10.71,4.9,16.2-5.22,7.22-14.08,12.42-23.3,10.78ZM139.96,47.27c3.81-5.37.13-9.99-5.49-5.87-4.61,3.34-7.67,8.66-9.53,13.95,6.01.22,11.87-3.01,15.02-8.07Z"/>
    <path class="cls-2" d="M55.72,12.67c-9.25,17.44-10.92,38.86-21.72,55.63C27.87,80.85-1.65,86.54.07,67.07c1.22-3.71,5.34-5.66,6.19-.51,19.06,18.49,27.09-28.06,31.67-39.74,2.15-6.09,4.43-12.03,7.87-17.52.09-.64-.08-.25-.41-.2-12.88.28-35.06,18.4-20.26,29.63.91,8.34-8.4,11.44-13.34,4.3C-2.08,17.36,39.35-4.83,60.51,1.64c1.45,2.24-.64,3.5-1.79,5.21-1.03,1.54-2.17,4.81-2.99,5.82Z"/>
  </g>
  <g>
    <g>
      <path class="cls-1" d="M110.9,30.61c-.03.1.06.28.19.19v-.35s-.19.16-.19.16Z"/>
      <path class="cls-1" d="M112.07,30.89c.13-.21.24-.54.03-.79-.07.36-.16.24-.23.66-.14.08-.29-.02-.3-.15-.03.1-.25,0-.27.23.27.19.52.12.71-.16.08.05.05.15.06.21Z"/>
      <path class="cls-1" d="M125.82,24.46l-.1.04s.07-.02.1-.04Z"/>
      <path class="cls-1" d="M131.32,16.6c0,.08.01.11.04.13,0-.07-.01-.14-.04-.13Z"/>
      <path class="cls-1" d="M132.03,15.02s-.02.06-.04.1c.04-.03.06-.07.04-.1Z"/>
      <path class="cls-1" d="M125.82,24.46l.26-.09c-.06-.09-.15.03-.26.09Z"/>
      <path class="cls-1" d="M113.79,29.48s-.07.08-.1.13c.04-.03.07-.05.11-.08v-.05Z"/>
      <path class="cls-1" d="M122.56,27.17l-.07.04s0,.09.01.15l.05-.19Z"/>
      <path class="cls-1" d="M119.74,28.79c.07-.02-.03-.29-.06-.41.01.12,0,.2-.06.24.02.05.06.1.12.16Z"/>
      <path class="cls-1" d="M114.85,30.31l-.07.07s.05-.05.07-.07Z"/>
      <path class="cls-1" d="M124.53,25.92s.06.05.08.06c-.02-.03-.05-.05-.08-.06Z"/>
      <path class="cls-1" d="M103.3,28.98s0,.03-.01.05c.02-.02.04-.04.01-.05Z"/>
      <path class="cls-1" d="M106.54,31.05h-.05c-.01.06-.02.11-.03.16l.08-.16Z"/>
      <path class="cls-1" d="M132.55,11.87s0,0,0,.01c.04.08.03.04,0-.01Z"/>
      <path class="cls-1" d="M110.95,3.21c.38.1-.31.5.23.56-.08-.08.18-.57-.23-.56Z"/>
      <path class="cls-1" d="M113.88,29.49s.08-.03.12-.05c-.06.01-.1.03-.12.05Z"/>
      <path class="cls-1" d="M111.18,3.77h0s.05,0,.05,0c-.02,0-.04,0-.06,0Z"/>
      <path class="cls-1" d="M130.35,4.88s-.05.08-.06.13c.02-.02.04-.05.06-.13Z"/>
      <path class="cls-1" d="M131.79,10.09l.02-.14c-.02.06-.02.1-.02.14Z"/>
      <path class="cls-1" d="M128.28,2.87c-.04-.06-.03-.11-.13-.15,0,.02,0,.03,0,.05.05,0,.1.02.13.1Z"/>
      <path class="cls-1" d="M125.88,1.14s.02.05.02.07c.03,0,.06.02.09.03l-.12-.1Z"/>
      <path class="cls-1" d="M96.4,25.58c0,.1-.04.18-.07.27.1-.18.43,0,.07-.27Z"/>
      <path class="cls-1" d="M113.85,29.63c0-.07,0-.11.04-.14l-.08.04s.02.08.04.1Z"/>
      <path class="cls-1" d="M126.66,4.39l-.25-.27c.06.09.15.19.25.27Z"/>
      <path class="cls-1" d="M94.94,10.05l-.04.08s.05-.04.04-.08Z"/>
      <path class="cls-1" d="M125.52,3.5c0-.12-.03-.2-.07-.28-.02.01-.05.02-.07.04l.14.24Z"/>
      <path class="cls-1" d="M96.33,25.85h0s0,0,0,0Z"/>
      <path class="cls-1" d="M98.87,26.82c-.31-.21-.34.22-.51.35-.45-.16-.04-.35-.07-.59-.29-.06-.67.1-.83-.04.02-.06,0-.1.08-.14-.42.06-.74-.51-1.23-.46,0-.04,0-.07.02-.1-.07.18-.19.33-.28.43-.14-.11-.41-.04-.31-.26.08.08.15,0,.24-.02l-.21-.04c.1-.37.28.07.44-.13-.36-.13-.85-.22-.99-.48.2-.28.55.36.49-.11l.22.39c.12-.62.16.2.33-.43-.31-.44-.57-.28-.87-.74-.22.04-.17.22-.39.26-.79-.37.22-1-.46-1.16-.26.03-.65.24-.72-.23l.39-.11c-.27-.44-.62.06-.72-.54.18,0,.33.28.33.19.06-.46-.32-.09-.47-.33l.26-.22c-.31-.45-.83-.88-1.1-1.44.11,0,.25.05.29-.12-.24-.31-.31-.73-.38-1.12-.03-.41,0-.82.05-1.18l-.31-.25c0-.07.12-.13.18-.07.09-.29-.19,0-.31-.13-.04-.16.15-.23.25-.13-.3-.47-.56-1.48-.17-1.99l.08.11c.16-.4-.55-.56-.2-.91l.04.08c.25-.89.38-1.96,1.05-2.42-.34-.31.57-.7.08-1.04.52-.3.55-.11,1.09-.59.14-.12-.11-.44,0-.66l.24.2-.04-.46c.13.04.25.08.38.13l.1-.2c-.08.04-.23.03-.29-.04.16-.34.76-.42.86-.3l.49-.67c.05.11-.03.23-.07.35.17-.5.23.22.39-.22-.08-.04-.07-.17-.09-.23.27.08.63-.15.9-.33l.03.22c.28-.06.53-.2.82-.32.29-.11.61-.22.95-.27-.25-.06-.27-.43-.06-.5l.13.31c.1-.22-.23-.09,0-.37.27,0,.22.35.09.47l.3-.15c.03.09-.04.15-.04.28.11-.22.57.27.73-.09l.02.1c.71-.04,1.05-.16,1.67-.19,0-.28.25-.22.43-.46.47.08,1,.28,1.59.22.4-.17.1-.25.27-.43.05.26.64.16.35.38.71-.13.91-.19,1.75-.57-.12-.07-.23-.1-.2-.2.14-.08.38.01.38.14l-.03.04c.85-.6,2.45.05,2.99-.76l-.03.04c.22-.19.44-.37.64-.56.35-.11-.13.27.19.3.62-.74,1.27-.5,1.79-1.06.82.45,1.7-.88,2.55-.75l-.11-.14c.09-.24.25,0,.38-.02-.08-.12-.25-.06-.19-.2,1.32-.86,3.02-1.07,4.45-1.26.52-.06.09-.96.85-.69l-.13.37c1.01-.57,2.12-.23,3.16-.4-.07.07-.09.17-.19.16.19.23.75.17.81-.02.15.06,0,.18.06.3.15.19.61-.18.63.1,0,.05-.08.05-.12.05.16-.05.56.28.55-.02.29.27.73.17.89.5.33-.15.46.47.77.15-.28.34.27.72.61.73-.15.05.06.24-.14.31.21.17.41.33.56.13-.03.38.21.49.44.62.22.12.38.28.18.59.34.27.65.56.89.89.26.32.51.64.68,1.01-.22.07-.3-.13-.39-.32-.1-.18-.21-.35-.42-.23.26.27.48.5.68.73.19.24.4.48.43.87,0,.2-.22-.05-.3-.09.18.33.26.68.35,1.02.08.34.12.68.3.99-.04,0-.1-.06-.14-.12.04.13-.02.31.18.27l-.08-.12c.25-.26.71.44.85.46-.6-.17-.1.7-.87.39.04.08.15.18.28.15-.03.13-.11.18-.27.06.14.46.35.29.37.72-.1,0-.14-.09-.26-.13.21.21.38.44.29.8-.06-.02-.14.02-.13-.09.03.62.45,1.12.17,1.79-.4-.27-.17.21-.54.18.02.13.02.25.03.38l.21-.11c-.08.31.12.66-.07.9l-.09-.27c-.03.2-.04.41-.08.61.08-.09.15-.2.22-.3.1.38.48.09.25.49,0-.1-.12.32-.38.41h0c.06.19.12.4-.05.6-.13.02-.37-.2-.45-.19.26.28-.24.72-.03,1.05-.04-.1-.21-.19-.26-.18l.17.23c-.14.1-.18.1-.31,0-.24.38.49.1.06.48,0-.05-.03-.05-.03-.15-.38.41-.42,1-.81,1.35-.39-.09.18-.41-.18-.45-.36.62-.51,1.49-1.06,1.96l.12-.07c.33.42-.53.24-.6.66.03-.09-.13-.28-.11-.23-.41.27-.58.81-1.04,1.42l-.02-.16c-.3.1-.61.45-.89.6.01.16-.14.25.07.34-1.22-.02-1.23,1.45-2.32,1.39.09-.06.14-.23.07-.19l-.55.49c.17.17.15.07.38.14,0,.16-.13.37-.28.46.2-.31-.2-.32-.38-.35.06.05.06.14.1.2-.53-.15.18.44-.42.46l-.04-.12c-.14.15-.22.38-.42.45-.21-.19.12-.21.03-.41-.25.15-.27.74-.64.62.08-.12.24-.21.31-.34-.4-.13-.4-.05-.61,0h.02s-.51.1-.51.1l.15.02c-.02.79-.61.46-.88,1.08.26-.6-.03-.26-.13-.55-.15-.02-.37-.03-.35-.13-.11.32-.43-.01-.59.45-.05-.08-.24.09-.28-.16-.25.19.13.13.16.25-.31.49-1.17.07-1.64.73-.48.38-.46.74-.93,1.08-.23-.08.02-.38.02-.38-.33-.03-.53.07-.76.27.03-.1-.05-.15-.17-.22-.2.1-.02.39-.35.35.01-.12.02-.3.08-.44-.22.17-.41.43-.64.6-.12-.14.08-.3.13-.43-.27.17-.71.4-.72.68l.22.03c-.1.05-.13-.2-.06-.27.19-.28.39-.03.44.06l-.17.12c.37.48.72-.33,1.1-.44l-.02.45.27-.46c.12.07.25.27.09.4.34.1.19-.22.5-.09.04.02.03.05.01.07l.22-.21c-.02.1.15.26-.04.26.56.06.65-.58.94-.35l-.03.04c.6-.38-.05-.31.31-.83l.61.57-.05-.31c.07-.02.21-.05.23.07.17-.3-.09-.11-.03-.35.43.12.83-.48,1.09-.08.02-.26-.37-.03-.1-.33.31.43.35-.26.74-.17.03.29-.31.28.08.37-.02-.5.61-.16.81-.37-.15-.33.45-.4.8-.71.04.13.84-.23,1.27-.32l.02.06c-.11-.35.3-.51.52-.75.1.19.1.3,0,.47l.25-.16c0-.14.04-.24.19-.38l.08.27c.34-.22.5-.7,1.02-.84-.13-.22-.73-.36-.4-.8.1.1.25.28.17.41.03-.04.07-.19.18-.19l-.04.31c.25-.05-.01-.23.15-.31.11.16.19.04.26.18-.03.04-.18.03-.19.13.19-.09.47-.14.63-.07-.08-.08-.16-.21-.05-.33.3-.26.25.11.5.04,0-.17.28-.21.1-.45.09-.07.2.02.28.06.09-.22.71-.66.33-.74l-.05.02.02-.03h0s0,0,0,0c.32-.65,1.15-.81,1.53-1.39l.07.07c.21-.35.54-.71.57-1.06.08-.09.32-.09.38.02.15-.28.08-.37.47-.63-.05.35.19,0-.09.33.31-.27.49-.25.53-.76.11.26.45-.06.49-.27-.1.05-.2.09-.31.13.1-.19.21-.35.33-.5l.22.27c.39-.25.45-.67.51-1.04.04-.39.09-.73.54-.88-.11-.3-.35.35-.51.05.2-.32.83-.5.86-.62.36-.45-.29-.65.02-1.12-.14.03-.46,0-.43-.41.13-.35.59-.32.62-.06-.01.09-.06.13-.1.11.02.13,0,.3.18.19l-.1-.08c.16-.15.27-.68.43-.51-.04-.32-.16-.17-.27.03.27-.45.21-.75.39-1.24-.08.07-.22.12-.21.04.24-.72-.18-.36-.17-.86.22-.26.42.15.33-.37.14-.3.33-.04.4.09-.19-.49.19-.88.24-1.16l.09.26c-.05-.15-.05-.28-.04-.4l-.24.14c.05-.15.05-.27.15-.27-.15-.15-.4.11-.6-.18.12-.19-.16-.57.15-.65-.07.61.31-.08.4.43-.04-.1-.05-.22-.02-.37.03-.02.07.02.09.06.24-.61-.37-.25-.41-.85.18.06.33-.18.28-.27.02.25-.27.15-.45-.05.08-.4-.17-.4-.18-.6l-.03.24c-.19-.05-.19-.24-.29-.49.13-.05.13.22.18.12-.35-.23.21-.72-.11-1.08.07-.22.32-.1.35-.29-.35-.39.12-.57-.23-.99-.18.21-.11.21-.45-.04.16.23.29.47.4.72-.16-.14-.3-.27-.47-.39.07.23.28.45.28.6-.25-.18-.19-.17-.35,0,.27-.42-.37-.55-.28-.98l.56-.19c.04-.66-.64-.86-.87-1.59l.02.26c-.26.02-.24-.4-.43-.57.18-.08.18-.25.22-.4-.12.09-.3-.48-.67-.32l.03-.43c-.25-.59-.88-.21-1.19-.69.28,0,.2-.31.58-.1-.13-.15-.22-.31-.32-.22.01-.18-.55-.23-.57-.47-.12,0-.28.14-.44-.01,0-.05.07-.07.07-.07-.07.07-.34-.12-.34.17-.02-.43-.34-.71-.71-.89-.36-.2-.69-.41-.82-.74-.43-.11-.92-.28-1.29-.4.04-.05.03-.09.1-.05-.47-.32-.49.46-1,.11-.23-.39.35-.09.19-.25.06-.65-.73-.12-1.08-.51l.11-.03c-.3-.24-.8.12-1.31.1,0,0,.03-.06,0-.1-.36.33-1,.44-1.45.61.12-.27.2-.16.08-.41-.21.06.1.41-.3.53-.15-.12-.48-.21-.57-.46.13-.04.27-.05.41-.07-.27-.34-.53.09-.75.08v-.16c-.62.19-.54.55-1.18.72l.1.09c-.23.48-.35-.12-.61.26l-.23-.34c-.2.16-.66.65-1.02.86.12-.35.53-.67.77-.94-.22.08-.75.31-.79.53.08-.07.15-.2.26-.18-.17.39-.46.66-.88.84-.23-.74-1.18.3-1.73-.09-.62.6-1.52.59-2.34,1.03.56.39-.24.13.08.66-.18.13-.26.15-.29.13l-.75-.05c-.22-.1.13-.21.05-.33-.45.16-.29-.15-.64-.17.15.17-.02.35-.29.38l.46.11c-.46.56-.72-.24-1.19.32l.11-.26c-.26.24-1.12.46-1.26,1.03-.08-.05-.21-.18-.09-.27-.75.19-1.5,1.04-2.17.87l.02-.16c-.13.07-.19.32-.39.2,0-.06.03-.16-.04-.15-.06.06-.33.33-.53.28l.13-.2c-.74-.08-1.09.54-1.75.68-.02-.44-.64-.56-.95-.62v-.06c-.93-.03-1.61.4-2.51.65-.62-.43-2,.03-3.03.2.17.02.1.33-.05.43-.26-.02-.45.53-.59.15l.08-.03c-.33-.28-.73.05-1.06.23l.23.48c-.59-.04-1.12.38-1.46.85-.39.44-.63.89-1.06.88-.05.26-.24.48-.25.75l-.22-.17c-.42.49-.65.75-.94,1.49l-.1-.24c-.23.4.46.86.34,1.22l-.43-.05c-.29.69-.87,1.36-.66,2.18-.06-.03-.17-.07-.17-.2-.09.35-.54,1.34.07,1.29-.37-.04-.13.78.03,1.18l-.28-.07c.35.36.45.37.54.83-.04.11-.22.1-.15-.05-.15.38.26.28.15.73l-.19-.16c.01.38.1.35.33.53.12.22.03.71-.21.82.16.03.4.19.37.42-.09.05-.16-.02-.2-.05-.07.68.56.83.41,1.34-.08.04-.12.08-.14.13-.14-.5-.24-.9-.21-.87-.25.06-.17.49-.61.25.29.3.83.72.9,1.13-.02.03-.03.05-.06.08l-.04-.03c.01.1.07.17.14.23.01.14.02.23.06.35-.18.14.11.49.2.68.24-.15.33.11.41-.22,0,.04-.05-.02-.12-.13-.02-.02-.04-.05-.07-.06h.03c-.07-.11-.16-.27-.24-.45.19.1.37.19.34.46.21.01.43.02.53.04-.23.43-.13,1.01-.29,1.19.46.46.95,1.18,1.6,1.14.16.09,0,.25,0,.36-.11-.04-.18-.14-.27-.14.32.19.74.75,1.06.56.18.44-.42.06.05.45l-.14.02c.23.62.75.81,1.28.95.52.17,1.03.29,1.35.98-.05-.09-.07-.14-.05-.2,1.06,1.14,2.75,1.29,3.89,2.31.35.26.48.05.78-.04l-.02.31.52-.19c.64-.06.8,1.04,1.69.76l-.05-.22c.26.1.88.09.78.31.04-.03.13-.19.22-.06l-.02.16.72-.14c.5.21-.2.61.58.76.3-.02.88-.34.78-.46-.11-.02-.28-.14-.27-.3l.27-.04c.11-.46.34-.9-.21-1.31l-.46.22-.1-.24.35.04c-.17-.24-.32-.07-.48.04-.01-.12-.06-.22-.13-.28l-.49.36c-.01-.19.25-.32,0-.47-.23.17.1.44-.24.51-.16-.25-.06-.4-.33-.28,0-.12.06-.19.16-.22-.23.09-.55-.07-.71.14-.14-.3-.71-.11-.57-.54-.09.08-.45.23-.64.19.49-.39-.68-.25-.4-.76-.4.37-.94-.11-1.46-.05.04-.02.11-.08.14-.04-.22-.14-.24-.29-.35-.44-.19.34-.59.25-.89.38-.12-.48.38-.33.44-.7-.12.29-.63.05-.65.33-.11-.32-.13-.2-.09-.55-.27.41-.23-.03-.55.13-.19-.38.14-.43-.25-.5-.07-.22.3-.2.3-.2ZM92.42,20.92h0c.04.07.07.12.09.16-.02-.03-.05-.08-.09-.16ZM92.18,20.21c.02.09.05.2.08.32-.08.06-.19.06-.2-.02.07.02.08-.17.12-.3ZM91,22.55c-.1-.1-.06-.18-.02-.22.03.06.07.13.14.21h.04c-.05.01-.11.02-.15.01Z"/>
      <path class="cls-1" d="M91.45,22.6s.03.02.04.04c0-.04.02-.07.02-.1h-.1s.04.06.04.06Z"/>
      <path class="cls-1" d="M125.7,24.5h.02s-.04,0-.05-.01c.02,0,.02,0,.04.01Z"/>
      <polygon class="cls-1" points="94.51 10.71 94.46 10.67 94.46 10.75 94.51 10.71"/>
      <path class="cls-1" d="M121.53,26.31s-.05-.03-.09-.03c.01.01.05.02.09.03Z"/>
      <path class="cls-1" d="M119.84,27.17l-.28.03c.13,0,.22-.02.28-.03Z"/>
      <path class="cls-1" d="M118.48,27.69c0,.05.02.09.03.12h0s-.03-.12-.03-.12Z"/>
      <path class="cls-1" d="M129.95,10.49s-.01-.04-.02-.05c-.07-.11-.04-.03.02.05Z"/>
      <path class="cls-1" d="M130.04,17.09c-.02-.08-.05-.17-.05-.25-.06.11-.1.19.05.25Z"/>
      <polygon class="cls-1" points="126.68 4.42 126.69 4.41 126.66 4.39 126.68 4.42"/>
      <path class="cls-1" d="M130.1,16.55c-.09.1-.12.19-.11.29.05-.09.12-.19.11-.29Z"/>
      <path class="cls-1" d="M112.55,29.87h-.07s0,.04,0,.06l.06-.06Z"/>
      <path class="cls-1" d="M112.49,29.93l-.06.06s.06-.02.06-.06Z"/>
      <path class="cls-1" d="M112.29,30.1l.13-.12c-.05.02-.12.03-.13.12Z"/>
      <path class="cls-1" d="M114.42,29.37v-.1s-.01.06,0,.1Z"/>
      <path class="cls-1" d="M114.97,29.14c-.14.03-.41-.08-.57.04v.08c.04-.17.5.09.57-.12Z"/>
      <path class="cls-1" d="M117.74,29.38l-.5.12c.12.07.29.16.09.27.71.05-.22-.17.41-.39Z"/>
      <path class="cls-1" d="M119.23,28.88c-.23.16.07.14.08.2.12-.16.14-.2-.08-.2Z"/>
      <path class="cls-1" d="M128.37,22.1l.18.18c.11-.19-.08-.06-.18-.18Z"/>
      <polygon class="cls-1" points="128.54 19.59 128.3 19.67 128.45 19.88 128.54 19.59"/>
      <polygon class="cls-1" points="130.76 19.39 130.74 19.5 130.83 19.12 130.76 19.39"/>
      <path class="cls-1" d="M126.47,1.18l-.1.31c.16.03.37-.25.1-.31Z"/>
      <path class="cls-1" d="M117.89.73c-.13-.13-.39-.15-.49.04.19-.03.41.03.49-.04Z"/>
      <polygon class="cls-1" points="94.39 7.42 94.49 7.22 94.25 7.5 94.39 7.42"/>
    </g>
    <g>
      <path class="cls-1" d="M124.2,4.57c-.09,0-.28.03-.24.07h.33s-.09-.07-.09-.07Z"/>
      <path class="cls-1" d="M123.61,4.92c.16.03.45.07.75.01-.32-.03-.19-.05-.57-.07-.04-.04.1-.08.22-.09-.09,0,.07-.07-.14-.07-.25.08-.26.15-.04.2-.07.02-.16.01-.22.02Z"/>
      <path class="cls-1" d="M122.44,8.52h.05s-.04,0-.05,0Z"/>
      <path class="cls-1" d="M121.09,10.37s-.02-.04-.04-.06c0,.03.02.05.04.06Z"/>
      <path class="cls-1" d="M120.57,10.43s.02,0,.03,0c-.03-.01-.05-.02-.03,0Z"/>
      <path class="cls-1" d="M122.44,8.52h-.12c.1.06.09.02.12,0Z"/>
      <path class="cls-1" d="M124.43,5.45s-.05-.03-.09-.04c.01.01.03.02.03.04h.05Z"/>
      <path class="cls-1" d="M122.54,7.51v-.02s-.07-.03-.12-.05l.12.07Z"/>
      <path class="cls-1" d="M122.67,6.78s.26.08.38.11c-.11-.03-.16-.06-.18-.07-.05,0-.12-.02-.2-.03Z"/>
      <path class="cls-1" d="M123.29,5.64l-.04-.02s.02.01.04.02Z"/>
      <path class="cls-1" d="M122.31,7.99s-.07-.02-.1-.03c.03.01.07.02.1.03Z"/>
      <path class="cls-1" d="M103.44,18.58s0-.03,0-.05c0,.03,0,.05,0,.05Z"/>
      <polygon class="cls-1" points="102.28 17.35 102.29 17.34 102.27 17.18 102.28 17.35"/>
      <path class="cls-1" d="M119.84,10.68h0s-.01-.02,0,0Z"/>
      <path class="cls-1" d="M114.53,13.97c.15.22-.02.34.17.58-.04-.1-.04-.45-.17-.58Z"/>
      <path class="cls-1" d="M124.4,5.48s0,.02,0,.04c0-.02,0-.03,0-.04Z"/>
      <polygon class="cls-1" points="114.71 14.54 114.71 14.55 114.73 14.57 114.71 14.54"/>
      <path class="cls-1" d="M118.8,11.83s.06.06.09.09c-.02-.02-.04-.05-.09-.09Z"/>
      <path class="cls-1" d="M119.96,11.37h-.05s.04,0,.05,0Z"/>
      <path class="cls-1" d="M118.52,12.51s-.05-.04-.05,0c.01.01.02.02.02.02-.01-.04-.02-.06.02-.03Z"/>
      <path class="cls-1" d="M117.97,12.86s.03.03.04.04v-.02s-.04-.02-.04-.02Z"/>
      <path class="cls-1" d="M105.52,18.11c-.03-.08-.05-.16-.07-.24.04.2-.05.28.07.24Z"/>
      <path class="cls-1" d="M124.28,5.46c.07,0,.11.01.12.02,0,0,0-.02-.01-.03-.04,0-.08,0-.11,0Z"/>
      <path class="cls-1" d="M119.73,14.37l-.13.03s.09,0,.13-.03Z"/>
      <path class="cls-1" d="M110.49,17.27l-.02.04s.02,0,.02-.04Z"/>
      <path class="cls-1" d="M119.31,14.64c-.07-.07-.12-.11-.16-.13,0,.02.01.04.03.07l.13.06Z"/>
      <path class="cls-1" d="M105.45,17.86h0s0,0,0,0Z"/>
      <path class="cls-1" d="M104.83,18.64c.11,0,0-.36-.02-.58.11-.12.1.26.17.44.06-.11.07-.45.13-.45.01.06.03.08.03.16.04-.3.24-.05.28-.43.01.03.02.06.03.09-.04-.18-.08-.37-.09-.5.05-.01.05-.24.11,0-.03,0-.02.09-.02.17l.03-.11c.1.34-.05.13,0,.38.08-.13.14-.43.23-.34.07.33-.15.14,0,.42l-.13-.11c.17.52-.08-.03.09.53.17.07.14-.2.31-.12,0-.19-.05-.27-.05-.47.16-.37.3.82.39.35,0-.23-.05-.66.1-.45l.02.39c.15.01,0-.56.19-.33,0,.15-.09.14-.06.19.15.28.04-.23.11-.24l.07.33c.15-.08.28-.35.44-.44,0,.1,0,.21.05.31.19-.2.47-.03.71.13l.03-.3s.06.13.04.18c.1.1-.03-.18,0-.3.04-.03.09.16.07.25.1-.27.32-.59.52-.31l-.02.09c.14.1.04-.62.19-.36v.05c.26.09.5-.23.77.18-.03-.42.28.14.2-.44.19.26.17.37.41.53.06.02.02-.38.08-.45l.05.3.04-.33.11.35.05-.09s-.08-.13-.09-.22c.08-.15.28.17.31.32l.19-.3c.02.12-.02.17-.03.26.07-.33.08.32.15.01-.03-.07-.02-.18-.03-.24.09.17.22.15.31.06l.02.21c.19.02.36-.17.55-.21-.09-.08-.15-.45-.09-.49l.09.32c0-.2-.08-.11-.06-.37.08.02.12.35.1.47l.07-.13c.02.09.01.15.03.27,0-.21.22.29.21-.07l.02.09c.2-.04.27-.17.43-.22-.06-.28.02-.23.02-.46.14.06.32.25.46.19.07-.16-.02-.24-.02-.41.07.25.2.19.17.39.16-.08.21-.1.37-.36-.05-.1-.09-.13-.09-.22.03-.05.12.08.14.2v.03c.14-.43.75.57.81,0v.03s.12-.33.12-.33c.1.01,0,.2.11.33.09-.47.36-.04.46-.37.37.67.47-.21.81.18l-.07-.16c-.01-.18.09.07.14.1-.05-.13-.11-.13-.11-.23.33-.35.93-.07,1.41-.11.17-.03-.29-.88.07-.58l.08.33c.14-.49.63-.28.76-.73.02.08.06.16.03.18.17.18.23-.11.14-.28.05,0,.09.15.17.22.13.09,0-.35.15-.16.02.03.02.08.02.1-.02-.12.2-.08.02-.3.17.05.14-.22.31-.13-.11-.3.26.01.04-.37.23.39.38.19.33-.03.05.13.14.08.21.26.07-.06.1-.17-.05-.35.45.35.01-.55.5-.04.08-.35.16-.63.28-.87.28.35-.17.2.13.56.06-.29-.09-.67.15-.73.08,0,.1.17.14.24.05-.29.35-.27.33-.58.03.03.04.08.05.12.02-.04.11-.01-.03-.16v.07c-.24-.17-.31-.55-.42-.67.37.47.24-.03.69.57,0-.05-.06-.14-.16-.23.05,0,.12.05.2.19.02-.18-.17-.3-.08-.38.07.07.08.11.16.2-.09-.18-.19-.36-.06-.38.04.05.11.09.08.11.11-.15-.17-.57.09-.6.29.33.15.04.44.27v-.16s-.18-.08-.18-.08c.07-.07-.09-.3.06-.29l.08.15.05-.18h-.17c-.09-.2-.38-.29-.22-.33.02.04.06-.07.26.03h0c-.07-.11-.14-.22-.03-.22.11.06.32.26.39.29-.22-.22.06-.23-.18-.46.05.06.21.17.25.19l-.19-.18c.09.01.13.03.25.12.11-.08-.41-.23-.16-.25.01.02.04.04.06.08.17-.07.03-.34.21-.39.34.16,0,.15.3.28.06-.21-.16-.6,0-.73h-.05c-.45-.27.3,0,.13-.2.02.04.24.17.2.13.15-.08,0-.32-.05-.57l.11.08c.14-.02.15-.16.25-.22-.11-.08-.07-.11-.27-.16.82.03-.21-.62.48-.62,0,.03.09.1.1.08l-.06-.24c-.23-.05-.14-.02-.32-.03-.12-.07-.21-.15-.2-.19.12.13.36.11.49.11-.07-.01-.14-.05-.21-.07.42.01-.44-.15-.14-.2l.11.04c-.04-.07-.19-.15-.14-.2.27.04.11.08.32.14.01-.08-.45-.27-.18-.28.07.05.06.1.12.15.32,0,.25-.03.31-.08h0s.17-.1.17-.1l-.09.02c-.66-.24-.08-.23-.51-.45.4.2.24.06.54.13.09-.02.19-.06.27-.03-.23-.1.21-.09-.13-.23.1,0,.02-.07.26-.02-.07-.1-.17,0-.29-.02-.32-.17.44-.28,0-.51-.18-.18-.51-.22-.67-.37.16-.05.35.05.35.05.15-.08.12-.14,0-.22.08.02.16,0,.27-.03-.02-.06-.35-.04-.21-.12.11.01.28.03.39.06-.09-.08-.27-.14-.37-.22.17-.03.26.04.37.06-.08-.09-.17-.22-.44-.23l-.09.06s.23-.03.28,0c.22.06-.08.11-.18.12l-.07-.05c-.57.08.11.2.07.32l-.42-.04.34.1c-.11.02-.34.04-.4-.01-.21.07.15.07-.08.12-.04,0-.06,0-.07,0l.12.07c-.09-.02-.29,0-.23-.04-.24.11.31.21,0,.24h-.03c.13.17.31.02.65.18l-.76.02.3.05s-.04.05-.16.03c.2.09.13,0,.33.06-.29.05.1.26-.38.21.23.06.19-.06.34.06-.52-.05.08.12-.18.16-.26-.07-.11-.11-.36-.08.44.12-.13.13-.05.2.36.07.12.17.22.3-.11-.03-.24.15-.4.21l-.06-.02c.35.12.25.2.3.29-.21-.07-.29-.11-.37-.17l-.02.07c.11.05.16.09.19.15l-.26-.1c0,.09.25.28.03.33.24.1.71.15.82.33-.13-.04-.36-.12-.4-.17.01.02.09.08.03.08l-.2-.13c-.12.02.17.09.14.13-.18-.07-.14-.02-.29-.08-.01-.02.09,0,.02-.05-.05.03-.18.05-.33.01.11.04.25.1.26.14-.02.09-.23-.06-.34-.05.12.07-.03.07.24.19-.01.03-.14-.02-.22-.05.1.09-.06.22.25.3h.02s0,0,0,0h0s0,0,0,0c.19.27-.29.24-.25.43l-.09-.05c.05.14-.04.22.11.38-.01.03-.19-.03-.29-.1.03.1.12.16-.07.17-.11-.15-.14-.06-.07-.13-.12.04-.26-.03-.09.2-.2-.16-.31-.11-.27-.03l.19.04c0,.06-.04.09-.08.11l-.27-.2c-.44-.08.39.67-.25.4.16.18.19.01.39.21-.09.05-.53-.16-.55-.14-.22-.02.32.38.15.4.1.06.36.24.39.39-.09.05-.46-.22-.5-.32,0-.02.04,0,.07.02-.02-.05-.04-.11-.16-.16l.09.08c-.12-.04-.18.06-.32-.08.05.12.13.14.21.15-.21-.02-.12.13-.28.14.06.03.18.11.17.12-.22.03.12.2.09.33-.18-.07-.31-.3-.27-.12-.14-.03-.24-.2-.3-.28.1.23-.24.04-.31.05l-.03-.1c.02.06,0,.08-.02.1l.19.14c-.05,0-.07.01-.14-.06.09.13.3.25.41.45-.12-.05,0,.19-.23-.02.17-.02-.24-.21-.2-.33.01.04,0,.06-.06.05-.03-.02-.04-.05-.05-.07-.29-.11.21.29.12.38-.11-.14-.26-.22-.25-.18.04-.03.23.19.28.33-.16-.04,0,.14-.04.16h.08c.11.15.06.17.05.25-.1-.1-.02-.11-.08-.14.16.28-.33-.13-.26.08-.11-.06-.23-.25-.31-.28.08.24-.24-.11-.2.1.18.16.15.11.24.34l.03-.24.14.34s0-.19.04-.18c.09.18.05.14.2.27-.29-.22.02.26-.21.13l-.38-.45c-.26-.12.02.38-.21.37l.11.05c.13.2-.06.09-.05.2-.12-.16-.19-.2-.28-.28.09.12-.11.06.12.39l-.21-.17c-.17,0,.2.55.05.58-.09-.2-.22-.28-.23-.46-.04.02-.09.02-.01.13-.09-.09.05.29-.09.15.03.08.14.26.09.27-.03-.03-.05-.08-.05-.08.05.08,0,.15.16.31-.45-.44-.31.25-.69-.14-.05.11-.12.22-.19.28-.02-.05-.05-.09-.02-.08-.2-.1.21.53-.02.42-.22-.25-.02-.19-.11-.27-.32-.56-.11.16-.37-.14v-.04c-.16-.16-.04.3-.17.31,0,0-.02-.05-.04-.09.08.34-.02.5-.08.63-.08-.25,0-.14-.14-.37-.03.05.19.37.13.48-.09-.11-.21-.19-.33-.44l.08-.05c-.19-.3-.11.06-.18.03l-.06-.14c-.11.11.05.47-.11.5l.06.1c.07.39-.15-.17-.12.13l-.18-.35c-.02.11-.04.43-.11.54-.05-.3,0-.48,0-.67-.05.02-.16.1-.12.29,0-.04,0-.14.04-.1.05.32.02.49-.09.53-.25-.72-.35-.08-.63-.61-.09.34-.41.01-.61.13.26.54-.06.04.14.61-.04.05-.06.05-.08.02l-.27-.3c-.09-.16,0-.14-.04-.27-.13-.01-.12-.23-.24-.37.08.2.05.31-.03.25l.17.24c-.06.36-.28-.45-.35-.09v-.2c-.05.14-.3.08-.25.58-.03-.06-.1-.22-.07-.27-.21-.02-.3.63-.54.37l-.02-.15c-.03.05,0,.29-.08.15-.01-.06-.02-.15-.04-.15,0,.05-.04.28-.11.21v-.17c-.24-.14-.2.47-.35.61-.1-.43-.28-.53-.37-.59v-.06c-.25,0-.32.44-.5.65-.23-.44-.49-.11-.76-.33.05.07.06.34.03.39-.07-.08-.08.33-.15-.07h.02c-.11-.38-.19-.26-.28-.25l.08.52c-.35-.72-.51.38-.75-.28-.03.14-.09.15-.12.29l-.04-.28c-.16-.05-.23-.07-.4.03v-.21c-.1,0,0,.83-.08.86l-.1-.41c-.17.04-.41-.3-.52.1,0-.06-.02-.18,0-.2-.08,0-.37-.23-.24.34-.06-.37-.19,0-.26.17l-.03-.28c-.02.36-.01.46-.11.58-.03-.03-.06-.22-.01-.15-.11-.13-.03.27-.16.14v-.18c-.08,0-.06.09-.08.3-.04.12-.18-.04-.24-.29.01.15,0,.36-.07.3-.02-.09-.01-.15,0-.18-.18-.16-.18.36-.32.1-.02-.09-.03-.14-.04-.16.12-.01.22-.01.22,0-.04-.25-.15-.28-.12-.65-.05.2-.12.64-.23.54,0-.02-.01-.05-.03-.09v-.03s-.04,0-.05.05c-.04-.04-.06-.06-.09-.06-.04-.21-.13-.1-.18-.1.05.28-.02.24.07.46-.01-.02,0-.03.03-.05,0,0,.01-.01.02-.03v.02s.07-.03.12-.04c-.02.15-.04.27-.12.13,0,.18,0,.37,0,.46-.13-.38-.29-.57-.35-.8-.12.18-.34.16-.35.7-.03.07-.07-.14-.1-.22.02-.06.05-.05.05-.13-.06.15-.24.09-.21.46-.13-.15,0-.34-.13-.26v-.11c-.38-.54-.32,1-.76.31.03.04.04.06.06.12-.42-.27-.7.43-1.15-.04-.12-.09-.09.15-.13.33l-.07-.29-.05.36c-.11.28-.38-.69-.5-.18l.06.2c-.08-.03-.2.15-.22-.08,0,.04.01.21-.03.11l-.03-.16-.13.29c-.15-.09-.08-.62-.27-.62-.06.07-.13.49-.09.59.03,0,.09.09.12.24l-.05.09c.06.46.09.94.3,1.24l.07-.3.07.22-.09.03c.09.2.09.01.11-.12.03.12.06.2.09.24l.04-.46c.04.18,0,.36.1.45.02-.21-.11-.4-.05-.54.09.2.1.37.13.18.03.12.03.19,0,.25.03-.15.14-.08.13-.33.1.25.18-.1.24.34,0-.11.04-.36.09-.38-.01.54.2,0,.26.56,0-.48.22-.25.3-.53,0,.04,0,.12-.02.09.08.03.12.17.18.25-.05-.39.04-.49.06-.74.14.36.02.46.1.82-.05-.31.1-.34.03-.59.1.22.07.1.16.42-.07-.49.05-.09.05-.4.13.22.1.45.18.29.07.14,0,.33,0,.33ZM107.14,17.41h0s-.04.02-.05.03c0,0,.02-.01.05-.03ZM107.35,17.37s-.06,0-.09,0c-.02-.09-.03-.19,0-.19,0,.07.06.11.1.19ZM106.6,15.52s.05,0,.06.06c-.01,0-.03.02-.05.04v.03c0-.05,0-.1,0-.14Z"/>
      <path class="cls-1" d="M106.6,15.89s0,.02-.01.02c.01.02.02.04.03.06v-.09s-.02,0-.02,0Z"/>
      <path class="cls-1" d="M122.49,8.52h0s.02,0,.04,0c-.01,0-.02,0-.03,0Z"/>
      <polygon class="cls-1" points="110.28 17.44 110.27 17.37 110.26 17.44 110.28 17.44"/>
      <path class="cls-1" d="M123.79,7.77s.05,0,.07,0c-.02,0-.04,0-.07,0Z"/>
      <path class="cls-1" d="M123.99,7.27l.11-.05c-.06.02-.09.04-.11.05Z"/>
      <path class="cls-1" d="M124.21,6.89s-.08-.02-.12-.03h0s.12.03.12.03Z"/>
      <path class="cls-1" d="M121.27,12.72s0,.01,0,.02c0,.07.01.03,0-.02Z"/>
      <path class="cls-1" d="M122.06,10.85s.06.09.07.13c.04-.01.06-.03-.07-.13Z"/>
      <polygon class="cls-1" points="119.74 14.37 119.74 14.36 119.73 14.37 119.74 14.37"/>
      <path class="cls-1" d="M122.08,11.05c.06,0,.07-.02.06-.07-.03.01-.07.02-.06.07Z"/>
      <path class="cls-1" d="M124.45,5.07v-.02s-.02,0-.04,0l.04.02Z"/>
      <path class="cls-1" d="M124.41,5.05l-.03-.02s0,.02.03.02Z"/>
      <path class="cls-1" d="M124.3,4.99l.07.04s0-.04-.07-.04Z"/>
      <path class="cls-1" d="M124.33,5.64h.1s-.05,0-.1,0Z"/>
      <path class="cls-1" d="M124.35,5.81s.22-.1.16-.16h-.08c.15.02-.25.11-.08.16Z"/>
      <path class="cls-1" d="M123.05,6.35l.09-.11c-.11,0-.26.02-.28-.04-.34.11.24,0,.18.15Z"/>
      <path class="cls-1" d="M122.83,6.69c-.04-.07-.16-.03-.22-.04.09.06.11.07.22.04Z"/>
      <path class="cls-1" d="M121.91,9.17l-.22-.13c0,.06.09.05.22.13Z"/>
      <polygon class="cls-1" points="122.75 10.33 122.91 10.37 122.73 10.22 122.75 10.33"/>
      <polygon class="cls-1" points="121.06 9.58 121.04 9.54 121.07 9.66 121.06 9.58"/>
      <path class="cls-1" d="M117.94,12.59l.17.26c0-.07-.18-.37-.17-.26Z"/>
      <path class="cls-1" d="M116.34,13.76c-.08-.14-.17-.21-.14-.05.05,0,.14.1.14.05Z"/>
      <polygon class="cls-1" points="110.39 14.86 110.41 14.75 110.35 14.85 110.39 14.86"/>
    </g>
  </g>
</svg>