<?xml version="1.0" encoding="UTF-8"?>
<svg id="_レイヤー_1" xmlns="http://www.w3.org/2000/svg" version="1.1" viewBox="0 0 447.25 180.71">
  <!-- Generator: Adobe Illustrator 30.1.0, SVG Export Plug-In . SVG Version: 2.1.1 Build 136)  -->
  <defs>
    <style>
      .st0 {
        fill: #231815;
      }

      .st1 {
        fill: #e72418;
      }
    </style>
  </defs>
  <g>
    <path class="st0" d="M69.26,106.11c-.88,3.13-4.25,5.75-7.38,5.75h-9.23c-3.16,0-4.79-2.66-3.55-5.81.81-2.07,17.91-53.71,18.35-55.33.87-3.18,4.32-5.84,7.48-5.78,2.12.04,4.69.06,8.41.06,0,0,51.86-.03,54.66-.14,3.17-.13,4.95,2.36,3.91,5.48l-1.16,3.5c-1.04,3.13-4.47,5.62-7.55,5.48-2.78-.12-43.04-.18-43.04-.18-3.03,0-6.3,2.46-7.3,5.49l-.73,2.2c-1,3.03.64,5.49,3.67,5.49,0,0,35.49-.05,38.25-.17,3.16-.14,4.93,2.37,3.9,5.49l-1.03,3.12c-1.04,3.13-4.48,5.62-7.56,5.48-2.72-.12-38.1-.17-38.1-.17-3.03,0-6.3,2.46-7.3,5.49,0,0-4.11,12.5-4.7,14.56h0Z"/>
    <path class="st0" d="M171.64,44.98c3.15,0,4.78,2.64,3.57,5.78-.64,1.66-17.83,53.61-18.3,55.32-.86,3.14-4.25,5.77-7.39,5.77h-9.8c-3.16,0-4.77-2.66-3.55-5.82.67-1.74,17.86-53.66,18.3-55.27.87-3.14,4.25-5.79,7.39-5.79h9.79-.01Z"/>
    <path class="st0" d="M226.1,111.81c-2.51-.23-3.74-2.22-3.69-4.6-.09-1.71-.3-3.83-.64-6.48-1.21-10.44-4.71-14.19-13.47-14.19-6.05,0-8.34,2-9.6,6.26-1.42,4.07-3.13,9.73-4.62,14.14-1.58,3.49-5.14,5.27-8.98,4.92-2.4-.08-5.99.17-8.22-.14-3.27-.61-3.57-3.97-2.42-6.53.98-2.78,17.3-52.11,17.79-53.69.38-1.29.88-2.48,1.87-3.64,1.57-1.92,4.28-3.1,6.65-2.93,6.16.1,23.65.05,30.76.05,8.91,0,23.41,4.08,23.2,17.75-.1,6.39-5.95,11.31-11.51,14.39-2.23,1.44-3.87,3.87-3.89,6.04.03,1.8,1.22,3.57,1.6,5.5.83,3,1.55,7.26,2.28,10.97.31,1.73.61,2.87.78,4.49.31,3.2-2.61,6.65-6.02,7.49-1.32.34-2.31.25-3.7.26-2.36-.02-5.73.06-8.07-.04h-.1v-.02ZM221.33,72.78c4.28-.11,8.32-1.69,10.6-5.13,2.66-4.17,2.26-8.67-4.31-9.07-3.02-.22-6.34-.04-10.14-.1-4.69-.47-8.56,2.27-9.71,6.84-2.01,4.85-.58,7.9,4.98,7.47,2.53,0,6.33.01,8.48,0h.1,0Z"/>
    <path class="st0" d="M270.08,90.62c4.21.34,4.05,5.94,7.55,7.44,5.85,2.88,17.22,2.25,21.52-3.38,1.77-2.22,1.64-5.9-.92-7.47-1.54-.99-3.67-1.31-5.68-1.81-6.03-1.41-12.18-2.17-18.12-3.98-5.7-1.69-10.86-6.46-10.65-12.76.77-16.41,19.49-24.56,36.53-25.21,9.36-.71,22.74,1.45,26.95,6.95,5.59,5.8.52,12.38-6.62,12.59-1.84.16-4.28.38-6.04.5-1.74.13-3.6,0-4.92-1.25-1.32-1.16-1.87-2.83-3.25-3.77-2.78-1.82-6.45-1.85-9.69-1.65-4.99.59-9.55,2.29-10.77,6.44-.58,3.56,3.22,5.37,6.26,5.8,14.87,2.81,38.28,4.27,28.62,25.84-5.62,11.83-19.41,17.04-31.82,18.12-9.51.74-19.66.6-28.34-3.27-5.97-2.54-11.52-11.5-5.22-16.55,2.25-1.78,4.27-2.05,7.48-2.27,2.28-.12,4.81-.51,7.03-.33h.12l-.02.02Z"/>
    <path class="st0" d="M368.71,99.72c-.78,2.36-1.41,4.41-1.93,6.34-.85,3.15-4.24,5.8-7.4,5.8h-9.97c-3.16,0-4.79-2.66-3.56-5.81.73-1.87,1.45-3.89,2.26-6.33l11.59-35.02c1-3.03-.64-5.49-3.67-5.49,0,0-12.72.04-15.81.2-3.2.17-5.02-2.33-3.98-5.48l1.21-3.65c1.03-3.12,4.46-5.62,7.53-5.48,2.69.12,5.84.19,9.19.19h44c4.1,0,7.2-.05,10.01-.18,3.17-.14,4.94,2.37,3.91,5.49l-1.19,3.6c-1.04,3.14-4.48,5.62-7.57,5.48-2.67-.12-15.73-.17-15.73-.17-3.03,0-6.3,2.46-7.3,5.49l-11.59,35.02h0Z"/>
  </g>
  <g>
    <path class="st0" d="M145.92,141.09c-.34,0-.56-.24-.52-.58.09-.74.1-1.64.06-3.14l-.1-6.65v-.04c.02-.26.03-2.45.03-2.64.01-.6.02-1.02.01-1.26-.37,1.58-.95,3.64-1.39,4.97l-1.8,5.45c-.43,1.31-.72,2.26-.92,3.1-.1.42-.56.79-.98.79h-3.32c-.43,0-.64-.36-.46-.79.37-.87.7-1.79,1.14-3.1l4.33-13.08c.38-1.16.69-2.22.91-3.13.1-.42.56-.78.98-.78h5.22c.35,0,.56.25.52.59-.11.82-.15,1.6-.13,2.95l.15,8.84c.01.65.93.65,1.37,0l5.98-8.84c.91-1.35,1.39-2.14,1.81-2.94.18-.35.56-.6.91-.6h5.23c.43,0,.64.36.46.79-.38.91-.72,1.82-1.15,3.13l-4.33,13.08c-.47,1.42-.74,2.32-.92,3.1-.1.42-.56.79-.98.79h-3.31c-.43,0-.64-.37-.46-.79.36-.85.68-1.73,1.14-3.1l1.81-5.47c.2-.6.9-2.48,1.21-3.26.35-.89.57-1.46.67-1.71-1.2,1.96-1.75,2.86-2.38,3.76l-4.71,6.88c-.95,1.39-1.58,2.37-2,3.12-.19.33-.56.57-.9.57h-3.18Z"/>
    <path class="st0" d="M186.16,130.55c-2.19,6.63-7.69,11.02-13.79,11.02s-8.69-4.29-6.49-10.94c2.19-6.63,7.56-10.87,13.74-10.87s8.72,4.22,6.54,10.79ZM180.92,130.6c1.35-4.07.3-6.53-2.73-6.53s-5.77,2.48-7.1,6.53c-1.35,4.09-.31,6.63,2.75,6.63s5.73-2.51,7.09-6.63h0Z"/>
    <path class="st0" d="M197.32,137.3c-.39,1.17-.66,2.09-.88,3-.1.43-.56.79-.98.79h-3.93c-.43,0-.64-.37-.46-.8.37-.88.7-1.77,1.1-2.99l3.95-11.92c.13-.4-.08-.73-.49-.73h-2.24c-1.32,0-1.84.02-3.04.11-.43.03-.69-.3-.55-.72l1.06-3.21c.14-.42.61-.76,1.01-.72.78.06,1.81.1,2.93.1h10.99c1.35,0,2.27-.03,3.17-.1.43-.03.68.3.54.72l-1.06,3.2c-.14.42-.61.76-1.02.72-.83-.07-1.72-.1-3.1-.1h-2.11c-.4,0-.83.33-.97.73l-3.95,11.92h.03Z"/>
    <path class="st0" d="M228.5,130.55c-2.19,6.63-7.69,11.02-13.79,11.02s-8.69-4.29-6.49-10.94c2.19-6.63,7.56-10.87,13.74-10.87s8.72,4.22,6.54,10.79ZM223.27,130.6c1.35-4.07.3-6.53-2.73-6.53s-5.77,2.48-7.1,6.53c-1.35,4.09-.31,6.63,2.75,6.63s5.73-2.51,7.09-6.63h0Z"/>
    <path class="st0" d="M242.89,141.09c-.33,0-.55-.22-.52-.55.06-.74.07-1.73,0-3.37-.08-2.18-.19-2.76-.64-3.31-.37-.48-.93-.68-1.73-.68h-1.83c-.4,0-.83.33-.97.73l-1.12,3.39c-.43,1.3-.68,2.15-.88,3-.1.43-.56.79-.99.79h-3.77c-.43,0-.64-.37-.46-.8.34-.79.62-1.56,1.09-2.96l4.47-13.5c.39-1.19.64-2.01.84-2.87.1-.43.58-.8,1.01-.79.79.03,1.62.04,2.89.04h6.53c4.07,0,5.73,2.11,4.53,5.72-.59,1.78-1.56,3.19-2.84,4.12-.41.29-.77.5-1.2.69-.56.25-.82.88-.53,1.23.36.42.54,1.05.67,2.1.11.8.18,1.66.41,4.37.03.49.09.94.18,1.63.07.48-.47,1.03-1,1.03h-4.14ZM242.78,128.89c1.48,0,2.68-.9,3.16-2.33.47-1.41-.1-2.13-1.65-2.13h-3.21c-.4,0-.83.33-.97.73l-1,3.02c-.13.4.08.73.49.73h3.19v-.02Z"/>
    <path class="st0" d="M274.75,141.09c-.36,0-.57-.26-.51-.62.11-.63.19-1.32.25-2.07l.53-7.38v-.09c.06-.74-.98-.74-1.41,0-.02.03-.04.06-.05.09l-4.31,7.4c-.53.9-.88,1.53-1.15,2.06-.17.35-.56.6-.91.6h-3.76c-.34,0-.56-.24-.52-.58.06-.51.11-1.08.19-2.14l.97-15.06c.05-.8.07-1.55.08-2.17,0-.47.52-.94,1.01-.94h4.02c.38,0,.59.29.5.67-.16.66-.27,1.31-.38,2.1l-.92,7.63c-.05.38-.26,1.56-.62,3.54,1.07-2.11,1.55-3.01,1.87-3.54l4.58-7.78c.49-.82.84-1.45,1.12-2.01.18-.35.56-.6.92-.6h3.24c.35,0,.56.24.52.58-.07.51-.12,1.11-.17,1.95l-.53,7.73c-.06.8-.16,1.63-.51,3.66.14-.32.38-.83.71-1.53.26-.55.83-1.76,1.07-2.16l4.06-7.48c.47-.85.77-1.47,1.03-2.09.16-.38.57-.67.95-.67h4c.49,0,.68.48.38.95-.4.62-.86,1.38-1.33,2.17l-8.99,15.04c-.51.84-.94,1.57-1.24,2.14-.18.34-.56.59-.91.59h-3.78,0Z"/>
    <path class="st0" d="M312.7,130.55c-2.19,6.63-7.69,11.02-13.79,11.02s-8.69-4.29-6.49-10.94c2.19-6.63,7.56-10.87,13.74-10.87s8.72,4.22,6.54,10.79ZM307.47,130.6c1.35-4.07.3-6.53-2.73-6.53s-5.77,2.48-7.11,6.53c-1.35,4.09-.31,6.63,2.75,6.63s5.73-2.51,7.09-6.63Z"/>
    <path class="st0" d="M327.73,141.09c-.33,0-.55-.22-.52-.55.06-.74.07-1.73,0-3.37-.08-2.18-.19-2.76-.63-3.31-.37-.48-.93-.68-1.73-.68h-1.83c-.4,0-.83.33-.97.73l-1.12,3.39c-.43,1.3-.68,2.15-.88,3-.1.43-.56.79-.99.79h-3.77c-.43,0-.64-.37-.46-.8.34-.79.62-1.56,1.09-2.96l4.47-13.5c.39-1.19.64-2.01.84-2.87.1-.43.58-.8,1.01-.79.79.03,1.62.04,2.89.04h6.53c4.07,0,5.73,2.11,4.53,5.72-.59,1.78-1.56,3.19-2.84,4.12-.41.29-.77.5-1.2.69-.56.25-.82.88-.53,1.23.36.42.54,1.05.67,2.1.11.8.18,1.66.41,4.37.03.49.09.94.18,1.63.07.48-.47,1.03-1,1.03h-4.15ZM327.61,128.89c1.48,0,2.68-.9,3.16-2.33.47-1.41-.1-2.13-1.65-2.13h-3.21c-.4,0-.83.33-.97.73l-1,3.02c-.13.4.08.73.49.73h3.19v-.02Z"/>
    <path class="st0" d="M355.54,137.37c.44,1.31.69,2,.92,2.56.19.48-.38,1.15-.97,1.15h-4.58c-.28,0-.48-.16-.52-.41-.12-.8-.37-1.89-.62-2.78l-1.6-5.45c-.12-.4-.65-.46-1.09-.13l-2.23,1.68c-.18.14-.32.32-.38.51l-.95,2.86c-.4,1.22-.63,2-.85,2.92-.1.43-.56.8-.99.8h-3.71c-.43,0-.64-.37-.46-.8.39-.92.69-1.74,1.08-2.92l4.45-13.45c.39-1.18.64-2.03.85-2.92.1-.43.56-.8.99-.8h3.7c.43,0,.64.37.46.79-.39.91-.67,1.68-1.08,2.92l-.86,2.6c-.22.66.48.98,1.09.5l5.06-4c1.15-.9,2.02-1.67,2.79-2.47.21-.21.48-.34.73-.34h6.37c-.6.45-.84.65-1.31,1-1.16.87-1.94,1.45-2.34,1.76l-6.52,5.07c-.32.25-.47.63-.38.91l2.93,8.43h.02Z"/>
    <path class="st0" d="M368.96,134.35c.37-.03.63.2.59.56-.06.52,0,.86.15,1.24.35.75,1.27,1.18,2.55,1.18,1.93,0,3.37-.85,3.83-2.26.26-.78.08-1.46-.47-1.76-.44-.25-1.01-.43-3.42-1.03-2.14-.5-2.85-.8-3.56-1.46-1.22-1.1-1.51-2.79-.84-4.82,1.28-3.87,5.2-6.3,10.14-6.3,3.19,0,5.3.98,6.03,2.86.28.65.37,1.26.32,2.19-.02.43-.47.86-.93.91l-4.01.42c-.35.04-.6-.17-.6-.5,0-1.22-.73-1.74-2.39-1.74-1.53,0-2.93.83-3.32,1.98-.23.7-.03,1.23.65,1.61.29.15,1.35.43,3.19.83,1.77.4,2.84.83,3.59,1.43,1.43,1.13,1.78,2.81,1.02,5.12-.62,1.88-1.76,3.49-3.29,4.62-1.92,1.41-4.37,2.13-7.31,2.13-2.13,0-4.09-.45-5.19-1.23-1.02-.7-1.59-1.78-1.65-3.21-.04-.45-.01-.88.09-1.55.06-.42.49-.82.93-.86l3.89-.36h0Z"/>
  </g>
  <polygon class="st1" points="128.15 140 38.14 140 44.36 121.21 134.37 121.21 128.15 140"/>
</svg>