<?xml version="1.0" encoding="utf-8"?>
<!-- Generator: Adobe Illustrator 15.1.0, SVG Export Plug-In . SVG Version: 6.00 Build 0)  -->
<!DOCTYPE svg PUBLIC "-//W3C//DTD SVG 1.1//EN" "http://www.w3.org/Graphics/SVG/1.1/DTD/svg11.dtd">
<svg version="1.1" xmlns="http://www.w3.org/2000/svg" xmlns:xlink="http://www.w3.org/1999/xlink" x="0px" y="0px" width="800px"
	 height="300px" viewBox="0 0 800 300" enable-background="new 0 0 800 300" xml:space="preserve">
<g id="レイヤー_1">
	<rect display="none" width="800" height="300"/>
	<g>
		<g>
			<path fill="#EAEFF2" d="M144.892,191.558c-35.753,2.62-66.858-24.235-69.479-59.985c-2.506-34.152,21.892-64.064,55.246-68.957
				c-7.563-1.802-15.525-2.491-23.692-1.894c-42.771,3.138-74.9,40.354-71.765,83.125c3.138,42.771,40.354,74.901,83.124,71.765
				c25.762-1.89,47.657-16.145,60.315-36.526C169.12,186.113,157.565,190.627,144.892,191.558z"/>
			<path fill="#FBE359" d="M138.651,106.153c-1.527,15.019,9.41,28.431,24.429,29.956c10.549,1.073,20.299-4.008,25.701-12.327
				c-2.942-16.299-11.026-31.012-22.661-42.192C152.136,81.434,140.094,91.97,138.651,106.153z"/>
		</g>
		<g>
			<path fill="#B4C2D0" d="M619.407,174.421c0,6.444-0.92,12.313-2.762,17.606c-1.84,5.294-4.444,9.825-7.811,13.595
				c-3.365,3.768-7.437,6.688-12.212,8.76c-4.777,2.071-10.128,3.106-16.055,3.106c-6.099,0-11.55-1.035-16.354-3.106
				s-8.89-4.992-12.257-8.76c-3.365-3.77-5.94-8.301-7.725-13.595c-1.783-5.293-2.674-11.162-2.674-17.606
				c0-6.502,0.919-12.399,2.76-17.693c1.842-5.294,4.445-9.839,7.813-13.637c3.365-3.797,7.45-6.733,12.255-8.805
				s10.17-3.107,16.097-3.107c6.041,0,11.479,1.036,16.313,3.107s8.918,5.008,12.256,8.805c3.338,3.798,5.898,8.343,7.682,13.637
				C618.517,162.021,619.407,167.919,619.407,174.421z M605.427,174.421c0-5.063-0.619-9.565-1.857-13.508
				c-1.236-3.941-2.962-7.278-5.178-10.011c-2.214-2.733-4.848-4.805-7.896-6.215c-3.051-1.409-6.388-2.115-10.013-2.115
				c-3.624,0-6.963,0.706-10.012,2.115c-3.049,1.41-5.683,3.481-7.898,6.215c-2.214,2.732-3.939,6.069-5.177,10.011
				c-1.237,3.942-1.856,8.445-1.856,13.508c0,5.007,0.619,9.479,1.856,13.421c1.237,3.942,2.979,7.265,5.222,9.969
				c2.244,2.704,4.891,4.761,7.939,6.171c3.051,1.41,6.388,2.114,10.012,2.114c3.626,0,6.949-0.704,9.97-2.114
				s5.64-3.467,7.854-6.171c2.216-2.704,3.941-6.026,5.178-9.969C604.808,183.9,605.427,179.428,605.427,174.421z"/>
			<path fill="#B4C2D0" d="M738.688,205.838c4.43,0,8.472-0.359,12.125-1.08c3.654-0.719,7.294-1.74,10.919-3.063v11.134
				c-2.935,1.438-6.56,2.575-10.875,3.409c-4.315,0.833-8.947,1.251-13.896,1.251c-5.869,0-11.379-0.747-16.527-2.244
				c-5.151-1.495-9.609-3.911-13.375-7.249c-3.766-3.337-6.715-7.696-8.846-13.076c-2.134-5.379-3.198-11.866-3.198-19.463
				c0-7.479,1.032-13.968,3.101-19.462c2.063-5.495,4.82-10.083,8.264-13.767c3.445-3.683,7.402-6.444,11.881-8.286
				c4.477-1.842,9.156-2.763,14.035-2.763c4.589,0,8.881,0.765,12.869,2.287c3.99,1.525,7.447,3.929,10.377,7.208
				c2.925,3.28,5.236,7.51,6.929,12.688c1.694,5.179,2.541,11.393,2.541,18.643c0,0.691,0,1.281,0,1.77
				c0,0.49-0.028,1.597-0.086,3.323h-56.618c0,5.235,0.79,9.681,2.374,13.334c1.581,3.655,3.739,6.618,6.472,8.891
				c2.734,2.273,5.941,3.927,9.624,4.963C730.459,205.319,734.429,205.838,738.688,205.838z M731.629,142.659
				c-3.088,0-5.955,0.604-8.607,1.813c-2.652,1.209-4.968,2.849-6.944,4.92c-1.983,2.071-3.586,4.503-4.808,7.293
				c-1.225,2.791-1.98,5.768-2.273,8.934h41.946c0-3.223-0.424-6.229-1.269-9.02c-0.844-2.791-2.081-5.222-3.714-7.294
				c-1.631-2.07-3.642-3.696-6.029-4.876C737.541,143.249,734.773,142.659,731.629,142.659z"/>
			<polygon fill="#B4C2D0" points="242,208 242,101 214,101 214,207.882 214,215 242.03,215 298,215 298,208 			"/>
			<path fill="#B4C2D0" d="M374,134L374,134h-13v49.569c0,4.144-0.273,7.625-1.252,10.443c-1.323,3.684-3.416,6.618-6.495,8.804
				c-3.078,2.187-7.096,3.279-12.158,3.279c-4.776,0-8.676-0.992-11.754-2.978c-3.079-1.984-5.227-4.703-6.609-8.156
				c-1.207-3.049-1.731-6.847-1.731-11.393V134h-14v49.655c0,2.935,0.417,5.64,0.762,8.113c0.345,2.475,1.043,4.747,1.848,6.818
				c1.035,2.763,2.508,5.309,4.291,7.639c1.783,2.331,3.985,4.33,6.544,5.998c2.562,1.669,5.556,2.964,8.95,3.885
				c3.396,0.919,7.229,1.38,11.487,1.38c4.374,0,8.303-0.474,11.785-1.424c3.48-0.949,6.487-2.287,9.134-4.014
				c2.449-1.596,4.2-3.489,6.2-5.651V215h6V134L374,134z"/>
			<path fill="#B4C2D0" d="M518.068,145.767c-1.785-3.798-4.159-6.775-6.868-8.934c-2.708-2.158-5.739-3.639-8.966-4.446
				c-3.227-0.805-6.313-1.208-9.193-1.208c-6.227,0-11.683,1.665-16.352,4.57c-4.667,2.905-8.835,8.251-12.465,12.251h-0.346
				c-2.187-4-5.293-9.272-9.32-12.209c-4.028-2.934-9.093-4.507-15.191-4.507c-3.049,0-5.868,0.292-8.458,0.983
				c-2.588,0.69-4.962,1.628-7.12,2.866c-2.158,1.238-4.114,2.798-5.868,4.438c-1.756,1.64-3.381,4.43-4.876,5.43h-0.26l-2.589-11
				h-10.358c-0.236,0-0.806-1-1.526,0H392v78.018v2.757v0.337l5.656-0.229l0.967,0.049l1.202,0.069H413v-57.927
				c3-4.488,6.725-8.013,10.639-10.573c3.912-2.56,8.31-3.841,13.086-3.841c2.532,0,4.846,0.374,6.887,1.123
				c2.043,0.747,3.811,1.926,5.279,3.538c1.467,1.611,2.382,3.668,3.159,6.171c0.776,2.503,0.95,5.538,0.95,9.106V215h15v-57.927
				c2-4.488,6.039-8.013,9.98-10.573c3.941-2.56,8.003-3.841,12.778-3.841c2.531,0,4.671,0.374,6.714,1.123
				c2.041,0.747,3.723,1.926,5.191,3.538c1.467,1.611,2.991,3.668,3.768,6.171c0.777,2.503,1.568,5.538,1.568,9.106V215h13v-54.562
				C521,154.455,519.855,149.564,518.068,145.767z"/>
			<path fill="#B4C2D0" d="M683.664,131.222c-0.605-0.028-1.063-0.043-1.64-0.043c-3.163,0-6.122,0.389-8.999,1.165
				c-2.877,0.777-5.49,1.855-7.906,3.237s-4.571,3.308-6.499,5.148c-1.929,1.842-3.538,4.271-4.861,6.271H653.5l-2.59-13h-10.357
				h-0.431H637v79.396v1.378l0.112,0.216l3.728-0.06l0.356,0.069H654v-56.805c1-2.359,3.201-4.402,5.359-6.128
				c2.158-1.727,4.558-3.179,7.234-4.358c2.676-1.18,5.527-1.664,8.576-2.239s6.149-0.47,9.314-0.47H685v-13.648
				C685,131.296,684.269,131.252,683.664,131.222z"/>
			<path fill="#B4C2D0" d="M556.748,111.965c1.797,1.798,3.567,5.219,2.549,6.238c-1.02,1.019-4.44-0.752-6.238-2.55
				c-1.799-1.798-2.429-4.08-1.41-5.1C552.668,109.534,554.949,110.167,556.748,111.965z"/>
			<path fill="#B4C2D0" d="M581.998,111.08c0,2.542-1.168,6.214-2.608,6.214c-1.441,0-2.608-3.672-2.608-6.214
				c0-2.543,1.167-4.604,2.608-4.604C580.83,106.477,581.998,108.537,581.998,111.08z"/>
			<path fill="#B4C2D0" d="M605.722,115.615c-1.799,1.798-5.221,3.568-6.238,2.549c-1.019-1.018,0.753-4.439,2.548-6.238
				c1.797-1.798,4.083-2.428,5.1-1.409C608.149,111.534,607.519,113.817,605.722,115.615z"/>
		</g>
	</g>
</g>
<g id="レイヤー_2">
</g>
</svg>
