<?xml version="1.0" encoding="UTF-8"?>
<svg id="_レイヤー_1" xmlns="http://www.w3.org/2000/svg" version="1.1" viewBox="0 0 235.48 109.27">
  <!-- Generator: Adobe Illustrator 30.1.0, SVG Export Plug-In . SVG Version: 2.1.1 Build 136)  -->
  <defs>
    <style>
      .st0 {
        fill: none;
        stroke: #000;
        stroke-width: .25px;
      }
    </style>
  </defs>
  <path d="M44.07,44.88c0,5.29.14,7.6.79,8.24.58.58,1.51.83,4.32.83,1.91,0,3.49-.04,4.36-1.08.47-.58.83-1.48.94-2.16.04-.29.11-.47.32-.47.18,0,.22.14.22.54s-.25,2.56-.54,3.6c-.25.83-.36.97-2.27.97-3.1,0-6.16-.22-9.65-.22-1.12,0-2.2.11-3.53.11-.4,0-.58-.07-.58-.29,0-.11.07-.22.29-.22.32,0,.76-.07,1.08-.14.72-.14.9-.94,1.04-1.98.18-1.51.18-4.36.18-7.81v-6.34c0-5.62,0-6.62-.07-7.77-.07-1.22-.36-1.8-1.55-2.05-.29-.07-.9-.11-1.22-.11-.14,0-.29-.07-.29-.22,0-.22.18-.29.58-.29,1.62,0,3.89.11,4.07.11s2.81-.11,3.89-.11c.4,0,.58.07.58.29,0,.14-.14.22-.29.22-.25,0-.76.04-1.19.11-1.04.18-1.33.79-1.4,2.05-.07,1.15-.07,2.16-.07,7.77v6.41h-.01Z"/>
  <path d="M62.2,43.51c0,5.18,1.15,7.42,2.7,8.89,1.76,1.66,3.38,1.98,5.44,1.98,2.2,0,4.36-1.04,5.65-2.59,1.66-2.05,2.09-5.11,2.09-8.82v-4.5c0-5.62,0-6.62-.07-7.77-.07-1.22-.36-1.8-1.55-2.05-.29-.07-.9-.11-1.22-.11-.14,0-.29-.07-.29-.22,0-.22.18-.29.58-.29,1.62,0,3.6.11,3.82.11.25,0,1.94-.11,3.02-.11.4,0,.58.07.58.29,0,.14-.14.22-.29.22-.25,0-.47.04-.9.11-.97.22-1.26.79-1.33,2.05-.07,1.15-.07,2.16-.07,7.77v3.85c0,3.89-.43,8.21-3.31,10.76-2.59,2.3-5.29,2.66-7.42,2.66-1.22,0-4.86-.14-7.42-2.56-1.76-1.69-3.13-4.21-3.13-9.47v-5.26c0-5.62,0-6.62-.07-7.77-.07-1.22-.36-1.8-1.55-2.05-.29-.07-.9-.11-1.22-.11-.14,0-.29-.07-.29-.22,0-.22.18-.29.58-.29,1.62,0,3.82.11,4.14.11s2.48-.11,3.56-.11c.4,0,.58.07.58.29,0,.14-.14.22-.29.22-.25,0-.47.04-.9.11-.97.14-1.26.79-1.33,2.05-.07,1.15-.07,2.16-.07,7.77v5.04l-.02.02Z"/>
  <path d="M115.88,50.6c.14,1.3.4,3.31,1.94,3.82,1.04.32,1.87.32,2.23.32.18,0,.4.04.4.22,0,.22-.11.29-.54.29-.79,0-4.9-.11-6.23-.22-.83-.07-1.01-.18-1.01-.36,0-.14.07-.18.25-.25.25-.11.22-.65.14-1.3l-1.73-18.79-8.93,18.93c-.76,1.58-.86,1.91-1.19,1.91-.25,0-.43-.36-1.12-1.66-.94-1.76-4.03-7.99-4.21-8.35-.32-.65-4.46-9.54-4.86-10.51l-1.48,16.95c-.04.58-.07,1.08-.07,1.69,0,.9.43,1.19.97,1.3.61.14,1.08.14,1.3.14s.36.07.36.18c0,.25-.18.32-.54.32-1.33,0-3.17-.11-3.46-.11-.32,0-2.05.11-3.02.11-.36,0-.61-.04-.61-.29,0-.14.18-.22.36-.22.29,0,.54,0,1.08-.11,1.19-.22,1.26-1.51,1.44-2.99l2.59-23.4c.04-.4.18-.72.4-.72s.36.14.54.54l11.01,22.64,10.58-22.61c.14-.32.29-.58.54-.58s.36.29.43.97l2.41,22.1.03.04Z"/>
  <path d="M126.98,42.53c0-4.25,0-5.02-.07-5.89-.07-.93-.44-1.57-1.22-2-.35-.19-.9-.47-1.09-.64-.16-.14-.36-.53-.32-.63.13-.3,1.01.15,1.35.35,1.03.62,2.68.98,2.86.98s1.03.08,1.95-.48c.34-.21.86-1.13,1.13-.8.07.08-.13.74-.26.96-.11.19-.18.45-.38.61-.53.45-.81,1-.86,1.64-.07.87-.07,1.64-.07,5.89v4.8c0,2.62,0,4.77.18,5.92.11.79.32,1.39,1.4,1.5.5.05,1.26.11,1.48.11.32,0,.43.08.43.16,0,.14-.14.22-.54.22-1.98,0-4.28-.08-4.46-.08s-2.45.08-3.53.08c-.4,0-.58-.05-.58-.22,0-.08.07-.16.4-.16.22,0,.61-.03.94-.08.72-.11.94-.74,1.08-1.53.18-1.15.18-3.3.18-5.92v-4.8h0Z"/>
  <path d="M140.86,44.62c0-12.99.07-8.31.04-15.3,0-1.4.11-1.8.4-1.8s.9.79,1.26,1.15c.54.61,5.9,6.41,11.45,12.35,3.56,3.82,7.49,8.21,8.64,9.4l-.4-18.29c-.04-2.34-.29-3.13-1.4-3.42-.65-.14-1.22-.18-1.55-.18-.4,0-.5-.11-.5-.25,0-.22.29-.25.72-.25,1.62,0,3.35.11,3.74.11s1.58-.11,3.06-.11c.4,0,.65.04.65.25,0,.14-.14.22-.4.25-.29.04-.5.07-.94.14-1.01.22-1.26.76-1.26,3.24l-.07,21.02c0,2.38-.07,2.56-.32,2.56-.29,0-.72-.4-2.63-2.3-.4-.36-5.58-5.65-9.39-9.75-4.18-4.5-8.24-9.03-9.4-10.33l.47,17.24c.07,2.95.43,3.89,1.4,4.18.68.18,1.48.22,1.8.22.18,0,.29.07.29.22,0,.22-.22.29-.65.29-2.05,0-3.49-.11-3.82-.11s-1.84.11-3.46.11c-.36,0-.58-.04-.58-.29,0-.14.11-.22.29-.22.29,0,.94-.04,1.48-.22.9-.25,1.08-1.3,1.08-4.57v-5.33h0Z"/>
  <path d="M177.54,44.62c-.18,0-.29.11-.36.29l-2.16,6.37c-.32.9-.5,1.76-.5,2.41,0,.72.68,1.04,1.3,1.04h.32c.36,0,.47.07.47.22,0,.22-.32.29-.65.29-.86,0-2.3-.11-2.7-.11s-2.38.11-4.07.11c-.47,0-.68-.07-.68-.29,0-.14.18-.22.5-.22.25,0,.58-.04.86-.07,1.66-.22,2.38-1.58,3.02-3.38l8.17-22.35c.43-1.19.58-1.4.79-1.4s.36.18.79,1.3c.54,1.37,6.19,16.23,8.39,21.71,1.3,3.2,2.34,3.78,3.1,4,.54.18,1.12.22,1.4.22.22,0,.4.04.4.22,0,.22-.32.29-.72.29-.54,0-3.17,0-5.65-.07-.68-.04-1.08-.04-1.08-.25,0-.14.11-.22.25-.25.22-.07.43-.4.22-.97l-3.35-8.85c-.07-.14-.14-.22-.32-.22h-7.74v-.04ZM184.81,43.33c.18,0,.18-.11.14-.25l-3.42-9.72c-.18-.54-.36-.54-.54,0l-3.17,9.72c-.07.18,0,.25.11.25h6.88,0Z"/>
  <g>
    <path d="M76.03,75.98c0-2.81,0-3.31-.04-3.89-.04-.61-.18-.9-.77-1.03-.11-.02-.29-.02-.45-.04-.16-.02-.31-.04-.31-.13,0-.11.09-.14.29-.14.7,0,1.39.05,2.03.05.36,0,4.02,0,4.43-.02s.74-.02.88-.11c.05-.04.13-.07.16-.07.07,0,.11.07.11.16s-.07.34-.11.56c-.07.52-.07.81-.11,1.31,0,.22-.09.36-.16.36-.09,0-.11-.07-.13-.23-.02-.25-.09-.68-.34-.9-.22-.18-.54-.32-1.06-.34-.92-.02-1.84-.04-2.75-.05-.11,0-.16.05-.16.2v4.97c0,.11.02.16.13.16.74,0,1.76,0,2.5-.02.95-.02,1.19-.04,1.44-.34.09-.11.13-.18.2-.18s.09.05.09.14c0,.11-.09.41-.14,1.01-.05.54-.05.97-.07,1.24-.02.2-.04.31-.13.31-.11,0-.13-.13-.14-.31-.04-.4-.09-1.03-1.03-1.15-.45-.05-2.41-.05-2.72-.05-.09,0-.13.04-.13.16v1.53c0,1.53,0,2.81.05,3.64.05.81.25,1.21.74,1.26.23.04.54.05.74.07.16.02.22.05.22.13,0,.09-.09.13-.29.13-1.01,0-2.12-.05-2.21-.05h-.16c-.36.02-1.17.05-1.6.05-.2,0-.29-.04-.29-.14,0-.05.04-.09.2-.11.18-.02.34-.04.47-.07.38-.11.5-.38.56-1.17.05-.77.07-2.03.07-3.73v-3.17h-.01Z"/>
    <path d="M89.7,79.18c0,2.65.07,3.8.4,4.12.29.29.76.41,2.16.41.95,0,1.75-.02,2.18-.54.23-.29.41-.74.47-1.08.02-.14.05-.23.16-.23.09,0,.11.07.11.27s-.13,1.28-.27,1.8c-.13.41-.18.49-1.13.49-1.55,0-3.08-.11-4.83-.11-.56,0-1.1.05-1.76.05-.2,0-.29-.04-.29-.14,0-.05.04-.11.14-.11.16,0,.38-.04.54-.07.36-.07.45-.47.52-.99.09-.76.09-2.18.09-3.91v-3.17c0-2.81,0-3.31-.04-3.89-.04-.61-.18-.9-.77-1.03-.14-.04-.45-.05-.61-.05-.07,0-.14-.04-.14-.11,0-.11.09-.14.29-.14.81,0,1.94.05,2.03.05s1.4-.05,1.94-.05c.2,0,.29.04.29.14,0,.07-.07.11-.14.11-.13,0-.38.02-.59.05-.52.09-.67.4-.7,1.03-.04.58-.04,1.08-.04,3.89v3.21h-.01Z"/>
    <path d="M98.27,77.54c0-2.92,2.12-7.04,7.09-7.04,4.05,0,7.08,2.56,7.08,6.75s-2.85,7.36-7.18,7.36c-4.93,0-6.99-3.84-6.99-7.08h0ZM110.72,77.76c0-4.32-2.63-6.64-5.47-6.64-3.01,0-5.26,1.98-5.26,5.92,0,4.2,2.52,6.9,5.76,6.9,1.62,0,4.97-.94,4.97-6.18Z"/>
    <path d="M117.84,75.98c0-2.81,0-3.31-.04-3.89-.04-.61-.18-.9-.77-1.03-.14-.04-.45-.05-.61-.05-.07,0-.14-.04-.14-.11,0-.11.09-.14.29-.14.81,0,1.94.05,2.03.05.2,0,1.57-.05,2.12-.05,1.13,0,2.34.11,3.29.79.45.32,1.24,1.21,1.24,2.45,0,1.33-.56,2.66-2.18,4.16,1.48,1.89,2.7,3.49,3.75,4.61.97,1.03,1.75,1.22,2.2,1.3.34.05.59.05.7.05.09,0,.16.05.16.11,0,.11-.11.14-.43.14h-1.28c-1.01,0-1.46-.09-1.93-.34-.77-.41-1.4-1.3-2.43-2.65-.76-.99-1.6-2.2-1.96-2.66-.07-.07-.13-.11-.23-.11l-2.21-.04c-.09,0-.13.05-.13.14v.43c0,1.73,0,3.15.09,3.91.05.52.16.92.7.99.25.04.65.07.81.07.11,0,.14.05.14.11,0,.09-.09.14-.29.14-.99,0-2.12-.05-2.21-.05-.02,0-1.15.05-1.69.05-.2,0-.29-.04-.29-.14,0-.05.04-.11.14-.11.16,0,.38-.04.54-.07.36-.07.45-.47.52-.99.09-.76.09-2.18.09-3.91v-3.17h.01ZM119.28,77.54c0,.09.04.16.13.22.27.16,1.1.29,1.89.29.43,0,.94-.05,1.35-.34.63-.43,1.1-1.4,1.1-2.77,0-2.25-1.19-3.6-3.12-3.6-.54,0-1.03.05-1.21.11-.09.04-.14.11-.14.22v5.89-.02Z"/>
    <path d="M136.25,79.05c-.09,0-.14.05-.18.14l-1.08,3.19c-.16.45-.25.88-.25,1.21,0,.36.34.52.65.52h.16c.18,0,.23.04.23.11,0,.11-.16.14-.32.14-.43,0-1.15-.05-1.35-.05s-1.19.05-2.03.05c-.23,0-.34-.04-.34-.14,0-.07.09-.11.25-.11.13,0,.29-.02.43-.04.83-.11,1.19-.79,1.51-1.69l4.09-11.18c.22-.59.29-.7.4-.7s.18.09.4.65c.27.68,3.1,8.12,4.2,10.86.65,1.6,1.17,1.89,1.55,2,.27.09.56.11.7.11.11,0,.2.02.2.11,0,.11-.16.14-.36.14-.27,0-1.58,0-2.83-.04-.34-.02-.54-.02-.54-.13,0-.07.05-.11.13-.13.11-.04.22-.2.11-.49l-1.67-4.43c-.04-.07-.07-.11-.16-.11h-3.9ZM139.89,78.41c.09,0,.09-.05.07-.13l-1.71-4.86c-.09-.27-.18-.27-.27,0l-1.58,4.86c-.04.09,0,.13.05.13h3.44Z"/>
    <path d="M151.81,79.18c0,2.65.07,3.8.4,4.12.29.29.76.41,2.16.41.95,0,1.75-.02,2.18-.54.23-.29.41-.74.47-1.08.02-.14.05-.23.16-.23.09,0,.11.07.11.27s-.13,1.28-.27,1.8c-.13.41-.18.49-1.13.49-1.55,0-3.08-.11-4.83-.11-.56,0-1.1.05-1.76.05-.2,0-.29-.04-.29-.14,0-.05.04-.11.14-.11.16,0,.38-.04.54-.07.36-.07.45-.47.52-.99.09-.76.09-2.18.09-3.91v-3.17c0-2.81,0-3.31-.04-3.89-.04-.61-.18-.9-.77-1.03-.14-.04-.45-.05-.61-.05-.07,0-.14-.04-.14-.11,0-.11.09-.14.29-.14.81,0,1.94.05,2.03.05s1.4-.05,1.94-.05c.2,0,.29.04.29.14,0,.07-.07.11-.14.11-.13,0-.38.02-.59.05-.52.09-.67.4-.7,1.03-.04.58-.04,1.08-.04,3.89v3.21h0Z"/>
  </g>
  <line class="st0" x1="67.21" y1="63.14" x2="163.36" y2="63.14"/>
  <path d="M128.82,25.55c-1.69-2.29-5.28-3.14-5.19-3.11.09.03-.99,6.53.95,9.6s5.23,2.96,5.23,2.96h-.01c2-5.14.71-7.16-.98-9.45ZM128.67,34.4c-.89-.68-1.34-1.73-1.72-2.75-.34-.98-.86-2.1-1-3.06.8,1.96,2.01,3.84,2.7,5.77-.46-2.92-1.29-5.86-2.65-8.41,1.57,2.41,3.26,5.54,2.65,8.43,0,0,0,.01,0,.02Z"/>
</svg>