<?xml version="1.0" encoding="UTF-8" standalone="no"?>
<!DOCTYPE svg PUBLIC "-//W3C//DTD SVG 1.1//EN" "http://www.w3.org/Graphics/SVG/1.1/DTD/svg11.dtd">
<svg width="100%" height="100%" viewBox="0 0 228 232" version="1.1" xmlns="http://www.w3.org/2000/svg" xmlns:xlink="http://www.w3.org/1999/xlink" xml:space="preserve" xmlns:serif="http://www.serif.com/" style="fill-rule:evenodd;clip-rule:evenodd;stroke-linejoin:round;stroke-miterlimit:2;">
    <g transform="matrix(1,0,0,1,-0.654,-0.829059)">
        <path d="M183.831,88.799L131.884,106.108L227.748,103.041C227.748,103.041 220.077,12.731 123.483,0.958C123.483,0.958 12.119,-7.58 0.894,114.297L41.027,113.533C41.027,113.533 44.912,39.351 121.615,40.548C121.615,40.548 166.442,45.199 183.831,88.799Z" style="fill:url(#_Linear1);fill-rule:nonzero;"/>
        <path d="M44.63,144.528L96.503,126.997L0.654,130.476C0.654,130.476 8.712,220.753 105.356,232.111C105.356,232.111 216.755,240.172 227.459,118.247L187.329,119.183C187.329,119.183 183.762,193.381 107.055,192.514C107.053,192.513 62.206,188.054 44.63,144.528Z" style="fill:url(#_Linear2);fill-rule:nonzero;"/>
    </g>
    <defs>
        <linearGradient id="_Linear1" x1="0" y1="0" x2="1" y2="0" gradientUnits="userSpaceOnUse" gradientTransform="matrix(226.401127,-17.211118,17.211118,226.401127,-2.841586,65.156296)"><stop offset="0" style="stop-color:rgb(230,0,18);stop-opacity:1"/><stop offset="1" style="stop-color:rgb(64,34,15);stop-opacity:1"/></linearGradient>
        <linearGradient id="_Linear2" x1="0" y1="0" x2="1" y2="0" gradientUnits="userSpaceOnUse" gradientTransform="matrix(226.963162,-7.243747,7.243747,226.963162,2.247061,180.395021)"><stop offset="0" style="stop-color:rgb(230,0,18);stop-opacity:1"/><stop offset="1" style="stop-color:rgb(64,34,15);stop-opacity:1"/></linearGradient>
    </defs>
</svg>
