<?xml version="1.0" encoding="UTF-8"?>
<svg id="_レイヤー_1" data-name="レイヤー_1" xmlns="http://www.w3.org/2000/svg" version="1.1" viewBox="0 0 645.96 130.33">
  <!-- Generator: Adobe Illustrator 30.0.0, SVG Export Plug-In . SVG Version: 2.1.1 Build 123)  -->
  <path d="M487.03,50.05c.06-.18.77-.53,1.01-1.07,1.15-2.62,1.46-1.74,2.08-2.67s-.17-1.94,1.73-2.46l-.06-3.99,1.44-.78-.06-5.35c1.44-.28,1.71-2.16,2.47-2.4,2.91-.92,4.8,2.92,4.41,5.42,1.26.37,1.52-.93,2.52-1.24,1.06-.33,2.11-.11,3.45-.65,1.79-.72,2.83-2.61,3.35-2.91,1.69-1,5.11-1.59,7-2.81,1.02-1.31.04-2.44.07-3.63.06-1.9,2.68-2.24,2.79-1.37l-.69,3.07c2.07-.19,4.49.29,6.5,0,1.63-.24,4.52-1.83,6.5-2.4,13.65-3.92,28.64-7.48,42.81-8.55,2.47-.19,4.41,1.06,6.21,2.74,3.73,3.48,1.59,6.8-2.24,8.74-6.05,3.05-19.17,9.4-25.3,10.97-.75.19-1.53.11-2.28.11.45-2.46,1.63-1.88,3-2.69,3.41-2.02,8.6-7.22,11.84-9.6.78-.57,1.95-1.11,2.88-1.45.83-4.44-1.4-2.19-3.71-1.99-15.86,1.36-27.78,5.51-42.77,9.95-4.83,1.43-12.41,2.45-16.66,4.56-.76.38-1.64,1.06-1.85,1.91,4.21,1.46,7.66,4.57,10,8.23,1.92-.21,4.12.27,5.98-.15,3.24-.73,11.61-3.22,14.14-5.03s3.5-5.43,5.97-.99l9.81,2.73c.17,1.43.13,1.12-.88,1.5-4.32,1.64-8.36,2.73-12.12,5.69l-8.93,11.59c-.39,1.88,1.85.51,3.05.31.79-.13,1.71.17,2.65-.09,2.34-.65,4.3-4.26,7.94-1.88l-.63,11.55c1.29-1.46,3.17-1.78,4.48-2.7s5.22-5.73,6.72-7.31,3.88-3.91,4.71-6.24l1.25-.53.62-4.08c9.11-2.34,8.26,6.35,2.43,9.93l-18.83,17.75,35.13,19.27c9.11,3.46,17.96,7.99,27.17,11.15.92.32,1.81.39,2.77.31l-.69,2.04c9.67,2.71,19.24,5.65,29.15,7.48,2.24.41,5.19.38,7.46.75.89.15,2.37.52,3.12.99-.99,1.11-2.78-.32-3.77-.31-.84.01-1.62.72-2.7.66-15.96-.99-27.83-1.3-43.73-6.31-21.06-6.65-34.23-17.46-52.8-27.26-.99-.52-2.4-2.62-2.5-.24-.43,9.48-.8,18.67-5.6,27.2-2.15,3.83-7.02,8.9-10.87,11.01-.74.41-2.28.96-3.09,1.04-2.89.29-2.69-1.14-4.43-2.36-4.59-3.22-9.22-7.51-14.57-10.06-1.84-.88-3.04.21-2.53-2.59,1.31-.22,2.04.98,3.2,1.24,4.27.97,9.1,1.5,13.44,2.31,1.18.22,2.32,1.02,3.59,1.19,3.57.48,4.6-.07,6.72-2.47,1.16-1.31.79-1.3,1.46-2.29.41-.6,1.47-.53,1.63-.76.34-.47-.07-1.92.21-2.86.17-.57.91-.98,1.12-1.62.89-2.71,2.5-9.37,2.57-12.16.04-1.61-.82-3.93-.39-5.8-9.59,7.15-19.04,14.86-29.5,20.78-7.12,4.02-11.67,5.03-19.32,7.37-2.62.8-5.16,2.83-8.04,2.57l10.53-4.86c.73-.35,1.18-1.25,1.82-1.6,15.74-8.46,29.73-17.84,42.5-29.9.43-.4.55-.68,1.29-.53.28-2.42-5.38-5.16-7.04-4.68-1.29.37-6.55,4.78-8.46,5.95-6.87,4.22-17.14,9.24-24.86,11.41-1.18.33-2.24.43-3.45.31l10.5-8.19c3.48-3.13,7.09-6.34,10.3-10,1.44-1.64,2.93-3.54,4.79-5.46,1.4-1.44.75-1.37,1.27-2.15.14-.21.83-.03,1.23-.57,2.84-3.92-3.69-2.66-4.07-3.03-1.38-2.48-.05-4.23-.05-6.78,2.88-.76,3.09,3.37,5.23,4,3.15.93,2.74-.64,3.85-1.77.35-.35,1.19-.32,1.54-.85,1.21-1.85,1.78-2.83,3.08-4.56s.97-3.62,3.32-4.64c-.93-.9.16-2.63-1.6-2.42-2.3.27-5.89,2.06-8.37,2.6-1.67.36-3.55.31-5.23.77l-15.52-10.87c-.34,2.58-1.32,5.26-2.21,7.7-1.68,4.6-3.07,10.99-8.37,12.12-.23,0-1.07-1.62-1.07-1.73,0-2.28-.47-8.68,0-10.24ZM533.61,67.47c-.55-.57-7.3,2.23-6.84,3.75,2.27,1.57,4.61,3.59,7.53,3.08l-.69-6.82ZM513.75,80.43l8.06-2.55,2.21-1.21-4.38-3.04c-2.37,1.89-3.93,4.53-5.89,6.8Z"/>
  <path d="M413.74,83.85c.53,3-1.08,3.43-3.42,4.44-6.63,2.85-14.24,3.05-20.94,5.76-.52.74-.47,11.55-.33,13.38.16,2.08,1.18,4.79,1.36,6.83.39,4.39-1.16,10.45-5.79,11.88-2.15-1.6-1.91-3.71-2.52-5.64-.23-.73-1.08-1.12-1.25-2.17-.2-1.28-.2-4.88,0-6.16.52-3.37,1.05-2.07.67-6.79-.15-1.93,1.11-7.03.57-7.78-.11-.16-1.52-.04-1.31-1.36l-.91-.11c-5.67,1.57-11.95,3.3-17.88,2.77-1.15-.1-4.63-.75-5.11-1.73l3.93-2.23,21.11-5.59c.75-1.12.22-6.09.28-7.91.18-4.86,1.98-9.05,1.36-14.27l1.44-.77c.55-3.13-1.52-3.3-2.09-5.77-1.25.73-2.45,1.99-3.43,3.07-3.48,3.84-6.49,8.29-9.89,11.97-6.07,6.57-14.07,13.77-21.26,19.1-6.81,5.06-15.39,8.96-23.64,10.92l5.51-3.74c7.47-3.99,14.27-10.32,20.98-16.06,4.24-3.63,8.19-6.57,11.63-10.47,1.89-2.15,2.39-1.84,4.04-4.49,1.28-2.05,3.06-3.44,4.66-5.28,2.1-2.41,4.76-5.86,6.89-9.17,1.79-2.77,3.2-4.74,4.96-6.97.53-.67.77-1.6,1.53-2.2l-1.75-1.63-1.81.04c-5.39,2.15-10.9,4.11-16.24,6.36s-15.06,7.93-20.33,9.1c-1.93.43-7.75.44-9.14-.89-2.25-2.75.79-3.16,1.8-5.16,8.26-1.6,15.58-5.77,23.36-8.7s16.63-5.48,24.54-9c.94-1.41-.04-7.06.3-9.26.17-1.12,1.21-1.6,1.39-2.71.71-4.57-1.22-11.72.15-15.55.14-.4,1.4-2.55,1.62-2.58l4.4.36c1.02.52,2.25,3.27,2.39,4.41.5,4.02-1.15,10.01-1.69,14.07-.36,2.68-.52,5.78-.72,8.5,1.28,1.24,13.57-3.09,16.13-3.38,3.78-.43,7.56.17,11.27.65.26,1.53-.16,1.33-1.36,1.69-5.32,1.58-10.7,2.8-15.95,4.6-1.71.59-10.06,3.58-10.79,4.27-.49.46-.59.7-.68,1.37-.59,4.2.44,9.63.04,13.98,7.65.99,14.03,5.7,20.74,9.03s14.59,7.76,21.71,10.45c6.89,2.61,12.47,4.31,19.38,7.31,3.62,1.58,7.54,3.72,11.45,3.95.17,1.72.04,1.1-.99,1.39-6.54,1.88-11.05,1.61-17.82.62-16.44-2.41-24.22-9.62-37.4-18.03-3.72-2.37-12.94-8.75-16.75-9.26-1.3-.17-.99.03-1.03,1.03-.34,7.41-.85,14.81-1.37,22.2,1.46-.07,2.96.15,4.42-.04,2.46-.31,8-2.7,9.63-2.7h9.93Z"/>
  <path d="M89.04,29.91c-.19,1.14-1.32,1.25-2.21,1.56-2.71.94-5.86,1.44-8.6,2.35-6.06,2.01-11.98,4.5-17.98,6.66l-.59.77c-.29,2.93.12,5.9-.05,8.83-1.12,19.65-4.02,39.43-2.79,59.4.23,3.8,1.71,8.43,1.42,12.29-.25,3.3-1.04,8.77-5.17,8.55-1.01.17-1.96-1.92-2.23-2.59-1.75-4.41-2.98-9.34-2.22-14.19.17-1.08,1.05-1.47,1.26-2.15.73-2.34-.84-12.8-.53-16.24.64-7.19,1.3-14.76,1.39-21.88.02-1.65-1.34-3.8-.74-5.8l-8.33,14.56c-8.06,12.89-18.02,23.84-30.73,32.18l-12.31,5.82c.2-.98,1.13-1.43,1.9-1.88,7.93-4.66,13.66-11.98,21.28-18.05,1.07-3.99,7.43-7.96,8.33-11.66.4-1.63,5.64-4.5,4.76-6.9l1.27-.51.27-2.54,1.08-.24c.51-1.6,1.57-3.99,3.27-4.58l.28-3.07,1.27-.49.27-2.55,1.09-.2c.2-2.29,1.84-5.3,3.6-6.43l-.06-3.31,1.41-.83,3.9-10.85-1.2-2.36c-7.05,2.72-14.11,5.61-21.01,8.73-5.42,2.45-15.22,8.66-20.55,9.56-2.72.46-9.75,1.17-9.78-2.57,1.66.25,1.73-1.49,2.22-1.89,2.85-2.27,7.38-3.13,10.78-4.62,13.28-5.81,26.3-12.3,40.36-16.1l3.47-30.23c1.78-.63,1.12-1.44,1.73-2.46,1.32-2.22,4.47-1.53,5.86.26,2.35,3.01.04,6.62-.57,9.77-1.19,6.16-1.74,12.45-2.9,18.61,1.44,0,2.88.12,4.31-.14,2.26-.41,7.05-2.59,9.04-2.59h14.73Z"/>
  <path d="M234.31,72.29c1.4,4.87-.6,9.3-.05,14.29,2.08,2.21,19.54-8.01,22.6-9.56l-2.73-1.39v-1.99c1.61.15,2.81-1.66,3.87-1.97,5.92-1.72,13.15,4.88,6.34,8.36-2.25,1.15-5.03,1.92-7.28,3-7.61,3.66-14.94,7.89-22.75,11.12-.67,4.69.8,9.89,3.34,13.84.45.69,3.42,2.78,4.34,3.3,12.78,7.12,40.99,7.33,54.11,1.1,1.12-.53,1.71-1.84,3.13-2,.29-1.16-.16-2.4.2-3.56.19-.62,1.06-1.06,1.18-1.58.14-.59-1.18-2.43-1.32-3.97-.32-3.45-.04-8.05.03-11.64.02-.82-.51-2.55.68-2.39.88,3.42,3.14,6.33,4.47,9.54,1.1,2.65,3.13,8.08,3.62,10.74,1.26,6.83-6.12,12.63-12,14.4-14.63,4.4-42.74,4.7-56.16-3.14-4.61-2.69-6.18-5.97-9.68-9.09l-.08-2.94-1.43-.8c.03-3.01-.76-5.82-2.07-8.44-.59-.71-11.31,5.12-13.32,5.43-5.22.79-10.7-2.26-16.09-1.36-.93-.83.07-1.2.87-1.5,1.02-.38,2.77-.74,3.51-1.2.54-.34.19-1.2.86-1.4,2.42-.74,5-.33,7.4-.71,6.22-.98,11.51-4.21,17.38-6.23,1.69-1.96-.07-4.06.2-5.55.13-.73.99-1.47,1.18-2.29.58-2.49-.59-2.81-1.25-4.7-.15-.45.16-1.55-1.04-.99-.51.24-1.07,1.27-1.74,1.68-6.87,4.26-12.98,9.42-20.74,12.1-.67.23-2.03,1.18-2.52.21,1.33-.45,1.84-1.82,2.51-2.39,7.89-6.7,15.73-12.8,24.43-19.11,3.96-2.87,7.42-6.08,11.25-9.08l2.18-2.9c2.19-1.1,9.87.03,8.89,3.35-4.28,4.53-10.08,7.04-15.07,10.99-.34.27-.85.31-1.27.41Z"/>
  <path d="M91.1,102.97c2.1-1,4.51-1.04,6.65-1.91,7.29-2.96,15.01-8.79,21.86-12.35,1.32-.69,2.91-1.16,4.37-1.45.47-1.8-.8-1.17-1.74-2-1.1-.97-1.86-2.65-1.69-4.14,4.82-1.66,8.39.88,12.15,3.63,5.44,3.97,16,12.11,19.69,17.56,1.85,2.74,4.43,6.72.01,8.2-4.76.59-11.94-6.31-15.1-9.57-2.46-2.54-4.96-6.3-7.53-8.87-4.27-4.27-6.24-.23-9.95,2.32-8.02,5.52-18.3,12.56-26.88,16.9-3.26,1.65-5.43,2.52-9.3,1.83-.8-2.24-2.86-3.63-2.03-6.29.18-.57.95-.99,1.13-1.61.5-1.68-.58-3.27,2.07-3.73,2.65-7.78,7.73-14.23,11.22-20.92l1.08-.24.27-2.54,1.27-.51.06-2.22c3.22-1.25,3.56-5.74,3.38-8.91,5.16-2.48,7.19,1.31,5.8,6.12-.81,2.82-5.62,9.33-7.35,12.47-2.75,4.99-5.54,10.01-8.22,15.02-.31.58-1.63,2.77-1.24,3.2Z"/>
  <path d="M215.08,53.81c2.1-.75,5.13-.7,7.06-1.5,6.91-2.87,14.35-8.1,21.94-10.11l2.95-3.3c2.94-.96,5.13-.06,7.7,1.35.78,3.48-.89,4.2-3.55,5.51-9.14,4.52-21.81,9.26-31.49,12.99-1.16.45-1.69,1.74-3.54,1.18-1.29-.39-.84-4.27-3.25-.44-5.31,8.4-9.02,19.2-14.35,28.03-9.4,15.57-24.37,33.32-40.37,42.37-.88.5-1.56,1.27-2.69,1.08.48-1.02,1.55-1.98,2.39-2.73,2.32-2.07,5.93-4.63,7.91-6.46,1.08-.99,2.05-4.48,3.86-5.82,3.71-2.76,4.66-5.1,7.99-8.68s6.04-9.16,8.79-13.03c.31-.44,1.6-2.06,2.13-2.72,4.1-5.2,7.33-12.2,10.46-18.56,2.87-5.82,6.25-11.7,9.05-18.29,2.61-6.12,3.81-12.39,6.18-18.42.46-1.18.15-2.97,1.97-3.5,3.22-.93,4.86.8,5.56,3.78.51,2.16-2.06,5.63-2.92,7.72-1.3,3.16-2.41,6.42-3.77,9.56Z"/>
  <path d="M222.62,39.47c-.32-2.04.48-1.11,1.66-1.39,2.39-.57,11.68-5.8,14.57-7.35,5.68-3.05,10.09-6.18,14.93-10.38,1.83-1.59,4.07-2.51,5.14-5.12-1.09-1.47-3.45-1.19-5.1-.99-12.74,1.55-25,8.89-38.43,10.17-1.92.18-3.87-.05-5.79.03,3.6-4.09,9.48-4.83,13.94-7.61,1.5-.94,2.45-2.78,4.33-3.19,2.47-.54,5.53.19,8.07-.15,4.64-.61,10.72-3.14,15.82-4.03,2.99-.52,6.35-.58,9.38-1.28,5.02.96,10.21,5.99,5.68,10.83-.86.92-2.72,2.2-3.84,3-6.01,4.33-11.88,8.9-18.66,12.13s-14.12,5.84-21.71,5.33Z"/>
  <path d="M64.38,68.82c-.06-1.24-.33-1.44,1.04-1.38,2.9.12,6.35,2.53,9.82,1.26-.06-1.19.84-1.05,1.23-1.44,4.57-4.55,9.12-9.28,13.48-13.94,3.41-3.64,7.81-7.87,10.58-11.27.4-.49.8-2.96,1.67-3.79s4.23-1.39,5.02-.19c.46,1.24.55,3.11.19,4.35-.2.68-4.24,6.2-5.06,7.25-4.61,5.88-14.39,17.45-20.19,21.52-2.42,1.7-5.83,2.55-8.54,3.78l-9.25-6.15Z"/>
  <path d="M131.28,47.17c-.15-.21-.81-.12-.96-.34-1.17-1.65-2.03-4.49-3.82-6.51-.3-.33-2.44-.53-.84-2.94,1.28-1.93,9.81,1.17,11.59,2.17,4.26,2.39,7.28,7.08,7.94,11.89.83,6.08-1.71,6.05-6.38,3.63-3.73-1.93-5.2-4.73-7.53-7.9Z"/>
  <path d="M543.78,12.06c-1,.01-2.12.75-2.97.75-1.07,0-9.06-1.7-9.79-2.19-.12-.08-1.41-2.05-1.71-2.32-2.17-1.95-2.89-2.63-4.82-4.83-.48-.54-1.88.01-1.1-2.86,2.83-1.45,5.66.09,8.55.59,1.02.18,2.1-.03,3.23.19,5.3,1.08,11.33,4.69,8.61,10.66Z"/>
  <path d="M299.34,86.58c-2.03.38-1.05-.6-1.51-1.54s-1.46-1.36-1.23-2.56l2.74,4.09Z"/>
</svg>