<?xml version="1.0" encoding="UTF-8"?>
<svg id="_レイヤー_1" data-name="レイヤー 1" xmlns="http://www.w3.org/2000/svg" viewBox="0 0 519.6 153.99">
  <path d="M443.06,72.32c0,2.96-.2,5.93.05,8.87.28,3.2-.92,6.21-.88,9.35,0,.22-.17.57-.35.63-.35.12-.74.19-1.09-.15-.57-.56-1.01-1.08-1-2.02.07-4.97-.27-9.97.18-14.91.18-2.01.62-4.06.67-6.13,0-.4-.04-.76-.49-.82-.08,0-.19.43-.32.64-2.96,4.69-5.91,9.38-8.88,14.07-.84,1.33-1.13,1.37-2.72.64-.45-.21-.93-.28-1.39-.54-3.48-1.93-3.43-1.87-1.26-5.13,2.37-3.57,4.6-7.23,6.86-10.87,2.19-3.53,4.87-6.73,6.7-10.52.56-1.15,1.38-2.44,2.4-3.46.51-.51.85-1.81,1.17-1.78.94.1,1.91.57,2.73,1.1,2.48,1.59,2.46,1.63,2.46,4.54,0,5.11-.13,10.22.06,15.32.08,2.27-1.14,4.25-.91,6.53.21,2.13.05,4.3.05,6.45,0,.81-.03,1.61.02,2.42.01.22.23.43.36.65.19-.17.43-.31.56-.52,2.01-3.07,4-6.13,5.99-9.21,1.44-2.23,2.72-4.56,4.32-6.66,1.24-1.63,1.62-3.77,3.26-5.14.21-.18.05-.81-.36-1-.22-.11-.63-.15-.77-.02-.47.44-.91.93-1.25,1.47-3.12,4.89-6.21,9.79-9.33,14.68-.19.3-.61.71-.83.66-.46-.1-.33-.64-.34-1.02-.02-1.84-.38-3.79,1.61-4.98,2.56-4.94,5.92-9.38,8.83-14.1.66-1.07,1.01-.86,1.72-.32.51.39.75,1.06,1.53,1.19,1.3.22,1.76,1.92,3.22,1.95-.78,1-1.51,2.08-2.13,3.13-4.01,6.88-8.5,13.43-12.83,20.1-1.36,2.1-2.47,4.39-4.05,6.37-.51.64-.8.59-1.46.05-2.22-1.81-1.48-4.26-1.01-6.26.27-1.13.49-2.26.5-3.38.05-6.45.2-12.91-.05-19.35-.11-2.94,1.13-5.65.87-8.54-.07-.73.42-1.63-.48-2.16-.6-.35-2.2.31-2.71,1.2-1.77,3.06-3.57,6.08-5.6,8.99-3.03,4.34-5.38,9.14-8.67,13.32-.57.72-.29,1.21.28,1.66.3.24.56,1.04,1.05.13,2.94-5.43,6.88-10.24,9.64-15.77.47-.93,1.49-1.31,1.76-2.51.23-1.04,1.35-1.89,2.08-2.83.53,1.15.21,2.35.22,3.53.05,3.49.02,6.99.02,10.48Z"/>
  <path d="M221.61,3.24c-2.02.09-4.33-.17-6.65.71-1,.37-1.27.64-1.19,1.53.17,1.92-.54,3.96.79,5.73.13.17.04.53.01.79-.54,5.18,1.26,10.23.81,15.41-.18,2.11,1.34,3.97.85,6.13-.02.08.39.31.62.37.42.1.88-.08.93-.48.09-.8.29-1.73-.02-2.4-1.29-2.79-.62-5.71-.74-8.57-.05-1.06-.05-2.04-.8-2.92-.23-.27.08-.98.42-.93,2.27.32,4.37-.51,6.53-.87,1.29-.22,1.59.49,2.21,1.44,2.74,4.15,5.81,8.07,8.48,12.26.63.99,1.17.76,1.84.82.23.02,1-.15.38-.61-.65-.47-.34-1.22-.82-1.71-2.91-2.93-4.72-6.63-6.98-10.02-.44-.65-1.06-1.18-1.59-1.76.9-.41,1.77-.95,2.72-1.19,3.03-.76,4.88-2.5,5.39-5.67.13-.82.63-1.64,1.15-2.33.21-.28.76,1.65.31,2.81-.84,2.21-1.3,4.62-3.1,6.39-.55.54-1.9.14-1.69,1.68.14.96.83,1.29,1.25,1.92,2.29,3.35,4.51,6.76,6.9,10.04.47.65.61,1.41,1.11,1.97.44.51.62.88-.25.91-1.81.05-3.6-.09-5.35.75-.49.23-2.04.79-1.99-.97-3.14-4.16-6.23-8.37-8.85-12.89-.36-.61-.73-.61-1.26-.61-.81,0-1.62.05-2.42-.01-.81-.06-1.26.15-1.21,1.07.05.8-.32,1.87.07,2.37,1.14,1.45.64,3.03.73,4.56.07,1.21.22,2.47-.04,3.62-.31,1.35.93,2.13.86,3.31-1.71.41-3.4.96-5.14,1.19-1.83.24-1.62.03-2.18-1.68-.93-2.83-.86-5.7-.71-8.56.11-2.13-1.15-3.94-.94-6.13.19-2.01.7-4.22-.71-6.12-.06-.09,0-.26,0-.4-.05-3.54.17-7.07-.74-10.58-.42-1.6.32-2.29,1.88-2.74.25-.07.52-.11.77-.08,4.38.58,8.63-1.06,12.98-.8,3.67.22,5.74,2.65,7.26,5.62,1.12,2.19.26,5.29-1.66,7.41-1.95,2.16-4.15,3.65-7.2,3.08-2.42-.45-4.53,1.11-6.94.88-1.22-.12-1.74-.43-1.49-1.61.56-2.68-.89-5.12-.82-7.74.06-2.29.49-2.78,2.74-2.81,2.69-.04,5.38-.06,8.07,0,1.5.04,2.81,1.51,2.91,3.09.01.24-.08.51-.2.72-.14.25-.55.16-.53-.15.13-1.6-1-1.23-1.87-1.25-1.08-.02-2.18.14-3.22-.04-1.66-.28-3.02.69-4.39,1.17-.81.28-.23,2.2-.27,3.38-.07,2.2-.16,1.96,1.91,1.93,2.2-.02,4.35-.23,6.56-.64,1.91-.36,2.69-1.21,3.29-2.67.61-1.5.57-3.11.05-4.59-.58-1.62-1.77-2.65-3.67-2.6-1.61.04-3.23,0-5.16,0Z"/>
  <path d="M193.81,35.54c-2.12-.35-4.08.69-6.09,1.01-2.17.34-4.44.81-6.64,1.36-.7.17-1.14.5-1.69.83-.27.16-.97.18-1.03-.28-.4-2.89-1.95-5.55-1.75-8.57.03-.5.24-.79.66-.79.61,0,1.44-.34,1.76.46.53,1.3.93,2.61.9,4.09-.02,1,.46,2.43,2.04,1.08,4.38-.05,8.45-1.76,12.71-2.37.96-.14,1.89-.23,2.78-.61.14,1,.19,2.01.93,2.85.2.23.14.82,0,1.18-.41,1.09,1.27,1.57.79,2.47-.59,1.11-2.37,0-3,1.32-3.25-.1-6.27,1.16-9.39,1.75-2.92.56-5.96.83-8.81,2.03-2.48,1.05-3.46.08-3.83-2.6-.42-3.01-.87-6.06-1.78-8.94-.65-2.07-.83-4.2-1.39-6.27-.85-3.16-1.36-6.4-2.2-9.57-.48-1.84-.82-3.73-1.02-5.62-.15-1.4.64-2.05,2.03-2.28,4.85-.82,9.75-1.42,14.43-3.11,1.41-.51,3.12.29,4.49-.89.32-.28.69.16.82.58.58,1.92.6,3.98,1.6,5.79.22.39-.14.82-.55.85-2.79.25-5.46,1.14-8.21,1.56-1.64.25-3.11,1.18-4.91.95-1.18-.15-1.5.98-1.22,2.42.39,1.99,1.3,3.85,1.22,5.97-.05,1.39.85,2.21,2.25,2,2.62-.4,5.21-1.02,7.79-1.62.2-.05.34-.65.38-1.01.02-.17-.31-.55-.44-.53-.89.11-1.85-.38-2.69.3-1.25,1.02-3.09-.02-4.35,1.24-.27.27-1.28.29-1.38-.79-.16-1.64.07-2.33,1.1-2.38,1.28-.06,2.49-.02,3.74-.74,1.03-.59,2.44.23,3.73-.79,1.02-.81,1.99.32,2.83,1.7.69,1.13.72,2.19.72,3.34.01,1.97-.03,1.8-2.13,2.17-3.1.54-6.19,1.21-9.21,2.11-1.09.32-2.08.09-3.11.26-.68.12-.77-.35-.92-.93-.94-3.67-1.89-7.34-2.37-11.1-.1-.81-.12-1.5-.79-2.13-.27-.25-.15-1.01.6-1.17,2.47-.52,4.98-.92,7.38-1.66,1.85-.56,3.76-.6,5.6-1.09.33-.09.53-.52,1.01-.5.29.01.91-.05.46-.59-.28-.34-.53-1.03-1.11-.82-4.31,1.51-8.96,1.48-13.26,3.03-.71.26-1.85-.41-2.2.39-.35.79-.4,1.94-.09,2.75,1.97,5.09,1.85,10.66,3.83,15.75.59,1.51.22,3.23.82,4.9.43,1.21.56,2.7.95,4.05.18.62-.37,1.54.29,1.85.66.31,1.65.42,2.31.16,3.32-1.34,6.91-1.43,10.32-2.31,1.58-.41,3.1-1.37,4.9-.91.72.18,1.35-.71,1.43-1.15.09-.52-.77-.4-1.27-.42-.27-.01-.54,0-.81,0Z"/>
  <path d="M79.57,67.01c-.71.04-1.12.05-1.45-.58-2.19-4.07-4.43-8.12-6.69-12.15-.24-.42-.84-.53.07-1.02,3.86-2.07,7.63-4.31,11.49-6.37.48-.26.82-.6,1.24-.88.52-.35.16-.62-.11-.85-.26-.23-.76-.63-.82-.58-.89.77-2.13.88-3.01,1.5-3.51,2.47-7.27,4.46-11.09,6.38-.68.34-.64.33-.29.94,1.68,2.92,3.15,5.97,4.92,8.83.73,1.19,1.37,2.38,2.01,3.61,2.24,4.33,4.75,8.52,7.14,12.78.33.58.88.73,1.28.41,1.79-1.44,4.04-1.96,5.92-3.32,2.51-1.82,5.37-3.19,8.16-4.59.64-.32,1.04-.78,1.49-1.22.16-.16.02-.72-.12-1.05-.06-.14-.48-.25-.69-.19-.72.19-1.51.6-1.98.99-2.96,2.44-6.6,3.63-9.82,5.6-3.28,2-3.52,1.9-4.95-1.35-.57-1.29-1-2.6-2.05-3.58-1.13-1.05-.13-1.65.53-2.22.92-.8,1.54.05,1.9.66.83,1.41,1.25,3.05,2.58,4.19.51.44.64.37,1.19.02,3.37-2.16,6.82-4.2,10.43-5.95,1.01-.49,2.2-.77,2.89-1.78.64-.94,1.07-.28,1.41.21.36.5.58,1.1.87,1.65.64,1.21,1.97,2.54,1.77,3.58-.23,1.19-2.35,1.33-3.37,2.11-3.74,2.86-8.21,4.38-12.05,7.02-1.64,1.12-3.52,1.89-5.24,2.91-.52.31-.56.55-.98-.2-3.16-5.69-6.43-11.32-9.64-16.98-1.91-3.37-3.83-6.74-5.58-10.2-.28-.56-.5-1.13-.91-1.64-.94-1.2-.86-2.3.46-2.72,1.64-.52,2.82-1.65,4.24-2.46,3.25-1.86,6.57-3.59,9.9-5.29.93-.47,1.75-1.01,2.53-1.7.8-.71,1.68-.33,2.26.76.06.11.12.22.18.33.75,1.44,2.22,2.97,2.05,4.29-.18,1.41-2.52,1.58-3.86,2.39-2.36,1.44-4.78,2.79-7.08,4.31-1.97,1.3-1.91,1.38-.98,3.28.22.46.61.78.87,1.25,1.01,1.88,2.22,3.66,3.36,5.47,2.03-.39,3.2-2.31,5.05-2.93,1.37-.46,2.63-.97,3.57-2.06.2-.24.23-.79-.16-1.06-.19-.13-.55-.25-.72-.17-1.44.76-2.88,1.53-4.25,2.4-.54.34-1.3.6-1.6.91-.88.91-1.34.47-1.77-.22-.48-.79-.81-1.69.32-2.29,2.65-1.4,5.31-2.75,7.95-4.17.5-.27.98-1.22,1.09.19.05.64.64.81.91,1.24.77,1.29,2.22,2.66,2.11,3.88-.13,1.45-2.33,1.57-3.6,2.31-2.82,1.65-5.6,3.38-8.35,5.14-.39.25-.72.24-.91.26Z"/>
  <path d="M408.33,62.22c-.36,1.45.67,3.11-.74,4.53-.35.35-.33,1.57.55,2.11.22.14.39.37.58.56.14-.19.39-.37.41-.58.2-1.78,1.28-3.43.83-5.31-.51-2.14.81-4.03.83-6.12.03-1.92-.45-3.88.71-5.76.42-.68.18-1.86.05-2.78-.31-2.13,1.27-3.98.84-6.13-.12-.63.53-.88.89-1.23.54-.52,1-1.58,1.91-1.08.77.43.58,1.43.2,2.11-.25.45-.7.77-.59,1.37.63,3.59-1.14,7-.79,10.55.17,1.74-1.09,3.11-.92,4.92.15,1.59.62,3.33-.63,4.97-.52.68-.23,2.11-.05,3.16.32,1.9-.56,3.55-.85,5.32-.17,1.06-.57.35-.97.08-.3-.19-.83-.1-1.06-.32-1.28-1.25-4.02-1.08-4.26-2.88-.3-2.24-.81-4.72.48-6.99.77-1.36-.02-1.93-1.29-2.5-2.38-1.07-4.64-2.42-6.96-3.66-2.79.94-4.17,3.54-6.2,5.36-1.02.92-1.58,1.31-2.93.32-1.45-1.06-3.34-1.5-5.04-2.21.57-2.08,2.45-3.07,3.81-4.46,6.12-6.24,12.33-12.38,18.51-18.56.29-.29.52-.72.86-.83,1.56-.52,1.13-3.27,3.08-3,1.42.19,2.78,1.04,4.11,1.69.44.22.78.55,1.33.7.85.23.78.93.22,1.5-1.12,1.16-2.25,2.32-3.43,3.42-.71.67-1.36,1.34-1.06,2.38.44,1.53-1.03,2.61-.85,4.11.16,1.33.38,2.81-.05,4-.68,1.91-.7,3.8-.75,5.74-.02.7-.73.73-1.2.53-.45-.19-.8-.56-1.28-.8-2.97-1.48-5.87-3.1-8.79-4.68,1.72-2.93,4.57-4.79,6.78-7.26.26-.29.44-1.11,1.09-.66.22.15.16.72.19,1.1.18,2.4-1.43,3.83-2.98,5.2-1.16,1.01-1.02,1.38.39,1.77.7.2,1.29.77,1.96,1.1,1.05.52,1.5.3,1.42-.86-.2-3.03,1.04-5.88.94-8.95-.07-2.31,1.29-4.39,3.27-5.87.22-.16.84-.38.42-.81-.22-.22-.72-.2-1.1-.21-1.29-.05-2.08,1.05-2.39,1.83-.62,1.6-1.88,2.51-2.96,3.61-5.01,5.07-10.06,10.09-15.1,15.13-.48.48-1.01.91-1.4,1.44-.19.26-.26.81-.11,1.05.33.52.89.52,1.34.08,1.72-1.7,3.48-3.37,5.12-5.15.96-1.04,1.56-1.21,2.92-.32,2.49,1.62,5.18,3.11,7.99,4.01,2.37.76,3.09,1.91,2.68,4.18Z"/>
  <path d="M4.6,96.9c.24.08.59.09.68.25.18.31.15.75.32,1.07,2.94,5.64,2.87,5.8,8.45,8.28,2.1.94,3.74,2.54,5.88,3.32.81.3,1.58.72,2.37,1.08-.58.67-1.21,1.3-1.75,2-1.62,2.14-4.1,3.26-5.95,5.12-1.61,1.62-1.52,1.52-2.71-.36-1.29-2.03-2.11-4.24-2.93-6.45-.26-.69-1.38-1.5-.62-2.15.83-.7,1.62.59,2.36.92,1.54.67,1.62,2.75,2.61,4.06.39.52.18,2.26,1.43.6.81-1.07,2.68-1.74,2.37-3.1-.23-1-2.04-1.24-3.13-1.83-1.1-.59-2.22-1.12-3.35-1.66-2.63-1.24-4.75-3.07-5.92-5.85-.48-1.12-.57-1.13-.84-.9-.49.43-1.27,1.04-.77,1.62,1.55,1.79,1.63,4.17,2.77,6.14,2.55,4.42,4.21,9.28,6.47,13.85,1.14,2.31,2.11,4.77,3.28,7.09.13.26.46,1.12,1.1.39.35-.4,1.27-.69.27-1.45-.47-.36-.48-1.11-.82-1.67-1.02-1.7-1.78-3.55-2.65-5.34,1.05-2.08,2.86-3.56,4.6-4.89,1.67-1.28,3.25-2.62,4.72-4.09.86-.85,1.68-1.14,2.77-.38,1.45,1,3.2,1.46,4.53,2.78.52.51,1.89,1.12,2.89.08.17-.17.43-.26.64-.39-.2-.14-.37-.32-.59-.42-5.41-2.55-10.45-5.81-15.95-8.22-2.36-1.04-4.38-2.97-6.88-3.83-1.18-.41-.51-1.68-1.49-2.09-.27-.11-.42-1.37.14-1.77.53-.39,1.21.4,1.51.64,3.5,2.76,7.75,4.09,11.55,6.28,4.63,2.67,9.51,4.93,14.27,7.38.45.23.85.59,1.22.94.46.44.47,1.23-.04,1.31-1.35.22-1.89,1.35-2.79,2.05-.8.62-1.39,2.11-2.23,1.85-.67-.2-1.64-.92-2.32-1.16-2.02-.71-3.66-2.78-5.77-2.48-2.29.33-3.37,2.81-5.05,4.27-.89.77-1.63,1.69-2.44,2.55.92.79.94,2.06,1.57,2.97,1.08,1.57.84,3.72,2.37,5.05-1.62,1.62-3.24,3.23-4.84,4.85-.68.69-.91-.14-1.12-.41-1.42-1.79-1.69-4.11-2.77-6.11-2.59-4.8-4.91-9.79-6.85-14.89-1.47-3.85-3.81-7.27-5.01-11.24-.28-.93-.32-1.37.31-1.98,1.16-1.12,2.28-2.28,3.43-3.41.17-.17.44-.23.66-.34Z"/>
  <path d="M289.8,3.24c-4.17,0-4.36.02-4.1,3.66.15,2.18-.88,4.03-.94,6.13-.05,2.04.85,4.26-.75,6.12.53,4.38-1.26,8.61-.82,12.98.06.59.15,1.02.88.99.79-.03.8-.58.74-1.11-.48-3.98,1.16-7.79.86-11.78-.15-1.88,1.01-3.07,2.6-2.36,3.35,1.48,6.95-.09,10.32,1.4,1.68.74,3.71-.47,5.28-1.61.75-.54,1.31-1.35,2.02-1.96.48-.41.72-1.18,1.53-1.16-.15.76.38,1.66-.3,2.29-1.89,1.75-3.32,4-6.16,4.63-2.38.53-4.69.31-7.04.15-.2-.01-.38-.52-.57-.52-3.81-.11-5.77-.98-5.32,4.16.28,3.16-1.3,6.14-.86,9.36.17,1.21-1.02,1.74-2.37,1.32-.36-.11-.69-.32-1.05-.38-1.25-.23-3.24.69-3.63-.54-.47-1.49-.56-3.41.2-5.05.16-.34.52-.58.45-1.03-.62-3.72,1.28-7.29.75-10.96-.3-2.08.94-3.75.91-5.73-.03-1.92-.21-3.8.64-5.77.63-1.48.2-3.45.1-5.19-.06-1.15.45-1.39,1.41-1.28,1.91.22,3.91-.49,5.76.75.56.37,1.6.18,2.38.04,2.81-.52,5.36.94,8.14.99,1.38.03,3.17,1.41,4.02,2.68,3.42,5.16.37,11.98-4.57,12.57-1.17.14-2.11.79-3.43.02-.8-.47-2.14-.26-3.17-.05-2.3.47-4.31-.95-6.53-.84-.49.02-.74-.24-.75-.69-.02-1.08-.37-2.34.07-3.19,1.05-2.03.64-4.1.72-6.16.03-.73.06-1.17,1.01-1.29,3.59-.48,6.99,1.33,10.57.84.87,1.01,2.95.7,2.97,2.64,0,.65.15,1.63-.2,1.88-.7.52-.82-.75-1.38-.85-1.49-.27-2.73-1.33-4.33-1.27-1.34.05-2.71-.14-4.03.06-.88.14-1.51-1.04-1.92-.56-.41.47-.22,1.5-.24,2.28-.03.94,0,1.88,0,2.82,0,.55,0,1.1.8,1.06,2.89-.15,5.61,1.2,8.55.85,2.33-.28,4.4-2.15,4.35-4.58-.03-1.38.51-2.87-.87-4.09-1.44-1.27-2.96-2.15-4.88-1.85-2.8.43-5.34-1.5-7.81-.83Z"/>
  <path d="M354.25,29.89c.2-3.45,2.02-6.09,4.63-8.03,5.34-3.98,13.09-.85,15.12,3.87.59,1.37.98,2.82,1.66,4.14.16.32.59.77.83.74.42-.07.43-.61.37-1-.57-3.95-2.26-7.15-5.71-9.45-1.97-1.31-4.22-1.58-6.32-2.23-1.36-.42-3.29.28-4.73.96-4.16,1.99-6.59,5.82-8.11,9.81-2.2,5.81,2.34,13.85,8.27,15.63,2.1.63,4.38-.04,5.88-1.1,2.31-1.63,4.26-.8,6.39-.3.34.08.58.56.93.66.84.25,2.14-.54,2.53.49.46,1.23-.97,1.79-1.69,2.45-3.16,2.86-6.94,4.88-11.14,5.05-5.82.24-10.45-2.29-13.73-7.09-2.98-4.35-3.71-9.19-3.08-14.32.01-.12.43-.19.66-.29-.13,3.77.03,7.39,2.22,10.78,3.08,4.75,7.1,7.42,12.86,7.88,3.37.27,5.84-1.53,8.67-2.53.16-.06.23-.34.35-.51-.23-.09-.46-.26-.69-.27-1.43-.07-2.78.04-4.11.77-3.09,1.68-7.09.83-10.22-.92-3.59-2-5.63-5.11-7.02-8.75-.81-2.11-.63-4.3-.02-6.5.94-3.43,2.73-6.46,4.63-9.36,2.89-4.4,10.55-6.47,15.58-4.21,4.31,1.94,7.89,4.95,9.55,9.56.67,1.87,1.39,3.82,1.32,5.91-.08,2.17-.64,2.9-2.47,2.05-1.14-.53-2.72-.17-3.44-1.39-.62-1.06-1.65-2.03-1.37-3.45.19-.93-.33-1.48-.94-2.04-.69-.64-1.36-1.3-2-1.99-2.42-2.61-5.24-2.8-8.52-1.85-2.72.79-4.32,2.46-5.69,4.79-.37.62-.12,2-1.44,2.01Z"/>
  <path d="M486.65,111.43c-.28,1.5.68,3.2-.78,4.53-.2.18-.14.82,0,1.17.94,2.58.7,5.46,2.35,7.91,1.51,2.25,3.34,4.25,5.47,5.65,2.71,1.79,6.06,2.03,9.34,1.7.19-.02.36-.28.54-.43-.19-.19-.41-.36-.57-.57-.69-.96-1.7-.53-2.58-.59-4.92-.32-8.25-2.86-10.79-7.01-1.4-2.29-.68-5.01-2.13-7.17,1.37-2.02.71-4.65,2.3-6.74,1.46-1.93,3.01-3.81,4.88-5.15,4.03-2.9,8.63-4.43,13.72-3.8,1.38.17,2.76,1,3.66,1.76,2.18,1.84,4.38,3.75,5.85,6.37.95,1.7.53,3.64,1.21,5.15.86,1.92.42,3.27-.03,5.08-.48,1.96-.93,3.88-1.7,5.77-.47,1.15-.91,1.12-1.64.48-.81-.71-1.5-1.55-2.3-2.26-1.2-1.06-2.06-1.86-1.09-3.84.69-1.41.15-3.43.13-5.18-.02-1.21-.67-2.24-1.43-3.02-3.05-3.12-6.11-5.29-11.57-2.63-.98.48-1.84,1.48-3.14,1.18,2.22-2.43,4.15-3.39,6.94-4.07,6.21-1.51,11.22,3.55,11.53,8.95.05.88,1.31,1.48.35,2.69-.53.67-.23,2.03-.24,3.08,0,.43.27.66.77.67.5,0,.83-.24.8-.64-.24-3.11.51-6.24-.73-9.36-1.46-3.7-4.06-6.25-7.8-7-1.35-.27-2.56-1.14-4.06-.71-2.7.78-6.24,2.36-7.72,3.72-1.38,1.27-2.87,2.5-3.95,4.01-1.74,2.41-2.01,5.29-1.3,8.11.45,1.78,1.33,3.48,2.2,5.12,1.1,2.07,2.91,3.53,5.3,3.12,3.82-.65,6.33,1.09,8.53,3.81.42.52,1.03.9,1.39,1.45.28.44.2,1.05-.45,1.25-2.28.72-4.7,1.25-7,1.45-2.4.21-5.18-.41-7.3-1.58-2.31-1.27-4.55-2.98-6.19-5.29-1.8-2.54-2.14-5.57-3.15-8.37-.3-.83-.41-2.18.06-2.73,1.51-1.81-.23-4.77,2.32-6.08Z"/>
  <path d="M48.67,64.59c-.19.19-.35.42-.57.57-5.76,4.22-11.44,8.57-17.37,12.56-.66.44-1.17,1.11-1.72,1.7-.5.54-1.48,1.05-.65,1.88.2.2,1.46-.25,1.84-.72,1.18-1.47,2.98-2.11,4.26-3.4,1.08-1.09,1.64-.16,2.23.49.83.92-.02,1.52-.62,1.91-2.14,1.42-4.29,2.8-6.17,4.57-1.13,1.07-1.48.91-2.75-.68-.5-.63-1.19-1.1-1.68-1.73-.53-.69-1.2-1.45-1.29-2.23-.04-.38,1.26-.85,1.74-1.27,2.44-2.13,5.15-3.88,7.71-5.83,4.17-3.18,8.44-6.24,12.59-9.46.64-.5,1.45-.57,1.97-1.11,1.06-1.11,1.81-.24,2.19.51.48.94,1.03,1.75,1.75,2.5,1.39,1.45,1.44,1.61-.05,2.77-2.62,2.03-5.36,3.91-8.04,5.88-.63.47-1.22,1-1.77,1.56-.76.78-.7,1.6-.07,2.46,1.35,1.85,2.59,3.79,4.01,5.59,3.09,3.92,6.37,7.69,8.84,12.07.25.45.79.73,1.11,1.16.42.56.73.57,1.17,0,.3-.39.67-.54.17-1.18-1.42-1.79-2.56-3.83-4.05-5.55-3.45-3.99-6.13-8.53-9.39-12.65-.31-.39-.81-.63-.15-1.16.51-.41.99-1.08,1.65-.54.93.76,1.89,1.58,2.56,2.56,3.44,5.08,7.19,9.93,10.87,14.83.33.44.46.86.63,1.36.28.84,1.79,1.14,1.5,2.15-.31,1.09-1.22,2.05-2.43,2.31-1.11.23-1.37,2.06-2.52,1.57-1.03-.44-1.95-1.42-2.63-2.36-4.04-5.56-7.91-11.26-12.06-16.74-1.01-1.33-2.01-2.69-3.05-4.01-1.12-1.42-.98-1.34.62-2.77,2.79-2.48,5.75-4.69,8.99-6.54.87-.5,1.23-1.36,1.02-2.38-.05-.23-.25-.43-.4-.66Z"/>
  <path d="M118,63.79c-.9.13-1.13-.31-1.12-1.14,0-1.3.84-1.66,1.87-2.11,5.02-2.17,10.22-3.92,15.1-6.4.56-.28,1.01-.3.36-.86-.28-.24-.33-.87-1.15-.47-2.23,1.09-4.57,1.93-6.86,2.9-2.86,1.21-5.83,2.16-8.56,3.68-1.36.76-1.62.54-2.46-.95-1.35-2.4-2.21-5-3.15-7.57-.85-2.33-2.19-4.47-3.08-6.79-1.47-3.83-3-7.63-4.82-11.32-.4-.8-.62-2.15,1.18-2.21.38-.01,1.1-.49,1.25-.71.88-1.27,2.73-.13,3.45-1.52.44,1.13.88,2.33,1.37,3.36,1.94,4.04,3.29,8.33,5.42,12.29,1.34,2.5,2.11,5.3,3.21,7.94.53,1.27-.52,1.65-1.17,2.14-.35.26-.81-.02-1.15-.65-1.23-2.32-2.1-4.81-3.07-7.2-1.26-3.11-2.67-6.16-3.9-9.28-.36-.92-1.29-1.64-1.07-2.79.16-.81-.53-1.18-1-1.58-.24-.2-.75-.26-1.06-.16-.45.14-.51.77-.33,1.02,1.33,1.74,1.38,4.07,2.53,5.8,1.42,2.13,2.21,4.56,2.92,6.85.71,2.29,2.69,4.04,2.63,6.61-.01.42.55.83.76,1.28,1.35,2.83,1.34,2.83,3.8,1.6,4.56-2.28,9.35-4.04,14.04-6.04,1.08-.46,1.41.06,1.97.57,1.3,1.19.66,3.22,1.96,4.46.27.26.09.91-.59,1.2-4.48,1.84-8.89,3.86-13.43,5.56-1.53.58-2.87,1.49-4.4,2.04-.47.17-.88.51-1.43.43Z"/>
  <path d="M222.42,136.44c3.14-.65,6.4-.83,8.62-3.58.47-.59,1.18-.47,1.67-.84,1.49-1.14,1.57.67,2.25,1.11.79.51-.21.75-.42,1.08-.71,1.15-1.82,1.39-3.09,1.25-.61-.07-1,.17-.96.88.04.78.58.74,1.11.73,1.28-.02,2.52.09,3.71-.77,1.4-1.02,3.32-1.25,4.53-2.57.77-.84,1.69-.97,2.45-.51.75.45.17,1.48.31,2.42,0,.06,0-.06,0-.18-.21.07-.44.12-.62.23-.21.13-.16.38.15.48.11.03.31-.22.47-.53.79.05,1.88-2.67,2.47.11.17.8.96.68,1.54.14.97-.9,1.43-2.05,1.73-3.32.11-.45.68-.42,1.04-.32.41.11.57.52.47.94-.06.23-.23.45-.39.64-.86,1.04-.5,1.86.3,2.77,1.16,1.33,2.09-.07,2.65-.43,1.71-1.12,3.55-2.12,5-3.68.31-.33,1.21-1.24,2.15-.66,1.59.99,1.53,1.96.1,3.17-.89.75-1.78.29-2.65.45-.44.08-.67.28-.7.76-.03.48.21.87.6.83,1.26-.13,2.54.42,3.79-.61,1.02-.84,2.5-1.1,3.66-1.81,1.54-.93,2.82-1.93,3.39-3.99.62-2.23,2.15-4.2,3.32-6.26.09-.16.46-.21.7-.21.46,0,.72.25.7.73-.05,1.02.05,1.94-.74,2.94-1.31,1.65-2.15,3.67-3.32,5.45-.6.91-1.19,1.72-.55,2.81.77,1.31,2.23,1.33,3.19.91,2.62-1.16,5.64-1.64,7.59-4.07.42-.52,1.08-1.14,1.61-.51.53.64.49,1.67,1.8,1.45.93-.16,1.28-.88,1.84-1.39.37-.34.81-.36,1.09-.21.52.28.65.92.22,1.32-1.09,1.02-.94,2.55-.29,3.19.66.64,2.08.57,3.21-.32.94-.75,2.23-1.07,3.33-1.67.96-.52,1.84-.78,2.03-1.99.05-.31.33-.84.69-.23.22.37,1.18.43.62,1.11-.46.56-.92,1.13-.19,1.65.68.49,1.18-.16,1.64-.63,1.04-1.05,2.05-2.13,3.15-3.12.41-.37,1.31.16,1.26.21-2.09,1.8.72,2.33.87,3.5.16,1.21.62.99,1.57.7,1.85-.56,3.32-1.74,4.95-2.65.57-.32.64-.05.74.27.07.22.02.67-.1.73-2.72,1.27-5,4.35-8.65,1.99-.6-.39-1.42-.19-1.84,1.2-.98,3.18-2.63,6.15-3.88,9.26-.33.82-.93,1.3-1.5,1.77-.5.42-.69,1.65-1.66,1.09-1.04-.6-1.06-1.57-.7-2.73,1.12-3.68,3.34-6.72,5.44-9.84.56.02.83-.25.81-.81.56.02.83-.25,1.04-1.18.08-.24-.14-.15-.22.02-.16.34,0,.51.34.34.16-.08.27-.3.37-.47.02-.03-.16-.16-.48.12-.79.35-1.06.62-1.04,1.18-.56-.02-.83.25-.81.81-.76-.15-1.68.39-2.28-.3-.89-1.03-1.44-1.3-2.64-.14-1.84,1.77-4.39,1.24-6.71,1.21-.3,0-.57-.71-.88-.73-1.22-.1.79-2.69-1.41-1.82-1.17.46-1.92-.4-2.84-.52-.83-.11-1.79.73-2.68,1.17-2.17,1.07-4.24,2.3-6.86,1.99-2.06-.25-2.1-.09-2.75-2.42-.16-.56-.17-1.08-.84-.43-.56.54-1.45.41-1.97,1.12-1.43,1.94-3.98,1.34-5.87,2.39-.51.29-2.37-.54-2.53-1.15-.53-1.96-1.05-.97-2.11-.48-1.65.77-3.53,2.04-5.2-.18-.75-1-1.05.16-1.39.47-.66.6-1.28,1.09-1.95.18-.82-1.1-1.43-1.22-2.34-.05-.33.42-.61,1.65-1.65.9-.88-.63-1.24-1.36-.2-2.25.19-.16.22-.79.06-1.05-.42-.67-.54.16-.83.25-.88.26-1.58.74-2.26,1.4-1.53,1.48-3.83,1-5.63,1.98-.46.25-2.12-.52-2.22-1.01-.3-1.57-1.34-1.51-2.3-1.28-1.94.45-3.87,1.03-5.72,1.76-.63.25-.88,1.12-1.2,1.88-1,2.4-1.62,4.96-3,7.24-.47.77-.98,1.47-1.53,2.17-.34.44-.76.81-1.34.62-.64-.21-.48-.83-.51-1.34-.15-2.62,0-5.1,1.54-7.45.51-.78,1.05-1.79,1.72-2.02,2.41-.82,3.05-2.88,3.91-4.83.1-.23.03-.52.11-.76.23-.64.79-.7,1.26-.44.63.34,0,.6-.19.83-.59.72-.13,1.55-.28,2.49,0,.06,0-.06,0-.18-.21.07-.44.12-.62.23-.21.13-.16.38.15.48.11.03.31-.22.47-.53ZM233.23,133.13c-.62-.21-.93,0-1.11.34-.19.34-.02.45.36.38.44-.08.99.15,1.14-.49.01-.06-.38-.22-1.52.84v-.36c-.21.07-.44.12-.62.23-.21.13-.16.38.15.48.11.03.31-.22,1.59-1.41ZM259.07,133.13c-.62-.21-.93,0-1.11.34-.19.34-.02.45.36.38.44-.08.99.15,1.14-.49.01-.06-.38-.22-1.52.84v-.36c-.21.07-.44.12-.62.23-.21.13-.16.38.15.48.11.03.31-.22,1.59-1.41ZM295.12,141.82c-.1-.86.43-.47-.05-.69-.15-.07-.54.09-.65.26-1.11,1.63-2.27,3.24-2.55,5.27-.03.22.05.6.2.68.56.32.59-.18.58-.51-.03-.8.7-1.04,1.08-1.54.84-1.13.38-2.72,1.93-5.76-.48.16-.61.43-.58.83.02.25-.06.69.02.72.44.16.72-.16.77-.53.04-.32-.13-.67-.75,1.28ZM215.13,147c.07.55-.15,1.18.32,1.22.77.07.37-.71.56-1.09.91-1.75,1.77-3.53,2.82-5.19.41-.65.32-1.23.34-1.85,0-.18-.26-.38-.41-.57-.09.09-.2.18-.28.28-1.7,2.19-3.15,4.5-3.36,7.2Z"/>
  <path d="M331.64,17.16c.07,2.12-1.42,3.7-.81,5.61-1.61,1.63-.07,4.14-1.61,5.78.48,2.14-1.03,3.97-.93,6.12.04.97-.46,2.21-.79,3.26-.35,1.11-.76,2.14-.71,3.33.03.79-.58.83-1.09.73-1.48-.31-3.02-.51-4.37-1.11-.78-.35-3.19-.61-1.04-2.45-.33-3.42,1.16-6.54,1.82-9.76.94-4.55,1.37-9.23,2.97-13.65.51-1.41-.16-3.04.84-4.51.48-.71.91-1.07,1.38-.62.81.78,1.63.82,2.49.41.4-.19.87-.73.87-1.11,0-.45-.69-.37-1.02-.27-.96.3-1.26-.85-2.09-.85-1.09,0-.69-.9-.74-1.48-.09-1.03.66-.91,1.32-.93,1.69-.05,3.12,1.15,4.86,1.02.18-.01,1.41.5.55,1.7-.59.82-.14,2.31-.41,3.44-.45,1.88-1.21,2.22-3,1.61-1.41-.47-2.53-.09-2.44,1.12.12,1.65-1.19,2.9-.89,4.51.3,1.6-.61,3.02-.94,4.47-.74,3.31-.87,6.75-2.17,9.96-.56,1.37.28,3.13-.9,4.48-.08.09.11.6.26.64.34.09.91.17,1.05-.01.45-.59,1.08-1.32,1.03-1.95-.15-1.75.78-3.31.77-4.91-.01-1.88.7-3.58,1.07-5.27.51-2.33,1.28-4.65,1.38-7.03.05-1.24,1.13-2.01.93-3.3-.17-1.07.85-.71,1.43-.77.63-.07.99.2.96.89-.02.4,0,.81,0,.91Z"/>
  <path d="M465.9,109.03c-.34-.09-.71-.07-.81-.23-.82-1.28-2.49-1.39-3.4-2.54-.49-.62-1.56-1.18-1.53-1.71.03-.6,1.1-1.08,1.57-1.73,2.58-3.53,5.72-6.62,8.02-10.38.88-1.43,2.31-2.39,3.28-3.86,1.71-2.6,4.05-4.79,6.09-7.18.84-.99,1.51-.79,2.25.1.43.51.92.98,1.42,1.43.51.45.64-.2.82-.4.18-.19.89-.3.36-.83-.76-.76-1.53-1.51-2.28-2.29-.3-.31-.94-.56-.25-1.15.5-.43.88-.98,1.67-.65,1.76.72,2.94,2.13,4.2,3.45.17.18.14.88-.05,1.04-.94.76-1.29,1.91-1.99,2.82-1.28,1.67-1.49,1.67-3.35.38-.98-.67-1.87-.84-2.76.1-.73.77-1.64,1.44-2.18,2.33-2.14,3.55-5.05,6.49-7.48,9.8-1.52,2.07-3.5,3.78-4.67,6.12-.17.34-.71.6-.71.89,0,.29.5.55.74.86.36.46.73.25.76-.13.11-1.4,1.27-2.04,2.14-2.72,1.01-.79,1.13-2.01,1.92-2.88,3.39-3.73,6.46-7.72,9.44-11.79,1.2-1.64,1.49-1.59,2.84-.11.34.38.75.57.15,1.16-4.18,4.11-6.91,9.43-11.13,13.52-.79,2.42-3.46,3.47-4.3,5.88-.11.31-.56.49-.81.7Z"/>
  <path d="M157.26,47.9c.15,1-.16,1.45-1.29,1.4-1.13-.05-2,1.16-3.25.87-1.46,1.71-1.85.2-2.21-.81-1.03-2.93-2.01-5.88-2.93-8.85-1.15-3.69-2.01-7.49-3.41-11.07-.82-2.09-.82-4.42-2.13-6.38-.66-.98.14-2.37,1.31-2.83.35-.14.81.05,1.2-.04.98-.23.67-1.08.57-1.63-.27-1.53-.73-.09-1.13-.04-.52.07-1.08-.05-1.58.08-1.57.4-1.95.24-2.09-1.12-.07-.66-.11-1.36.92-1.33.66.02,1.65.22,1.92-.12.74-.92,1.9-.29,2.49-.84,1.31-1.22,1.81.31,1.84.72.08.96.55,1.66.86,2.49.92,2.49.84,2.51-1.57,3.81-1.74.94-1.68.92-1.02,3.04,1.72,5.47,3.4,10.95,5.04,16.44.54,1.79,1.72,3.38,1.65,5.37,0,.18.27.37.42.56.19-.19.37-.39.57-.57.84-.72.7-1.55.38-2.47-1.44-4.1-2.9-8.2-4.25-12.33-.77-2.38-1.38-4.81-1.95-7.24-.17-.7-.32-1.63,1.04-1.6,1.01.02,1.14.36,1.42,1.32,1.29,4.41,2.83,8.75,4.25,13.13.96,2.96,1.51,6.05,2.93,8.86.16.32.02.79.02,1.2Z"/>
  <path d="M311.23,115.45c1.96-.76,2.93.68,3.99,1.84.18.2.19.76-.21,1.07-.45.36-.84.81.13.92.5.06,1.07,0,1.52-.2,1.14-.5,2.19-1.22,3.35-1.67,1.41-.55,2.27-1.65,2.47-2.95.41-2.77,2.5-4.62,3.49-7.05.06-.15.45-.21.69-.22.47-.02.73.25.71.72-.05,1.02.05,1.94-.73,2.95-1.37,1.77-2.25,3.91-3.53,5.77-.61.88-.79,1.62-.33,2.49.61,1.16,1.85,1.27,2.79.93,2.45-.89,5.22-1.34,7.08-3.29,1.82-1.91,4.49-.8,6.39-2.2.19-.14.42.46.45.85.05.71-.29,1.18-.63,1.77-.45.79-.35,1.71.51,2.46.83.73,1.26.09,1.99-.11,2.36-.66,4.46-1.59,6.39-3.16,1.12-.91,2.64-1.37,4.04-1.87.51-.18,1.4-.3,1.41.8,0,.8-.54.75-1.08.79-.38.02-.96,0-1.09.2-.39.64.43.75.69,1.11,1.02,1.42,2.43,1.47,3.82.74,1.56-.82,3.33-1.33,4.5-2.81.3-.38.57-.97,1.24-.86.5.08,1.18-.31,1.47.3.32.66.21,1.15-.74,1.35-1.32.27-.79,1.05-.22,1.68,1.09,1.2,2.27.82,3.57.3,1.5-.61,2.75-1.79,4.41-2,.37-.05.94-.19,1.05.3.1.43-.51.35-.73.53-1.99,1.63-4.31,2.6-6.77,3.15-.71.16-1.15.48-1.68.87-1.72,1.25-3.1.98-4.39-.82-.13-.18-.02-.53.99-.79,1.41,0,1.81.03,2.21-.01.24-.03.46-.17.69-.26-.2-.28-.39-.57-.59-.85-.35-.48-1.01-.77-1.33-.38-.55.68-1.5.48-1.97,1.11-.24.33-.03.46.39.4.53-.07,1.07-.02.6-.02-2.86-.13-4.71.39-5.99,1.5-1.45,1.27-2.43.9-3.78.16-.47-.26-.97-.24-.94-.94.04-.78.59-.73,1.13-.72.27,0,.54.03.8,0,.64-.09,1.64.35,1.85-.24.28-.78-.87-1.07-1.27-1.68-.47-.72-.75.03-1.14.11-2.28.45-3.7,2.51-6.03,3.02-1.02.22-2.03.3-3.03.38-1.25.1-1.79-.74-2.02-1.9-.08-.41-.43-.52-.78-.1-.35.41-.73.79-1.13,1.14-1.44,1.28-3.05,1.35-3.47-.24-.57-2.19-1.64-.64-1.96-.42-2.03,1.41-4.24,1.72-6.62,1.59-.73-.04-1.22-.27-1.71-.78-1.45-1.52-1.81-1.71-3.29-.8-2.83,1.74-5.87,1.71-8.98,1.4-.12-.01-.19-.43,1.3-2.27,1.3-1.61,1.01-1.69.77-1.6-1.14.39-2.48,2.03-2.36,2.82.08.53-.42.06,0,.4.28.23,3.15-.43,3.66-.83.64-.51.37-1.22.35-1.84-.01-.39-.39-.64-2.42,1.06-2.24,1.49-2.39,2.36-2.83,2.33-.4-.03-.46-.63-.35-1,1.18-4.03,2.02-8.18,4.02-11.94.12-.22.2-.47.36-.65.44-.48.86-1.14,1.63-.84.59.23.41.88.43,1.39.08,2.19-1.36,3.74-2.44,5.38-.46.69-.91,1.24-.79,2.27,0,.06,0-.06,0-.18-.21.07-.44.12-.62.23-.21.13-.16.38.15.48.11.03.31-.22.47-.53ZM334.21,120.08c.09-.07.19-.13.28-.21,1.04-1.03,2.05-2.09,3.12-3.09.29-.28.37-.41-.02-.57-.23-.09-.5-.15-.74-.12-1.53.17-2.81,1.42-3,2.95-.05.39-.02.79.37,1.04Z"/>
  <path d="M229.85,120.92q-2.54-.01-3.39-2.51c-.08-.23-.23-.44-.34-.67-.1.06-.22.09-.28.17-1.39,1.91-2.67-.75-3.81-.11-.65.37-1.56.44-1.97,1.07-1.46,2.24-4.29,1.41-6.13,2.8-.47.35-2.07-.81-2.79-1.88-.62-.92-1.21-1.43-2.31-.52-1.3,1.07-2.95.75-4.49.86-1.02.08-1.46-.58-1.95-1.15-.48-.56.35-1.83-.6-1.95-.49-.06-1.13,1.03-1.7,1.6-.48.48-.94.97-1.43,1.42-1.67,1.54-3.02,1.15-3.64-1.1-.2-.72.18-1.78-1.14-.65-.72.61-1.96.61-2.69,1.22-1.66,1.4-3.54,1.43-5.5,1.37-2.25-.07-2.54-.33-2.79-2.76-.08-.81.23-1.61-1.14-.66-1.62,1.12-3.56,1.75-5.36,2.61-2.22,1.06-4.28,1.51-6.47-.36-1.72-1.47-3.77.07-4.78.99-1.79,1.63-3.04.61-4.53.08-.46-.16-.37-.69-.3-1.06.04-.18.35-.33.56-.45.1-.06.27.01.4-.01,1.01-.19,2.12.42,3.04-.41-.67-.67-1.31-1.36-2.01-1.99-.39-.35-.3-.57.03-.87.49-.46.9-1.04,1.45-1.4.56-.36,1.26-.28,1.87-.02.16.07.27.44.27.67-.01,1.1-.88.68-1.46.79-.25.04-.58.04-.71.2-.41.49.21.62.41.83,1.76,1.81,2.22,1.7,4.76.67.96-.39,1.66-.95,2.11-1.64.83-1.25,1.46-.12,2.17-.06.67.06,1.09.37.3.75-.44.21-.91.34-1.34.66-.85.61-.77,1.57-.5,2.17.37.82,1.39.6,2.09.29,2.85-1.25,5.67-2.56,8.48-3.88.85-.4,1.35-.98,1.51-2.05.4-2.55,2.48-4.32,3.44-6.64.06-.14.48-.2.71-.16.23.04.63.27.62.37-.15,1,.28,1.99-.48,3.03-1.41,1.92-2.43,4.12-3.8,6.07-.63.9-.75,1.63-.23,2.49.55.93,1.49,1.17,2.43.91,2.52-.72,5.11-1.42,7.17-3.1.73-.59,1.67-.7,2.27-1.38.45-.51.59-.11.75.21.05.11,0,.27.01.4.16,1.29-.39,2.65.39,3.87.95-.94,1.9-1.88,2.85-2.83.48-.47.95-.96,1.43-1.43.47-.45,1.11-1.35,1.39-1.25.73.26.31,1.15.38,1.78.05.4-.04.81.02,1.21.2,1.28,1.09,1.56,2.44,1.34,3.19-.53,5.78-2.4,8.48-3.87,1.82-.98,1.69.6,2.31,1.03,1,.68-.29.92-.52,1.37-.7,1.39-2.02.99-3.19,1.05-.43.03-.67.28-.68.78-.01.5.22.8.64.81,1.42.02,2.8.15,4.13-.75,1.55-1.05,3.62-1.29,4.86-2.83,1-1.25,1.59-.99,2.64,0,1.1,1.04,2.18.24,2.99-.76.38-.46.87-.71,1.37-.4.52.32.54.89.11,1.35-.98,1.03-.93,2.54-.19,3.17.71.61,2.05.21,3.23-.42,1.99-1.07,4.15-1.81,5.87-3.37.12-.11.5.02.73.11.38.16.32.32,0,.57-2.51,1.95-4.76,4.43-8.43,4.14ZM214.66,116.18c-.62-.21-.93,0-1.11.34-.19.34-.02.45.36.38.44-.08.99.15,1.14-.49.01-.06-.38-.22-1.52.84v-.36c-.21.07-.44.12-.62.23-.21.13-.16.38.15.48.11.03.31-.22,1.59-1.41Z"/>
  <path d="M289.94,120.95c-1.13.09-2.11-.03-2.82-1.09-.34-.51-1-1.26-1.39-1.19-.54.1-.94.88-1.45,1.32-1.7,1.5-3.4,1.38-4.49-.53-.39-.68-.12-.89-1.1-.46-1.58.68-2.89,2.05-4.85,1.95-2.01-.1-3.07-.71-3.8-2.66-.69-1.86-.7-1.87-2.09-.53-1.06,1.03-2.08,2.1-3.16,3.11-.14.14-.55.12-.77.02-.46-.21-.38-.52-.02-.82.47-.39.61-.95.17-1.35-.65-.61-1.12-.03-1.65.39-1.66,1.33-3.6,1.75-5.7,1.83-1,.04-1.69-.48-1.92-1.12-.37-1.06-.5-1.77-1.5-.47-.33.42-.73.79-1.14,1.14-1.02.88-1.89.55-2.76-.3-.8-.78-.16-1.23.12-1.98.79-2.16,2.12-3.18,4.41-2.96.5.05,1.02.1,1.46-.37.65-.68.72-.14.81.43.14.88-.47,1.42-.76,2.11-.37.88.02,1.78.87,2.42.73.56,1.14-.17,1.68-.25,3-.45,5.21-2.43,7.69-3.84,1.16-.66.89-.11,1.02.55.06.32.23.72.74.24.55-.52.89-1.39,1.88-1.29.61.06,1.48-.23,1.38.85-.08.88.36,1.43.8,2.11.77,1.18,1.44,1.16,2.93,1.16,2.31,0,3.75-1.58,5.38-2.61,1.51-.96,2.8-1.81,4.64-1.52,1.43.22,2.09-.56,2.45-1.9.56-2.09,1.44-4.04,3.02-5.6.41-.41.87-.8,1.37-.53.73.38.6,1.31.38,1.79-.89,1.92-1.85,3.83-3.01,5.6-.52.79-1.01,1.4-1.01,2.43,0,2.83.64,3.41,3.35,2.2,1.69-.75,3.6-1.33,4.85-2.88.26-.32.42-.38.57-.01.1.23.22.65.12.73-2.02,1.68-3.86,3.7-6.74,3.87ZM282.72,119.96c.55-.55,1.45-1.5,2.4-2.38.38-.35.34-.76.24-1.08-.12-.4-.58-.42-.99-.43-1.69-.02-2.59.95-3.4,2.32-.4.68-.12.84.23,1.16.28.25.46.7,1.51.41ZM251.09,120.11c.19-.19.38-.38.56-.56.75-.75,1.55-1.47,2.23-2.28.24-.28,1.22-.48.48-1.07-.33-.26-1.07-.26-1.52-.09-1.27.5-2.31,2.22-2.15,3.38.03.22.26.41.39.62Z"/>
  <path d="M514.52,153.99c-2.14,0-3.62-1.27-3.64-3.12-.03-2.27,1.83-4.28,3.82-4.14,1.58.11,3.51,2.2,3.44,3.72-.09,2.16-1.5,3.54-3.62,3.54ZM515.72,150.76c-.07-.77-.66-1.33-1.33-1.42-.26-.03-1.1.61-1.1,1.4,0,1.04.78.79,1.37.82.53.03,1.05.01,1.06-.8Z"/>
  <path d="M222.93,131.31c-.45-.06-.56-.37-.5-.76.09-.57-.36-1.37.63-1.56.4-.08.79.05.97.43.19.4-.68,1.82-1.09,1.88Z"/>
  <path d="M487.46,109.82c-.13-1.25.34-2.11,1.61-2.42.13,1.25-.34,2.11-1.61,2.42Z"/>
  <path d="M172.7,111.97c.46.46,1.09.8,1.13,1.19.06.69-.66.5-1.09.47-.39-.02-1.15.31-.99-.52.08-.43.62-.77.96-1.14Z"/>
  <path d="M308.29,13.69c-.14.25-.39.83-.47.81-.93-.25-.18-.99-.38-1.5-.14-.36.14-.88.44-.77.59.21.26.88.41,1.46Z"/>
  <path d="M347.56,28.31c.08.35.25.7.21,1.02-.05.37-.34.68-.77.53-.08-.03,0-.47-.02-.72-.04-.39.09-.66.58-.83Z"/>
  <path d="M487.46,109.82c-.12.61.4,1.55-.81,1.61.12-.61-.4-1.55.81-1.61Z"/>
  <path d="M495.53,110.98c-.16.12-.36.38-.47.35-.31-.1-.36-.34-.15-.48.18-.12.41-.16.62-.23,0,.12,0,.24,0,.36Z"/>
  <path d="M496.34,109.82c.02.56-.25.83-.81.81-.02-.56.25-.83.81-.81Z"/>
  <path d="M489.08,107.39c-.02-.56.25-.83.81-.81.02.56-.25.83-.81.81Z"/>
  <path d="M490.35,105.84c.09.09.27.23.25.26-.1.18-.2.39-.37.47-.34.17-.5,0-.34-.34.08-.16.3-.26.46-.39Z"/>
  <path d="M354.25,30.25c-.16.12-.36.38-.47.35-.31-.1-.36-.34-.15-.48.18-.12.41-.16.62-.23,0,.12,0,.24,0,.36Z"/>
</svg>