<?xml version="1.0" encoding="UTF-8"?>
<svg id="_レイヤー_1" data-name="レイヤー 1" xmlns="http://www.w3.org/2000/svg" viewBox="0 0 421.33 231.03">
  <defs>
    <style>
      .cls-1 {
        fill: #100607;
      }
    </style>
  </defs>
  <path class="cls-1" d="M47.8,137.28c-.21-1.58-1.7-3.82-1.75-5.56,5.91,6.34,1.55,16.49,6.43,24,1.1-.23,1.06-1.16,1.18-2.03.48-3.54,1.97-8.14,2.2-10.69.09-1.06-.93-13.79-1.17-14.95-.51-2.52-3.59-6.56-4.57-9.48-13.48-40.26,48.97-65.88,67.91-26.47,2.14,4.46,3,9.44,4.88,13.85,4.04,9.5,15.85,15.58,22.15,24.05,9.09,12.22,16.4,36.33,19.44,51.35.62,3.05,1.79,8.81,1.8,11.69,0,.56-.28,1.19-.73,1.24-1.16.14-11.21-3.08-13.14-3.76-15.82-5.59-39.03-18.86-47.59-33.69-.43-.74-1.13-1.3-.93-2.28,3.15,2.35,5.93,6.1,9.76,7.48,2.69.97,4.48.33,6.77.83,2.09.46,4.83,3.35,7.86,3.84,2.64.42,4.55-.92,5.45-.76,1.71.31,4.54,3.22,6.81,3.69,2.66.55,4.34-.41,6.36-.39,3.26.02,9.82,2.28,10.16-2.98-3.69,1.92-3.92-2.26-7-2.93l1.75,4.68c-4.05.93-5.05-3.1-8.17-4.09l1.15,3.22c-.15,2.86-8.49-2.06-9.52-2.75s-2.47-1.71-3.34-2.5c-.8-.72-3.56-5.73-4.06-2.96l3.49,5.29c.64,2.17-4.7-.05-5.44-.41-2-.97-8.16-7.07-9.16-6.33l1.17,2.92c-7.67-.43-15.14-9.8-17.55-16.66-2.62-7.44-1.82-10.11.38-17.22.98-3.15-2.21.26-2.98,2.29-1.82,4.85-1.65,9.73-.72,14.74,4.89,26.31,38.64,45.02,62.35,51.4.61.79-4.01,2.02-4.56,2.16-11.3,2.96-23.01,1.92-34.29-.41-1.84.17-2.43,2.45-3.4,3.33s-3.54,1.01-3.33,3.1c11.59,3.91,25.01,2.63,36.69-.41,3.97-1.03,15.97-4.9,18.62-7.39.97-.91,6.12-8.58,6.73-9.94,1.7-3.77.93-8.55,1.91-12.72.52-2.21,2.6-8.38,4.99-7.88-3.34,5.09-4.37,11.28-4.08,17.27,1.03.21,1.44-.53,2.05-1.16,2.53-2.6,4.16-6.11,5.99-9.2.38-.65.42-1.62,1.32-.45-.71,7.25-12.35,15.05-14.02,20.49-.62,2.01,3.31-.47,3.89-.79,17.5-9.49,33.64-27.89,41.13-46.32l1.75.24c.61.47.57,1.01.54,1.7-.15,3.33-4.05,12.67-5.55,16.16-23.69,55.25-86.83,82.83-143.43,60.59C-1.48,194.31-24.12,97.02,29.39,38.06,64.11-.2,120.41-11.72,166.42,13.19c-5.32.34-10.7-1.68-16.07-2.05-18.35-1.23-36.18,1.87-52.87,9.37-.11.99,2.02.64,2.65.61,6.16-.31,12.54-.16,18.67-.62,5.01-.37,9.93-2.12,14.91-2.63-15.39,7.9-34.09,1.64-49.47,10.15-8.62,4.77-17.5,13.57-23.57,21.17,3.58-1.36,7.15-2.75,10.97-3.34,3.39-.53,7.99-.16,11.25-1.02,2.91-.77,8.09-5.32,11.27-6.86,3.91-1.88,8.3-3.19,12.67-2.82,1.23.9-8.5,1.88-9.16,2.82l-11.29,7.13h10.23c1.55,0,6.56-1.55,8.47-2.05s3.79-1.22,5.57-2.04c1.71-.13.49.69-.1,1.07-3.1,1.98-9.83,3.96-13.51,4.61-9.47,1.66-19.44-.05-28.89,2.67-8.46,2.43-16.15,7.62-19.15,16.22.38.38,6.95-3.3,8.28-3.69,2.72-.79,5.89-.64,8.55-1.38,3.39-.94,8.14-4.72,11.56-4.86.91-.04,1.75.15,1.98,1.16l-4.08.89-7.02,3.79,10.51.3c-4.31,3.09-10.73.81-15.39.92-5.84.14-15.37,5.17-18.76,9.95-5.23,7.37-8.27,20.98-9.67,29.81l15.15-20.83c-2.6,10.08-12.02,16.07-14.99,25.97-3.22,10.71-1.17,25.12,1.59,35.83.15.16.75-.32.88-.58.52-1.07,2.47-9.89,2.62-11.43.67-6.89-2.45-16.05,2.34-21.95-.47,4.35-2.37,12.32-.88,16.4.47,1.3.61.62,1.02-.16,1.2-2.31,1.52-5.52,3.95-6.87-4.33,12.91-9.69,25.4-4.19,39.03,2.94,7.27,7.85,14.77,12.95,20.68-1.48-9.38-1.92-19.15-6.58-27.65-1.56-2.85-4.72-5.13-5.59-8.46-.32-1.25-.27-1.56,1.06-1.35-.05,2.32,1.67,4.12,3.51,5.27-.27-2.86.37-6.3,0-9.07ZM116.17,2.95c-11.08-.25-22.71,1.09-33.3,4.39-1.92.6-4.78,1.31-6.4,2.37-2.58,1.68-5.12,6.29-7.04,8.76-.09.44.6.39.86.28,3.79-1.56,8.5-6.01,13.56-6.32l8.94-4.5c-4.27,5.8-12.14,6.49-18.06,10-8.59,5.1-12.78,12.68-14.07,22.49,5.65-4.35,10.87-9.29,16.76-13.35,9.23-6.37,18.92-12.06,27.84-18.94l10.91-5.16ZM147.14,7.63c-7.5-1.4-17.13-4.88-24.77-4.04-7.58.83-18.19,6.99-23.73,12.22,10.88-4.32,22.47-6.88,34.19-7.6,4.06-.25,8.2.15,12.27,0,.71-.03,2.17.44,2.04-.58ZM34.94,79.62c3.28-11.94,13.14-21.65,18.34-32.27,3.38-6.89,5.05-15.38,8.72-22.29l8.01-12.75c-15.76,6.62-29.66,17.37-40.6,30.45-1,2.19.37,11.45,1.04,14.17.14.59.17,1.76.99,1.62,2.22-10.85,11.63-18.35,14.04-29.26l1.07.77-3.41,9.76,9.34-8.78c-1.41,6.53-8.08,8.89-11.92,13.51-8.22,9.89-8.77,21.36-6.75,33.58.11.69.35,1.38,1.14,1.49ZM27.35,127.04c-.35-8.8.23-17.18,1.34-25.88.47-3.67,1.86-7.59,2.16-11.3,1.2-15.08-2.75-29.34-3.5-44.18-7.55,7.99-14.55,20.38-17.96,30.88-1.95,6-1.32,9.98.01,16.08.48,2.18,1.29,5.93,2.75,7.48-.66-11.78,4.82-22.74,4.69-34.53l1.11,4.91-1.69,12.06,2.23-2.15,6.52-10.73c-.09,7.01-7.63,12.16-9.62,17.58-3.14,8.54-2.29,22.98,4.36,29.84.2-8.47,1.51-15.86-1.75-24,1.62-.28.99.33,1.32,1.28.53,1.52.44,3.81,2.18,4.57.57-1.84.59-3.81,1.09-5.67.27-1.01-.41-1.63,1.25-1.35-1.67,11.04-5.89,26.62,3.5,35.12ZM35.53,158.64c-3.85-9.57-5.51-18.49-10.86-27.46-10.23-17.12-13.09-21.1-17.94-41.15-.14-.59-.17-1.76-.99-1.62-1.86,10.59-3.59,21.66-2.92,32.48.16,2.54.59,7.4,1.46,9.66,1.49,3.83,6.49,9.58,9.63,12.3-1.75-6.48-4.36-14.6-3.5-21.38.1-.81.44-1.84,1.17-.87.47,11.4,3.04,22.76,12,30.42l11.96,7.62ZM103.9,96.02c-3.44-.1-2.93,3.88-6.01,5.39s-11.9-.04-6.27,5.15c.24-2.77,3.32-1.45,5.43-1.89,3.47-.71,7.26-4.93,6.85-8.65ZM76.94,107.22c-2.88-.69-5.08,1.98-7.9,2.06-2.06.06-3.76-1.36-5.74-1.57-.86-.09-1.72-.33-1.46.88,3.44,3.65,6.48,3.94,11.1,2.36,1.57-.54,2.13-2.55,3.8-.31,1.41-.91.73-2.14.21-3.42ZM88.7,122.35c.89-4.65,2.21-12.27-4.07-13.46-2.84,5.7-.76,10,4.07,13.46ZM56.56,199.62c-.66-3.75-1.57-7.69-3.18-11.15-2.66-5.69-14.04-20.99-18.74-25.13s-10.73-7.34-15.47-11.42c-5.64-4.86-10.06-10.85-14.6-16.69,5.24,30.77,24.68,60.23,51.25,76.56,1.34.82,3.06,2,4.46,2.56.61.24,1.28,1.09.96-.38-1.17-5.3-9.23-15.17-13.48-18.7-7.49-6.21-18.47-9.72-23.45-18.65-.26-.47-.95-1.28-.17-1.59,3.15,3.47,6.13,7.92,10.81,9.36.41-.4-4.88-9.1-5.58-9.91-1.51-1.75-4.09-3.27-5.82-5.29s-3.08-4.37-4.37-6.74c.92-1.19.97-.02,1.33.45.75.97,1.21,2.04,2.15,3.08.68.74,5.79,6.2,6.44,5.54l-2.91-9.08,1.15-.28c3.07,7.26,4.31,13.95,9.12,20.43,5.52,7.46,13.82,10.35,20.1,17.03ZM73.22,194.94h15.49l-.59-5.27-4.08,2.34c.63-3.73,1.05-4.19-2.38-6.1-4.89-2.74-11.48-.38-15.74-5.31l9.34,2.05-7.89-11.11.58-1.17c3.9,5.3,7.35,10.47,13.35,13.56,3.54,1.82,5.02,2.67,6.81-1.84-9.55-5.91-17.13-14.95-23.85-23.83l-7.41-11.31c-3.12,10.15-.78,26.85,4.06,36.32,1.78,3.47,8.55,10.92,12.3,11.68ZM160.58,208.98c12.49-.25,17.18-12.41,27.65-17.07,2.52-1.12,5.84-1.5,8.02-3.09,2.54-1.86,8.27-10.75,10.15-13.83,2.61-4.28,5.45-9.2,6.76-14l-7.61,10.23c-16.72,19.78-41.26,32.91-66.6,37.78.27.87,3.02,1.1,3.8,1.16,2.75.21,9.04.39,11.55-.12,4.1-.84,7.21-4.84,10.64-6.9l-4.38,5.85ZM105.65,199.62c-.3-2.87-.7-5.36,1.1-7.91-1.67-1.7-5.43-2.6-7.7-1.92-.51.15-5,4.52-5.08,4.87-.18.8.44,1.02.98,1.33,2.49,1.44,7.82,2.24,10.69,3.62ZM193.3,192.02c-9.35,1.01-14.36,9.74-21.04,15.21,9.13-.49,15.21-9.16,21.04-15.21ZM86.37,220.1c-3.66-1.18-7.91-3.96-10.05-7.2-1.62-2.45-2.36-5.99-3.97-8.32-1.4-2.02-7.12-6.46-9.35-8.19-.59-.46-.75-1.13-1.76-.87.62,7.01,6.95,21.67,12.9,25.41,5.14,3.23,23.64,6.44,30.02,6.81l5.57-.6-33.02-20.49c-.89-.15-1.01-.03-.87.87.9,5.8,6.74,8.94,10.53,12.58ZM110.32,201.38l.58-5.26c-2.21.81-3.5,2.1-2.83,4.6l2.25.67ZM174.61,208.41c-11.63,2.55-21.98,5.87-34.18,5.26-18.43-.93-30.1-8.68-46.33-11.54-3.79-.67-8.34-1.46-11.81.72,4.35,2.88,8.99,6.8,13.47,9.32,13.56,7.62,34.67-.24,45.54,5.89.28.16.75.75.58.88-6.42-.21-12.84-3.14-19.28-1.16l9.76,5.12.45,1.32c-9.45-4.75-18.42-6-28.92-6.44,5.42,5.02,13.06,10.31,20.67,9.87,13.21-.77,30.13-6.84,41.66-13.28,2.81-1.57,6.45-3.46,8.37-5.95Z"/>
  <g>
    <path class="cls-1" d="M186.47,60.17h-4.72v-.14h.17c.32,0,.6-.12.83-.35s.35-.58.35-1.04v-9.53c0-.45-.11-.8-.32-1.05s-.5-.37-.87-.37h-.15v-.15h4.12c.54,0,1.04.08,1.5.24.46.16.84.37,1.16.65.32.28.56.59.73.94s.26.73.26,1.14c0,.76-.25,1.38-.74,1.85s-1.15.82-1.98,1.05v.03c.38.04.74.1,1.09.18.35.08.66.19.94.33.28.14.54.33.79.56.22.21.41.43.57.68s.27.51.35.8.12.58.12.89c0,.66-.17,1.22-.51,1.7-.34.47-.72.83-1.15,1.08-.61.34-1.45.51-2.53.51ZM184.4,53.34h.82c.67,0,1.15-.07,1.44-.21.18-.09.37-.22.57-.38.2-.16.39-.41.57-.75.18-.34.27-.76.27-1.24,0-.38-.06-.74-.18-1.08-.12-.34-.29-.64-.52-.9-.23-.26-.5-.47-.81-.62s-.66-.22-1.03-.22c-.33,0-.7.06-1.12.19v5.21ZM185.69,53.73h-1.29v4.55c0,.3.03.56.09.76.06.2.22.38.49.53.27.15.68.22,1.24.22,1.16,0,1.99-.39,2.48-1.16.34-.53.51-1.13.51-1.79,0-.48-.08-.91-.25-1.3-.17-.39-.4-.71-.69-.97s-.66-.46-1.11-.61c-.45-.15-.93-.22-1.46-.22Z"/>
    <path class="cls-1" d="M205.45,53.87c0,1.18-.29,2.28-.88,3.3s-1.38,1.83-2.4,2.43-2.13.9-3.36.9-2.37-.3-3.4-.9c-1.03-.6-1.84-1.42-2.43-2.44-.59-1.02-.89-2.14-.89-3.34,0-.93.18-1.8.53-2.61.35-.81.84-1.52,1.48-2.13.63-.61,1.35-1.07,2.16-1.41.81-.33,1.65-.5,2.53-.5s1.69.16,2.49.48c.79.32,1.51.78,2.14,1.38.63.6,1.13,1.31,1.49,2.14.36.82.54,1.73.54,2.71ZM203.94,53.91c0-1.68-.3-3-.89-3.94-.59-.95-1.28-1.58-2.06-1.91-.78-.32-1.51-.48-2.2-.48-.53,0-1.08.09-1.65.26-.57.17-1.13.49-1.67.96-.54.46-.98,1.11-1.33,1.96-.35.84-.52,1.88-.52,3.11,0,1.09.14,2.03.43,2.84.29.81.69,1.47,1.19,1.98s1.06.88,1.67,1.11c.61.23,1.24.34,1.9.34.59,0,1.18-.1,1.79-.31.6-.21,1.15-.55,1.65-1.02.5-.47.91-1.11,1.22-1.92.31-.81.47-1.8.47-2.96Z"/>
    <path class="cls-1" d="M220.65,53.87c0,1.18-.29,2.28-.88,3.3s-1.38,1.83-2.4,2.43-2.13.9-3.36.9-2.37-.3-3.4-.9c-1.03-.6-1.84-1.42-2.43-2.44-.59-1.02-.89-2.14-.89-3.34,0-.93.18-1.8.53-2.61.35-.81.84-1.52,1.48-2.13.63-.61,1.35-1.07,2.16-1.41.81-.33,1.65-.5,2.53-.5s1.69.16,2.49.48c.79.32,1.51.78,2.14,1.38.63.6,1.13,1.31,1.49,2.14.36.82.54,1.73.54,2.71ZM219.14,53.91c0-1.68-.3-3-.89-3.94-.59-.95-1.28-1.58-2.06-1.91-.78-.32-1.51-.48-2.2-.48-.53,0-1.08.09-1.65.26-.57.17-1.13.49-1.67.96-.54.46-.98,1.11-1.33,1.96-.35.84-.52,1.88-.52,3.11,0,1.09.14,2.03.43,2.84.29.81.69,1.47,1.19,1.98s1.06.88,1.67,1.11c.61.23,1.24.34,1.9.34.59,0,1.18-.1,1.79-.31.6-.21,1.15-.55,1.65-1.02.5-.47.91-1.11,1.22-1.92.31-.81.47-1.8.47-2.96Z"/>
    <path class="cls-1" d="M232.64,47.54v.15c-.35.02-.67.07-.94.13-.27.06-.54.22-.82.47-.2.19-.34.31-.41.38-.07.06-.15.13-.24.21l-4.3,4.25,5.14,5.81c.4.45.74.73,1.02.84s.64.2,1.08.25v.14h-2.73l-5.65-6.39v4.86c0,.9.45,1.36,1.36,1.39v.14h-4v-.14c.25-.01.47-.06.67-.14.19-.08.36-.23.48-.43.13-.2.19-.48.19-.82v-9.59c0-.53-.13-.89-.4-1.08-.27-.19-.58-.28-.95-.3v-.15h4v.15c-.9.03-1.36.49-1.36,1.37v4.66l4.84-4.84s.01,0,.03-.05c.27-.25.4-.46.4-.63,0-.2-.08-.33-.24-.38-.16-.05-.39-.09-.71-.13v-.15h3.49Z"/>
    <path class="cls-1" d="M245.64,51.9v.15c-.42.02-.77.1-1.03.26-.26.15-.5.4-.7.73-.2.33-.41.77-.63,1.33-.25.63-.46,1.13-.63,1.5-.18.37-.33.67-.46.88-.13.21-.26.4-.38.57.04.03.25.23.64.58.39.35.72.66.99.91.62.53,1.11.86,1.45,1s.69.22,1.04.23v.14h-2.67c-.98-.78-1.71-1.4-2.2-1.86-.33.43-.82.89-1.49,1.38-.67.49-1.45.74-2.35.74-.49,0-.93-.08-1.34-.25-.41-.17-.77-.4-1.08-.72-.31-.31-.55-.66-.72-1.05-.17-.39-.25-.79-.25-1.2,0-.81.25-1.54.75-2.17.5-.64,1.1-1.19,1.82-1.66l-.12-.12c-.52-.58-.93-1.12-1.22-1.61-.29-.49-.44-1-.44-1.53s.14-1,.42-1.45c.28-.45.66-.82,1.15-1.09.49-.27,1.04-.41,1.66-.41.8,0,1.45.22,1.94.67s.74.99.74,1.64c0,.73-.28,1.37-.84,1.93-.56.56-1.24,1.09-2.04,1.57.29.34.75.82,1.37,1.46l1.24,1.3c.49.51.91.93,1.29,1.28.3-.47.63-1.13.98-2s.53-1.57.53-2.11c0-.35-.09-.59-.28-.69-.19-.11-.42-.17-.71-.18v-.15h3.58ZM236.63,53.69c-1.18.79-1.78,1.73-1.78,2.81,0,.55.15,1.06.46,1.52.3.46.7.82,1.18,1.08.49.26.98.39,1.47.39.43,0,.83-.08,1.19-.23s.66-.33.91-.53c.25-.2.49-.43.75-.68-.49-.47-.87-.83-1.13-1.09-.26-.26-.53-.54-.82-.84s-.59-.62-.91-.96c-.32-.34-.76-.83-1.32-1.47ZM237.4,52.7c.61-.39,1.1-.8,1.47-1.23s.57-.95.57-1.57c0-.37-.09-.72-.26-1.06-.17-.34-.42-.62-.75-.83-.33-.21-.69-.32-1.11-.32-.57,0-1.01.17-1.31.51-.3.34-.45.74-.45,1.2,0,.31.09.68.28,1.08s.42.8.7,1.19c.28.38.56.73.84,1.03Z"/>
    <path class="cls-1" d="M258.13,50.37h-.15c-.11-.62-.4-1.14-.87-1.57-.47-.43-1.01-.74-1.62-.94-.61-.2-1.18-.3-1.71-.3-.73,0-1.41.15-2.05.46-.64.31-1.19.74-1.65,1.29-.46.56-.82,1.23-1.08,2.01s-.39,1.63-.39,2.54.12,1.71.37,2.47c.25.76.61,1.41,1.09,1.97.48.56,1.03.98,1.66,1.26s1.33.43,2.09.43c.64,0,1.34-.13,2.11-.39s1.46-.69,2.08-1.3v.49c-.76.59-1.46,1.02-2.09,1.29s-1.42.41-2.36.41c-.99,0-1.9-.18-2.72-.54-.82-.36-1.51-.85-2.08-1.47-.57-.62-.99-1.31-1.29-2.08-.29-.77-.44-1.57-.44-2.38,0-1.23.3-2.37.91-3.43.61-1.05,1.43-1.89,2.46-2.5,1.03-.61,2.16-.92,3.37-.92.75,0,1.55.11,2.39.33l.89.25c.17.03.32.05.44.05.22,0,.37-.03.45-.1s.13-.18.17-.36h.14l-.12,3.02Z"/>
    <path class="cls-1" d="M265.12,47.39l3.78,10.82c.2.56.39.97.57,1.22.18.25.35.41.51.48s.37.11.62.13v.14h-4.12v-.14c.42,0,.75-.04.98-.12s.34-.3.34-.65c0-.19-.05-.45-.16-.78-.02-.05-.04-.08-.04-.1l-1.12-3.35h-4.37l-1,3.1c-.14.42-.21.76-.21,1.02,0,.35.09.59.27.71.18.12.43.18.75.18v.14h-2.97v-.14c.42-.04.76-.2,1.02-.48.25-.28.48-.71.66-1.29l3.57-10.87h.93ZM262.24,54.57h4.02l-2.06-5.99h-.03l-1.93,5.99Z"/>
    <path class="cls-1" d="M271.41,47.69v-.15h7.58v1.92h-.14c-.03-.39-.18-.75-.43-1.06-.25-.31-.69-.47-1.31-.47h-3.04v5.72h2.83c.54,0,.9-.11,1.1-.33s.32-.52.38-.91h.14v2.86h-.14c-.03-.36-.15-.66-.36-.89-.2-.23-.58-.35-1.12-.35h-2.83v4.6c0,.42.12.75.36,1.01s.53.38.87.38h.18v.14h-4.07v-.14h.17c.34,0,.63-.13.85-.39s.34-.59.34-1v-9.55c0-.54-.12-.91-.37-1.11-.25-.2-.52-.3-.82-.3h-.17Z"/>
    <path class="cls-1" d="M280.38,47.69v-.15h7.53v1.99h-.12c0-1.06-.71-1.6-2.13-1.6h-2.63v5.74h2.32c.46,0,.87-.07,1.23-.22.36-.15.57-.49.62-1.02h.13v2.86h-.13c-.05-.33-.15-.58-.29-.75s-.28-.29-.42-.35c-.14-.06-.26-.09-.37-.09-.21-.03-.42-.05-.64-.05h-2.43v4.48c0,.34.06.63.19.87.13.25.43.37.9.37h1.88c.45,0,.82-.07,1.11-.2.29-.13.52-.31.69-.55s.31-.52.42-.85h.12l-.44,1.98h-7.53v-.14h.17c.27,0,.53-.11.79-.33.26-.22.39-.57.39-1.06v-9.52c0-.39-.09-.73-.26-1.01-.17-.29-.48-.43-.91-.43h-.17Z"/>
  </g>
  <g>
    <path class="cls-1" d="M212.52,107.36l-2.92,1.56c-2.11-2.52-4.78-5.03-7.95-7.55-4.63,6.75-11.23,11.93-19.73,15.55l-.4-.4c5.24-2.92,9.67-6.59,13.29-10.92l-8.05-13.44.86-.86c4.68,1.71,8.91,3.67,12.79,5.99,2.57-4.93,4.43-10.57,5.54-16.86l-16.06.86-4.48,1.16-.7-2.11,20.94-1.01,1.76-.81,3.22,1.76-.86.81c-1.41,6.95-3.62,12.94-6.59,17.97,3.98,2.67,7.1,5.44,9.36,8.31ZM199.13,99.51c-3.42-2.47-7-4.63-10.72-6.49l7.35,11.43c1.21-1.56,2.32-3.22,3.37-4.93Z"/>
    <path class="cls-1" d="M237.54,103.08c-.45-3.67-1.76-7.15-3.93-10.37l.4-.25c4.03,2.62,6.09,6.04,6.19,10.22l-2.67.4ZM261.3,93.42c-1.26,5.89-3.37,10.62-6.19,14.09-2.92,3.52-6.9,6.34-11.98,8.46l-.4-.35c4.23-2.62,7.45-5.54,9.71-8.81,2.37-3.47,4.08-7.8,5.03-12.99l-8.96,6.59-2.57.2c-.5-3.42-1.86-6.7-4.13-9.92l.45-.2c3.78,2.11,5.89,4.93,6.34,8.46l10.12-7.65,3.52,1.36-.96.75Z"/>
    <path class="cls-1" d="M313.8,85.21c-5.39,15.86-15.91,26.38-31.56,31.51l-.35-.4c14.4-6.85,23.76-17.47,28.19-31.86l-14.55.86c-3.32,4.73-7.85,8.51-13.54,11.43l-.35-.35c6.7-4.98,11.48-11.68,14.4-20.09l3.98,2.21-1.06.45c-.7,1.81-1.61,3.52-2.67,5.13l13.64-.76,1.36-.7,3.42,1.96-.91.6Z"/>
    <path class="cls-1" d="M369.03,97.95c0,2.62-1.46,4.83-4.33,6.59-2.92,1.81-6.95,2.97-12.18,3.52l-.3-.45c8.66-1.91,12.99-5.19,12.99-9.92,0-2.87-1.56-4.98-4.73-6.34-2.27-1.01-5.18-1.56-8.71-1.66-2.37,4.28-5.03,7.65-8.05,10.17-3.27,2.67-6.64,4.03-10.07,4.03-4.03,0-6.09-1.41-6.09-4.23,0-3.52,2.47-6.24,7.35-8.26,3.83-1.61,8.31-2.47,13.39-2.67l3.47-6.69-.4-1.16,4.28,1.51-3.37,6.34c4.43.2,8,.86,10.82,1.96,3.98,1.61,5.94,4.03,5.94,7.25ZM347.73,89.84c-4.43.4-8.21,1.41-11.43,3.07-3.72,1.91-5.64,4.28-5.64,7.05,0,1.91,1.01,2.87,2.97,2.87,2.11,0,4.48-1.26,7.1-3.73,2.67-2.47,4.98-5.54,7-9.26Z"/>
    <path class="cls-1" d="M395.15,109.73c-1.51-2.01-3.42-3.83-5.74-5.54v14.8h-2.37v-17.82h-1.21c-.55,3.37-1.56,6.24-2.92,8.56-1.41,2.32-3.52,4.68-6.34,7.1l-.45-.25c3.62-4.83,5.74-9.97,6.44-15.4h-1.16l-3.67.6-.4-1.76h9.72v-6.34l3.02.25-.65.75v5.34h2.11l4.08-1.11.71,2.27h-6.9v1.86c3.62,1.31,6.24,2.92,7.9,4.93l-2.17,1.76ZM415.04,91.91c-3.78-3.83-8.76-7.1-14.9-9.72v11.38h-3.52v-13.39h-1.66c-3.02,5.39-8.05,9.36-15,11.93l-.35-.35c5.54-3.07,9.51-6.95,11.83-11.58h-4.88l-4.28.81-.55-2.01h14.9v-4.53l4.03.35-.5,1.01v3.17h9.97l4.63-1.16.81,2.37h-15.4v.96c7.55,2.01,13.34,4.93,17.27,8.76l-2.37,2.01ZM418.41,116.98c-3.42-4.13-5.94-9.41-7.45-15.81h-.81v17.67h-3.52v-17.67h-1.16c-.6,3.37-1.61,6.24-2.97,8.56-1.41,2.32-3.47,4.68-6.29,7.1l-.45-.25c3.62-4.83,5.79-9.92,6.44-15.35l-3.42.5-.4-1.71h8.26v-6.34l4.18.25-.65.96v5.13h4.93l4.08-1.11.71,2.27h-7.7c2.21,5.69,5.29,10.27,9.16,13.74-1.16.6-2.11,1.31-2.92,2.06Z"/>
  </g>
</svg>