<?xml version="1.0" encoding="UTF-8"?>
<svg id="_レイヤー_1" data-name="レイヤー 1" xmlns="http://www.w3.org/2000/svg" viewBox="0 0 642.92 168.74">
  <g>
    <path d="M192.72,101.6h10.45v35.39h8.28v10.66h-18.73v-46.04Z"/>
    <path d="M217.41,106.39c0-1.47.52-2.72,1.55-3.76s2.28-1.55,3.72-1.55,2.72.52,3.76,1.55,1.55,2.29,1.55,3.76-.52,2.7-1.55,3.74-2.29,1.57-3.76,1.57-2.66-.52-3.71-1.57-1.57-2.29-1.57-3.74ZM217.69,115.91h10.04v31.73h-10.04v-31.73Z"/>
    <path d="M236.86,107.46h10.04v8.45h3.9v8.35h-3.97v23.38h-9.97v-23.45h-3.79v-8.28h3.79v-8.45Z"/>
    <path d="M257.14,107.46h10.04v8.45h3.9v8.35h-3.97v23.38h-9.97v-23.45h-3.79v-8.28h3.79v-8.45Z"/>
    <path d="M276.46,99.05h10.04v48.6h-10.04v-48.6Z"/>
    <path d="M309.29,137.95h8.45c-1.61,7.13-5.63,10.69-12.07,10.69-4.02,0-7.21-1.53-9.55-4.59s-3.52-7.28-3.52-12.66c0-5.01,1.17-9.03,3.52-12.05s5.46-4.54,9.35-4.54c2.35,0,4.6.73,6.76,2.19s3.74,3.4,4.73,5.81,1.54,6.22,1.66,11.42h-16.73c.14,4.71,1.45,7.07,3.93,7.07.85,0,1.61-.31,2.28-.93s1.07-1.43,1.21-2.41ZM302.02,128.78h7.28c-.07-2.23-.38-3.88-.93-4.95s-1.43-1.6-2.62-1.6c-1.33,0-2.29.52-2.86,1.55s-.86,2.7-.86,5Z"/>
    <path d="M342.89,101.6h21.14v9.86h-10.69v8.42h9.42v9.55h-9.42v18.21h-10.45v-46.04Z"/>
    <path d="M381.69,114.81c4.58,0,8.06,1.52,10.45,4.57s3.59,7.28,3.59,12.71-1.24,9.42-3.72,12.33-5.92,4.36-10.31,4.36-7.55-1.48-10.02-4.45-3.71-7.05-3.71-12.24,1.18-9.66,3.54-12.71,5.75-4.57,10.19-4.57ZM381.76,139.81c1.31,0,2.29-.61,2.95-1.83s.98-3.3.98-6.24-.32-4.97-.97-6.14-1.61-1.76-2.9-1.76-2.23.57-2.9,1.71-1,3.22-1,6.26c0,5.33,1.28,8,3.83,8Z"/>
    <path d="M411.21,115.91v5.31h.14c2.39-4.14,4.91-6.21,7.55-6.21.39,0,.93.07,1.62.21v9.83c-1.22-.21-2.35-.31-3.38-.31-3.68,0-5.52,2.38-5.52,7.14v15.76h-10v-31.73h9.59Z"/>
    <path d="M440.84,137.95h8.45c-1.61,7.13-5.63,10.69-12.07,10.69-4.02,0-7.21-1.53-9.55-4.59s-3.52-7.28-3.52-12.66c0-5.01,1.17-9.03,3.52-12.05,2.35-3.02,5.46-4.54,9.35-4.54,2.35,0,4.6.73,6.76,2.19s3.74,3.4,4.73,5.81,1.54,6.22,1.66,11.42h-16.73c.14,4.71,1.45,7.07,3.93,7.07.85,0,1.61-.31,2.28-.93s1.07-1.43,1.21-2.41ZM433.56,128.78h7.28c-.07-2.23-.38-3.88-.93-4.95s-1.43-1.6-2.62-1.6c-1.33,0-2.29.52-2.86,1.55s-.86,2.7-.86,5Z"/>
    <path d="M457.19,137.4c3.43,2.02,5.9,3.04,7.42,3.04.83,0,1.52-.21,2.07-.64s.83-.94.83-1.53c0-.64-.23-1.12-.69-1.41s-2.18-1.1-5.17-2.41c-2.39-1.06-4.12-2.31-5.17-3.74s-1.59-3.22-1.59-5.36c0-3.06,1.05-5.58,3.16-7.55s4.79-2.97,8.05-2.97,7.06,1.26,11.66,3.79l-3.86,7.14c-2.99-1.84-5.44-2.76-7.35-2.76-1.66,0-2.48.67-2.48,2,0,.64.3,1.2.91,1.67s1.72.99,3.33,1.57c3.01,1.06,5.2,2.32,6.57,3.79s2.05,3.33,2.05,5.59c0,3.22-1.08,5.86-3.24,7.93s-4.92,3.1-8.28,3.1c-3.63,0-7.52-1.28-11.66-3.83l3.45-7.42Z"/>
    <path d="M484.3,107.46h10.04v8.45h3.9v8.35h-3.97v23.38h-9.97v-23.45h-3.79v-8.28h3.79v-8.45Z"/>
    <path d="M521.76,101.6h12.93c4.55,0,8.21,1.3,10.97,3.9s4.14,6.02,4.14,10.28c0,4.48-1.4,8-4.19,10.54s-6.66,3.81-11.61,3.81h-1.79v17.52h-10.45v-46.04ZM532.21,110.43v10.86c2.35-.05,4.08-.49,5.19-1.35s1.67-2.2,1.67-4.04c0-1.98-.54-3.37-1.62-4.19s-2.83-1.25-5.24-1.29Z"/>
    <path d="M571.77,147.64v-4.17h-.14c-1.22,1.79-2.4,3.12-3.54,3.97s-2.48,1.28-4.02,1.28c-3.01,0-5.42-1.54-7.21-4.62s-2.69-7.27-2.69-12.55.91-9.13,2.72-12.14,4.21-4.52,7.17-4.52c1.59,0,2.93.4,4.04,1.19s2.25,2.06,3.45,3.81h.14v-3.97h10.04v31.73h-9.97ZM571.77,131.61c0-5.27-1.29-7.9-3.86-7.9s-3.9,2.63-3.9,7.9,1.35,8.21,4.04,8.21c2.48,0,3.72-2.74,3.72-8.21Z"/>
    <path d="M598.98,115.91v5.31h.14c2.39-4.14,4.91-6.21,7.55-6.21.39,0,.93.07,1.62.21v9.83c-1.22-.21-2.35-.31-3.38-.31-3.68,0-5.52,2.38-5.52,7.14v15.76h-10v-31.73h9.59Z"/>
    <path d="M613.71,99.05h10v28.18h.17l6.83-11.31h12l-10.17,14.21,10.38,17.52h-11.55l-7.48-15.49h-.17v15.49h-10v-48.6Z"/>
  </g>
  <g>
    <path d="M158.67,145.89c-.16-1.1,1.58-2.06-.37-2.84l-1.85,2.37c-1.8.85-7.69-5.95-8.66-6.98-1.98-2.12-3.7-4.49-5.46-6.69-4.44-.69-15.57-1.31-18.93-3.2-1.97-1.11,2.61-2.9,1.47-3.56-1.61-.93-3.06,1.41-3.3,1.41-1.15-.81-2.11-1.63-4.04-1.41l2.83,3.91c-1.5,2.33-3.09,4.62-4.91,6.85-1.37,1.68-8.03,9.03-9.66,9.91-.52.28-1.34.48-1.48-.02l-2.57-2.61.36,2.85-9.44-.06-1.42-20.51,16.01-11.26c-7.27-2.37-9.7,1.3-14.09,4.42-.65.46-.65,1.02-2.07.8v-13.5l-6.04-11.66-5.71,11.49v13.66c-3.58-.63-7.46-6.21-11.18-6.09-1.46.04-3.38.85-4.98.87l16.01,11.73-1.32,20.1h-11.02l.73-2.37c-3.25-.86-2.76,3.17-5.16,2.15-1.33-.57-9.01-9.44-10.16-11.01-.7-.95-3.71-5.06-3.77-5.67-.12-1.21,2.8-3.64,2.19-4-1.58-.93-2.56.99-2.91,1.19-2.01,1.1-1.33-1.51-3.7-1.19-.41,1.78,2.85,2.51.27,3.74-4.48,2.14-12.4,2.14-17.6,2.87l-13.9,14.28c-1.38,0-1.13-3.32-2.93-2.84-2.52.68.6,2.72.36,2.84-1.86.21-9.85-.57-10.28.72l1.1,1.18h103.21c-.93,2.19-8.95,2.51-12.21,2.79-15.54,1.35-41.06.39-54.63,4.58-6.61,2.04-7.49,5.66-.78,8.1,5.24,1.91,29.17,5.66,34.94,5.48,1.17-.04,1.84-.09,2.55-.75-.61-.43-1.09-.87-2-1.07-4.94-1.11-14.17-1.34-20.03-2.25-10.69-1.65-28.56-5.55-6.92-9.24,14.05-2.39,52.91-1.59,61.34-5.95.87-.45,1.21-1.58,1.93-1.7,2.26-.36,13.33-.43,14.07,1.3,2.01,4.74-14.75,6.7-19.46,7.2-12.08,1.28-24.77.85-36.56,2.88-1.83.86.94,2.26,2.48,2.18l67.59,4.98-.71-1.67-60.25-4.03c-.17-1.24-.1-.79,1.1-.93,12.35-1.49,34.38-.56,44.68-5.32,4.02-1.85,3.6-3.57,3.43-6.57h42.97c4.31-3.18-8.29-1.37-9.18-1.9ZM23.51,140.18c-.03-2.52,5.41-.86,7.19-1.53.35-.13,3.33-4.07,4.56-3.22-1.28,4.07-5.66,5.32-11.75,4.75ZM32.32,146.36c-.8-.56,6.45-7.56,7.47-8.71,1.47-1.65,2.58-3.9,4.14-5.4.64-.61.83-1.3,2.34-1.09,1.15.79-9.3,12.87-11.37,14.26-.77.51-1.29,1.11-2.58.94ZM43.34,145.89c1.96-3.49,2.07-7.78,3.65-11.18.32-.69-.42-.83,1.49-.7l3.67,11.88h-8.81ZM116.06,145.89c1.6-3.5,2.43-7.13,3.68-10.69.26-.74-.49-.83,1.45-.71l3.69,11.4h-8.81ZM130.88,143.19c-3.39-3.29-7.32-8.14-8.2-12.03l13.95,14.73c-2.96.45-4.34-1.32-5.75-2.69Z"/>
    <path d="M15.93,76.4c1.91-.24,1.16-.04,1.55.62,9.15,15.32,22.69,26.78,48.31,31.18,1.61,1.33-4.21,8.33-15.82,8.38-23.27.04-46.19-17.55-34.05-40.19Z"/>
    <path d="M153.91,75.92c-1.92-.2-1.16-.01-1.52.65-8.36,15.51-21.31,27.25-46.69,32.2-1.54,1.36,4.63,8.24,16.24,8.04,23.26-.46,45.27-18.53,31.97-40.89Z"/>
    <path d="M85.1,63.67c7.02-3.63,13.03-8.1,17.49-13.01,1.94-2.14,3.14-4.41,4.77-6.63.27-.37.17-.6.36-.66,7-16.22-2.06-32.9-22.06-43.36-28.47,19.55-32.89,44.5-2.28,62.68.59.35,1.17.68,1.73.99Z"/>
    <path d="M70.87,104.07c-8.35-2.16-16.1-5.31-22.57-9.17-2.82-1.68-4.98-3.63-7.54-5.45-.42-.3-.43-.54-.64-.57-13.97-14.21-12.78-31.87,1.67-45.64,36.01,13.36,51.43,36.42,30.29,59.56-.41.45-.81.87-1.21,1.27Z"/>
    <path d="M98.95,104.32c8.36-2.15,16.12-5.29,22.6-9.15,2.82-1.68,5-3.63,7.55-5.44.43-.3.43-.54.65-.57,14.02-14.19,12.87-31.85-1.53-45.64-36.05,13.32-51.54,36.35-30.47,59.52.41.45.81.87,1.21,1.27Z"/>
    <path d="M86.51,115.61l-13.08-10.34,3.54.21c1.06.06,2.05.38,2.67.87l10.24,8.09-3.36,1.17Z"/>
    <path d="M83.98,115.49l13.08-10.34-3.54.21c-1.06.06-2.05.38-2.67.87l-10.24,8.09,3.36,1.17Z"/>
  </g>
</svg>