<?xml version="1.0" encoding="UTF-8"?>
<svg xmlns="http://www.w3.org/2000/svg" version="1.1" viewBox="0 0 1000 1000">
  <!-- Generator: Adobe Illustrator 29.8.3, SVG Export Plug-In . SVG Version: 2.1.1 Build 3)  -->
  <defs>
    <style>
      .st0, .st1, .st2, .st3, .st4, .st5, .st6 {
        display: none;
      }

      .st0, .st1, .st3, .st7 {
        stroke: #231815;
      }

      .st0, .st1, .st3, .st7, .st6 {
        stroke-miterlimit: 10;
      }

      .st0, .st3 {
        fill: #e7222c;
      }

      .st8 {
        fill: #fff;
      }

      .st1, .st2, .st9, .st7 {
        fill: #231815;
      }

      .st10, .st5, .st6 {
        fill: none;
      }

      .st3, .st7, .st6 {
        stroke-width: 5px;
      }

      .st11 {
        fill: #e63510;
      }

      .st12 {
        fill: #e0af4e;
      }

      .st6 {
        stroke: #e63510;
      }
    </style>
  </defs>
  <g id="_レイヤー_2" data-name="レイヤー_2">
    <rect class="st1" x="338.89" y="167" width="307.17" height="316.6"/>
    <polygon class="st5" points="492.84 180.02 349.39 459.85 645.67 462.04 492.84 180.02"/>
    <ellipse class="st2" cx="492.48" cy="354.72" rx="136.51" ry="145.36"/>
    <path class="st9" d="M500,811.36c61.99,0,122.04,3.27,179.16,9.38,13.64,1.46,26.88-5.11,33.9-16.87l120.45-201.91c6.59-11.04,6.57-24.8-.04-35.83L527.07,55.01c-13.62-22.73-46.65-22.69-60.23.06l-300.34,503.49c-6.59,11.04-6.57,24.8.04,35.83l125.31,209.04c7.01,11.69,20.18,18.23,33.76,16.82,55.69-5.79,114.12-8.89,174.39-8.89Z"/>
    <g>
      <path class="st12" d="M223.61,844.51h46.33c20.94,0,35.67,11.24,35.67,30.98,0,24.41-18.34,36.03-46.15,36.03h-27.27l-7.13,35.66h-23.2l21.76-102.68ZM236.22,892.93h22.71c14.16,0,22.9-4.54,22.88-16.35-.02-8.57-5.4-13.59-17.96-13.59h-21.23l-6.41,29.94Z"/>
      <path class="st12" d="M341.35,907.42l-8.41,39.77h-23.07l21.76-102.68h48.91c19.55,0,33.81,9.96,33.79,27.27-.02,15.21-9.66,23.16-21.07,27.15,3.05,1.42,11.79,6.77,8.13,24.32-2.57,11.18-3.35,19.21-2.55,23.93h-23.23c-.69-4.55-.63-10.57,2.29-23.33,2.38-11.4.46-16.44-10.75-16.44h-25.8ZM345.25,888.95h24.17c10.17,0,20.12-2.99,20.12-14.4,0-7.36-5.05-11.57-14.87-11.57h-24.01l-5.41,25.97Z"/>
      <path class="st12" d="M464.85,844.51l-21.76,102.68h-23.45l21.76-102.68h23.45Z"/>
      <path class="st12" d="M568.39,907.81c3.71-17.7,8.36-36.12,11.39-47.5h-.15c-8.27,18.76-25.12,49.14-44.65,86.88h-21.02c-2.24-31.17-5.3-67.49-6.22-86.86h-.15c-1.75,11.99-5.15,31.94-8.79,49.44l-7.94,37.42h-21.51l21.76-102.68h34.25c2.48,29.1,6.21,63.9,6.22,72.88h.15c5.54-11.84,22.95-43.47,38.57-72.88h34.65l-21.76,102.68h-23.09l8.28-39.38Z"/>
      <path class="st12" d="M653.09,844.51l-12.59,59.01c-4.63,21.43,5.78,27.23,18.6,27.23,13.96,0,21.68-4.28,26.48-27.08l12.62-59.17h23.34l-12.99,60.77c-7.13,33.24-20.83,44.1-52.52,44.1-23.73,0-46.77-9.44-38.76-47.07l12.35-57.8h23.47Z"/>
      <path class="st12" d="M745.02,915.78c2,10.21,10.25,15.91,24.7,15.91,11.91,0,21.47-3.32,21.47-13.08,0-7.14-4.76-10.76-21.66-15.15-26.42-6.86-36.28-14.01-36.28-28.42,0-18.68,15.7-32.72,43.68-32.72,34.22,0,43.05,17.87,43.74,30.35h-23.2c-1.05-5.74-5.42-12.91-22.08-12.91-10.91,0-17.12,4.92-17.12,11.76s5.22,9.03,22.03,13.21c29.07,7.33,35.66,17.26,35.66,31.06,0,18.73-15.56,33.58-48.4,33.58-28,0-44.16-11.53-45.92-33.59h23.36Z"/>
    </g>
    <text/>
  </g>
  <g id="_レイヤー_3" data-name="レイヤー_3">
    <g class="st4">
      <polygon class="st12" points="479.23 436.26 434.49 420.86 406.02 458.64 433.16 497.4 478.4 483.57 479.23 436.26"/>
      <polygon class="st12" points="501.88 436.26 546.61 420.86 575.09 458.64 547.95 497.4 502.7 483.57 501.88 436.26"/>
      <rect class="st7" x="489.51" y="415.9" width="111.94" height="44.66" transform="translate(-67.81 101.38) rotate(-10)"/>
      <rect class="st7" x="375.5" y="415.9" width="111.94" height="44.66" transform="translate(82.65 -68.27) rotate(10)"/>
      <line class="st10" x1="570.15" y1="463.03" x2="413.94" y2="463.03"/>
    </g>
    <g>
      <path class="st12" d="M652.25,744.46l-125.85,14.63c-.98.11-1.33-1.54-.43-2.03l62.65-34.02c.09-.05.18-.08.27-.09l125.85-14.63c.98-.11,1.33,1.54.43,2.03l-62.65,34.02c-.09.05-.18.08-.27.09Z"/>
      <path class="st12" d="M347.75,746.11l125.85,14.63c.98.11,1.33-1.54.43-2.03l-62.65-34.02c-.09-.05-.18-.08-.27-.09l-125.85-14.63c-.98-.11-1.33,1.54-.43,2.03l62.65,34.02c.09.05.18.08.27.09Z"/>
    </g>
    <g>
      <path class="st8" d="M715.39,640.64c-40.54-55.48-121.96-93.38-215.81-93.38s-174.15,37.37-214.98,92.26c.76-48.83,39.47-91.71,97.76-116.59l-51.34-120-10.06-86.94,48.07,73.1,37.59,124.89c20.95-6.6,43.78-11.06,67.83-12.92l-14.99-258.78,40.54-165.14,40.54,165.14-14.99,258.78c23.86,1.86,46.5,6.24,67.31,12.75l37.61-124.72,48.17-73.1-10.08,86.94-51.38,119.81c58.99,25.05,98.05,68.5,98.22,117.9Z"/>
      <path class="st12" d="M715.39,640.64c-40.54-55.48-121.96-93.38-215.81-93.38s-174.15,37.37-214.98,92.26c.76-48.83,39.47-91.71,97.76-116.59l-51.34-120-10.06-86.94,48.07,73.1,37.59,124.89c20.95-6.6,43.78-11.06,67.83-12.92l-14.99-258.78,40.54-165.14,40.54,165.14-14.99,258.78c23.86,1.86,46.5,6.24,67.31,12.75l37.61-124.72,48.17-73.1-10.08,86.94-51.38,119.81c58.99,25.05,98.05,68.5,98.22,117.9Z"/>
    </g>
    <circle class="st3" cx="492.48" cy="407.74" r="3.54"/>
    <circle class="st0" cx="492.48" cy="407.74" r="2.5"/>
    <circle class="st6" cx="492.48" cy="407.48" r="1.56"/>
    <rect class="st11" x="678.01" y="491.22" width="0" height="1.36"/>
    <circle class="st8" cx="500" cy="600.13" r="20.52"/>
  </g>
</svg>