<?xml version="1.0" encoding="utf-8"?>
<!-- Generator: Adobe Illustrator 15.1.0, SVG Export Plug-In . SVG Version: 6.00 Build 0)  -->
<!DOCTYPE svg PUBLIC "-//W3C//DTD SVG 1.1//EN" "http://www.w3.org/Graphics/SVG/1.1/DTD/svg11.dtd">
<svg version="1.1" xmlns="http://www.w3.org/2000/svg" xmlns:xlink="http://www.w3.org/1999/xlink" x="0px" y="0px"
	 width="1639.085px" height="500px" viewBox="0 0 1639.085 500" enable-background="new 0 0 1639.085 500" xml:space="preserve">
<g id="レイヤー_1">
	<g>
		<g>
			<path fill="#662D91" d="M261.885,260.122l-28.765-8.521l8.521-28.765l50.224-169.549c-89.308-5.224-173.72,51.286-200.224,140.76
				c-30.901,104.319,28.616,213.938,132.935,244.839c4.839,1.434,9.689,2.671,14.543,3.72l51.531-173.964L261.885,260.122z
				 M169.527,374.742c-46.751-41.73-68.069-108.212-49.122-172.173c18.947-63.962,73.034-108.107,134.97-117.642L169.527,374.742z"
				/>
			<path fill="#662D91" d="M336.479,61.113c-4.839-1.434-9.689-2.67-14.543-3.719l-51.531,173.964l28.765,8.521l28.765,8.521
				l-8.521,28.765L269.19,446.712c89.309,5.224,173.72-51.286,200.224-140.76C500.316,201.632,440.799,92.014,336.479,61.113z
				 M416.748,210.085c-3.44-11.656-8.316-22.749-14.484-33.049l-59.38,200.46c10.782-5.279,20.914-11.928,30.147-19.828
				c5.514-4.718,10.619-9.83,15.297-15.279l-17.557-24.479l20.374-14.486l27.272,38.023l-0.161,0.114l1.006,1.415
				c-26.176,39-67.727,65.037-113.584,72.097l85.85-289.816c46.75,41.73,68.068,108.212,49.122,172.174
				c-2.188,7.383-4.849,14.498-7.931,21.33l-17.324-24.365c0.443-1.349,0.88-2.7,1.284-4.065
				C424.463,264.054,424.487,236.305,416.748,210.085z"/>
		</g>
		<g>
			<path fill="#662D91" d="M507.579,141.653c14.969-2.771,34.372-4.435,55.161-4.435c35.48,0,59.597,7.484,77.337,22.175
				c20.234,16.632,32.153,42.965,32.153,81.494c0,45.732-15.8,72.341-32.153,87.033c-19.403,17.463-49.063,26.057-86.207,26.057
				c-19.681,0-35.48-1.387-46.291-2.773V141.653z M548.326,320.436c4.158,0.832,10.257,0.832,15.8,0.832
				c39.084,0.277,65.141-23.838,65.141-79.826c0-48.231-23.562-72.069-61.537-72.069c-8.593,0-14.968,0.831-19.403,1.663V320.436z"
				/>
			<path fill="#662D91" d="M721.291,177.411c-13.028,0-21.898-9.424-21.898-21.897c0-12.751,9.147-21.898,21.898-21.898
				c13.306,0,22.176,9.147,22.176,21.898C743.467,168.818,734.042,177.411,721.291,177.411z M742.08,352.035h-41.023V197.646h41.023
				V352.035z"/>
			<path fill="#662D91" d="M911.164,197.923c-0.832,11.087-1.386,24.67-1.386,46.014v87.032c0,30.215-2.772,86.207-77.891,86.207
				c-18.018,0-36.59-3.604-48.786-10.533l8.039-31.322c9.146,4.988,23.561,9.979,39.915,9.979c23.007,0,38.253-13.027,38.253-42.688
				v-11.365h-0.555c-7.762,12.197-21.621,19.682-38.529,19.682c-36.59,0-59.597-32.986-59.597-75.119
				c0-50.999,29.659-81.211,63.754-81.211c19.403,0,31.877,9.424,38.807,21.62h0.555l1.663-18.294H911.164z M868.754,257.797
				c0-19.681-11.919-31.046-25.779-31.046c-18.571,0-31.045,18.85-31.045,47.949c0,26.887,11.365,45.182,30.769,45.182
				c9.424,0,26.056-6.098,26.056-32.154V257.797z"/>
			<path fill="#662D91" d="M967.152,177.411c-13.028,0-21.898-9.424-21.898-21.897c0-12.751,9.147-21.898,21.898-21.898
				c13.306,0,22.176,9.147,22.176,21.898C989.328,168.818,979.903,177.411,967.152,177.411z M987.941,352.035h-41.023V197.646
				h41.023V352.035z"/>
			<path fill="#662D91" d="M1155.917,174.362h-52.667v177.673h-41.024V174.362h-52.389v-35.48h146.08V174.362z"/>
			<path fill="#662D91" d="M1262.076,234.235c-3.049-0.555-6.375-0.831-10.533-0.831c-18.572,0-32.709,12.474-32.709,38.803v79.828
				h-41.023V245.877c0-19.127-0.555-34.372-1.109-48.231h35.203l1.663,26.888h1.109c7.207-19.958,23.838-30.214,38.252-30.214
				c3.881,0,6.376,0.277,9.147,0.831V234.235z"/>
			<path fill="#662D91" d="M1400.113,315.445c0,13.584,0.554,27.166,2.217,36.59h-36.866l-2.495-16.076h-0.831
				c-8.87,12.195-23.839,19.125-41.024,19.125c-28.551,0-46.291-21.344-46.291-46.291c0-39.633,35.203-58.204,84.267-58.204
				c0-15.245-5.267-26.888-27.72-26.888c-14.137,0-27.996,4.436-37.975,10.533l-7.762-26.61
				c10.256-6.098,29.383-13.027,53.498-13.027c47.954,0,60.982,30.49,60.982,64.307V315.445z M1360.197,276.916
				c-22.175,0-45.182,5.268-45.182,27.719c0,14.691,9.146,21.068,19.403,21.068c9.701,0,25.778-6.93,25.778-26.611V276.916z"/>
			<path fill="#662D91" d="M1456.933,177.411c-13.028,0-21.898-9.424-21.898-21.897c0-12.751,9.147-21.898,21.898-21.898
				c13.306,0,22.176,9.147,22.176,21.898C1479.108,168.818,1469.684,177.411,1456.933,177.411z M1477.722,352.035h-41.023V197.646
				h41.023V352.035z"/>
			<path fill="#662D91" d="M1555.609,352.035h-41.023V129.179h41.023V352.035z"/>
		</g>
	</g>
</g>
<g id="レイヤー_2">
</g>
</svg>
