<?xml version="1.0" encoding="UTF-8"?>
<svg id="_レイヤー_1" data-name="レイヤー_1" xmlns="http://www.w3.org/2000/svg" version="1.1" viewBox="0 0 307.92 326.56">
  <!-- Generator: Adobe Illustrator 30.0.0, SVG Export Plug-In . SVG Version: 2.1.1 Build 123)  -->
  <defs>
    <style>
      .st0 {
        fill: #2ea0d7;
      }
    </style>
  </defs>
  <path class="st0" d="M22.15,118.42c.98.08,2.07-1.02,4.18-2.44,3.53-2.57,8.38-6.36,12.05-8.73,22.41-13.14,48.8,9.21,54.85,31.18.31.8.42,1.35.92,1.56,1.59-.29,1.48-5.49,1.1-7.23-1.25-7.8-6.73-17.41-7.39-20.29-.71-3.44,9.88-.07,11.93.31,5.81,1.47,12.54,3.72,17.99,4.96.81.2,1.16.19,1.5.83,1.27,3.15,9.76,25.82,11.1,29.25.32.8.72.63,2.2-.13,4.69-2.61,11.02-7.18,15.76-10.1,2.04-1.07,3.24-2.43,5.28-2.25,3.8.8,18.26,11.73,21.56,12.06,1.55-.03,1.73-1.7,2.42-3.09,3.1-7.76,4.85-19.87,8.67-26.85,4.03-2.81,24.08-7.95,29.49-8.78,1.5-.17,1.35.41.87,2.43-.19.69-.37,1.38-.6,2.11-1.77,6.66-7.82,22.08-4.02,26.94.37.07.71-.64.99-1.75,5.36-24.17,27.96-44.98,52.99-34.86,4.64,1.64,8.32,5.2,12.2,8.36,1.29,1.07,2.48,2.05,3.38,2.73,1.88,1.46,2.2,1.25,2.71.29,3.88-11.73,2.28-50.71-.59-64.05-.3-2.07-1.51-3.17-3.43-4.82-5.45-4.42-13-10.13-19.04-14.16C187.97-17.73,85.87-7.95,21.55,51.02c-.82.81-1.27,1.22-1.65,2.13-1.75,4.63-2.18,30.57-1.99,38.4.08,2.13.18,3.44.44,5.89.88,7.09,1.87,18.96,3.75,20.97l.05.02Z"/>
  <path class="st0" d="M232.29,168.83c-.12-.98-1.15-2.13-2.79-3.61-2.48-2.19-6.14-5.22-8.87-7.11-2.04-1.39-3.96-2.33-6.35-2.2-8.91.76-20.25,10.53-29.85,4.83-7.41-3.34-15.92-8.53-23.03-12.2-3.53-1.8-5.92-2.96-8.18-2.92-5.75.58-12.11,5.34-17.73,8.47-6.29,3.44-12.03,8.18-18.97,9.41-8.18.61-18.01-6.76-25.64-5.84-5.08,1.13-9.08,6.03-12.9,9.37-2.94,3-4.8,4.81-.63,7.47,4.83,3.32,13.79,8.54,18.64,12.93,3.7,3.32,5.18,6.9,7.25,11.14,8.55,18.48,16.87,43.83,23.43,60.28,5.81,13.06,11.67,26.43,17.09,39.67,2.78,7.61,5.56,15.06,9.06,22.49,1.62,3.39,3.4,8.67,5.85,2.02,15.33-43.21,32.17-87.23,48.71-130.11,3.62-9.89,15.83-15.27,23.01-21.22.89-.75,1.95-1.57,1.9-2.76v-.09Z"/>
  <path class="st0" d="M53.54,166.67c-5.15-2.8-16.71-8.72-22.03-5.17C29.19,163.06-.11,205.01,0,207.8c.28,6.79,44.55,19.51,51.93,20.16,6.99.61,47.05-2.01,50.16-7.22.76-1.28-10.29-24.94-12.16-27.16-2.87-3.39-31.66-24.33-36.39-26.91Z"/>
  <path class="st0" d="M271.92,156.73c-4.1-.23-15.34,5.65-19.28,7.95-5.08,2.96-31.82,22.97-34.79,26.7-2.09,2.62-11.56,25.9-10.47,27.61,3.81,5.98,40.23,7.04,47.88,6.17,8.68-.99,49.5-13.63,52.64-20.66,1.22-2.73-32.99-47.59-35.97-47.76Z"/>
  <path class="st0" d="M226.89,122.21c-30.23,25.73,15.3,48.84,29.53,22.73,8.66-15.89-3.38-40.06-22.29-30.86-.19,3.12,3.57,1.27,5.9,3.58,10.83,10.73-13.33,22.36-13.14,4.55Z"/>
  <path class="st0" d="M70.44,117.67c2-4.95-14.31-4.52-20.3,5.48-11.93,19.94,8.3,43.18,30.14,32.84,11.3-5.35,10.03-12.31,5.95-22-8.94-21.28-3.92,4.35-18.11-.87-14.28-5.25,1.93-14.5,2.32-15.46Z"/>
</svg>