<?xml version="1.0" encoding="UTF-8"?>
<svg id="_ベクターレイヤー" data-name="ベクターレイヤー" xmlns="http://www.w3.org/2000/svg" viewBox="0 0 1043.52 371.04">
  <g>
    <path d="M162.47,317.09h8.11v34.94h-8.11v-3.66c-3.32,3.11-6.9,4.66-10.73,4.66-4.83,0-8.82-1.75-11.98-5.24-3.13-3.56-4.7-8.01-4.7-13.34s1.57-9.6,4.7-13.09c3.13-3.49,7.05-5.24,11.77-5.24,4.06,0,7.71,1.67,10.94,5.02v-4.05ZM143.31,334.45c0,3.35.9,6.07,2.69,8.18,1.84,2.13,4.16,3.19,6.96,3.19,2.99,0,5.4-1.03,7.25-3.09,1.84-2.13,2.76-4.83,2.76-8.11s-.92-5.98-2.76-8.11c-1.84-2.08-4.23-3.12-7.17-3.12-2.77,0-5.09,1.05-6.96,3.16-1.84,2.13-2.76,4.76-2.76,7.89Z"/>
    <path d="M179.83,317.09h8.07v3.12c1.48-1.55,2.8-2.62,3.95-3.19,1.17-.6,2.56-.9,4.16-.9,2.13,0,4.35.69,6.67,2.08l-3.69,7.39c-1.53-1.1-3.03-1.65-4.48-1.65-4.4,0-6.6,3.33-6.6,9.97v18.12h-8.07v-34.94Z"/>
    <path d="M217.21,324.62v27.41h-8.07v-27.41h-3.44v-7.53h3.44v-12.81h8.07v12.81h6.28v7.53h-6.28Z"/>
    <path d="M274.97,321.22l9.97,12.05.32-.36c1.08-1.17,2.09-2.32,3.05-3.44.96-1.12,1.88-2.26,2.76-3.41l5.45,5.6c-.67.96-1.55,2.07-2.64,3.34s-2.38,2.73-3.89,4.38l10.26,12.66h-10.4l-5.52-6.78c-5.07,5.24-10.34,7.86-15.82,7.86-4.9,0-9.06-1.57-12.48-4.7-3.35-3.16-5.02-7.05-5.02-11.69,0-5.53,2.65-10.12,7.96-13.78l3.62-2.47s.13-.08.25-.18c.12-.1.29-.23.5-.39-3.66-3.9-5.49-7.74-5.49-11.51s1.22-6.77,3.66-9.11c2.49-2.34,5.69-3.52,9.61-3.52s6.95,1.13,9.43,3.41c2.49,2.27,3.73,5.14,3.73,8.61,0,2.39-.68,4.56-2.04,6.49-1.34,1.94-3.77,4.26-7.28,6.96ZM268.33,325.92l-.47.32c-3.42,2.37-5.75,4.27-7,5.7-1.22,1.44-1.83,2.96-1.83,4.56,0,2.29.92,4.4,2.76,6.31,1.91,1.84,4.02,2.76,6.31,2.76,3.23,0,6.95-2.12,11.16-6.35l-10.94-13.31ZM270.12,315.33l.68-.5c1.17-.88,2.14-1.65,2.91-2.31s1.32-1.21,1.65-1.67c.72-.88,1.08-1.97,1.08-3.27,0-1.46-.49-2.64-1.47-3.55-.98-.91-2.3-1.36-3.95-1.36-1.51,0-2.78.47-3.8,1.4-1.03.88-1.54,2.02-1.54,3.41,0,1.63.65,3.23,1.94,4.81l2.08,2.51c.07.12.22.3.43.54Z"/>
    <path d="M355.21,318.6v10.72c-1.84-2.25-3.49-3.79-4.95-4.63-1.44-.86-3.12-1.29-5.06-1.29-3.04,0-5.56,1.06-7.57,3.19s-3.01,4.79-3.01,8,.97,5.97,2.91,8.07c1.96,2.1,4.46,3.16,7.5,3.16,1.94,0,3.65-.42,5.13-1.26,1.43-.81,3.12-2.39,5.06-4.73v10.65c-3.28,1.7-6.55,2.55-9.83,2.55-5.4,0-9.92-1.75-13.56-5.24-3.64-3.52-5.45-7.88-5.45-13.09s1.84-9.61,5.52-13.2c3.68-3.59,8.2-5.38,13.56-5.38,3.44,0,6.7.82,9.76,2.47Z"/>
    <path d="M360.9,334.31c0-5.04,1.81-9.34,5.42-12.88,3.61-3.54,8.01-5.31,13.2-5.31s9.64,1.78,13.27,5.34c3.59,3.56,5.38,7.94,5.38,13.13s-1.81,9.63-5.42,13.17c-3.64,3.52-8.09,5.27-13.38,5.27s-9.63-1.79-13.17-5.38c-3.54-3.54-5.31-7.99-5.31-13.35ZM369.15,334.45c0,3.49.93,6.25,2.8,8.29,1.91,2.06,4.44,3.09,7.57,3.09s5.68-1.02,7.57-3.05c1.89-2.03,2.83-4.75,2.83-8.14s-.95-6.11-2.83-8.14c-1.91-2.05-4.44-3.08-7.57-3.08s-5.58,1.03-7.5,3.08c-1.91,2.06-2.87,4.71-2.87,7.96Z"/>
    <path d="M413.98,324.62v27.41h-8.11v-27.41h-2.87v-7.53h2.87v-13.49c0-4.4.76-7.51,2.29-9.33,2.1-2.54,5.17-3.8,9.18-3.8,1.44,0,3.24.42,5.42,1.26v8.25l-.82-.43c-1.75-.88-3.18-1.33-4.3-1.33-1.44,0-2.4.51-2.91,1.54-.5,1-.75,2.94-.75,5.81v11.52h8.79v7.53h-8.79Z"/>
    <path d="M437.01,324.62v27.41h-8.11v-27.41h-2.87v-7.53h2.87v-13.49c0-4.4.76-7.51,2.29-9.33,2.1-2.54,5.17-3.8,9.18-3.8,1.44,0,3.24.42,5.42,1.26v8.25l-.82-.43c-1.75-.88-3.18-1.33-4.3-1.33-1.44,0-2.4.51-2.91,1.54-.5,1-.75,2.94-.75,5.81v11.52h8.79v7.53h-8.79Z"/>
    <path d="M482,336.46h-25.04c.21,2.87,1.15,5.15,2.8,6.85,1.65,1.67,3.77,2.51,6.35,2.51,2.01,0,3.67-.48,4.99-1.44,1.29-.96,2.76-2.73,4.41-5.31l6.82,3.8c-1.05,1.79-2.17,3.33-3.34,4.61-1.17,1.28-2.43,2.33-3.77,3.16-1.34.83-2.79,1.43-4.34,1.81-1.55.38-3.24.57-5.06.57-5.21,0-9.4-1.67-12.56-5.02-3.16-3.37-4.73-7.84-4.73-13.42s1.53-10,4.59-13.42c3.08-3.37,7.17-5.06,12.27-5.06s9.21,1.64,12.2,4.91c2.97,3.25,4.45,7.76,4.45,13.52l-.04,1.9ZM473.72,329.86c-1.12-4.3-3.84-6.46-8.14-6.46-.98,0-1.9.15-2.76.45-.86.3-1.64.73-2.35,1.29-.71.56-1.31,1.24-1.81,2.03-.5.79-.88,1.69-1.15,2.69h16.21Z"/>
    <path d="M521.6,336.46h-25.04c.21,2.87,1.15,5.15,2.8,6.85,1.65,1.67,3.77,2.51,6.35,2.51,2.01,0,3.67-.48,4.99-1.44,1.29-.96,2.76-2.73,4.41-5.31l6.82,3.8c-1.05,1.79-2.17,3.33-3.34,4.61-1.17,1.28-2.43,2.33-3.77,3.16-1.34.83-2.79,1.43-4.34,1.81-1.55.38-3.24.57-5.06.57-5.21,0-9.4-1.67-12.56-5.02-3.16-3.37-4.73-7.84-4.73-13.42s1.53-10,4.59-13.42c3.08-3.37,7.17-5.06,12.27-5.06s9.21,1.64,12.2,4.91c2.97,3.25,4.45,7.76,4.45,13.52l-.04,1.9ZM513.31,329.86c-1.12-4.3-3.84-6.46-8.14-6.46-.98,0-1.9.15-2.76.45-.86.3-1.64.73-2.35,1.29-.71.56-1.31,1.24-1.81,2.03-.5.79-.88,1.69-1.15,2.69h16.21Z"/>
    <path d="M561.45,324.62v27.41h-8.11v-27.41h-2.87v-7.53h2.87v-13.49c0-4.4.76-7.51,2.29-9.33,2.1-2.54,5.17-3.8,9.18-3.8,1.44,0,3.24.42,5.42,1.26v8.25l-.82-.43c-1.75-.88-3.18-1.33-4.3-1.33-1.44,0-2.4.51-2.91,1.54-.5,1-.75,2.94-.75,5.81v11.52h8.79v7.53h-8.79Z"/>
    <path d="M572.74,334.31c0-5.04,1.8-9.34,5.42-12.88s8.01-5.31,13.2-5.31,9.64,1.78,13.27,5.34c3.59,3.56,5.38,7.94,5.38,13.13s-1.81,9.63-5.42,13.17c-3.64,3.52-8.1,5.27-13.38,5.27s-9.62-1.79-13.16-5.38c-3.54-3.54-5.31-7.99-5.31-13.35ZM580.99,334.45c0,3.49.93,6.25,2.8,8.29,1.91,2.06,4.44,3.09,7.57,3.09s5.68-1.02,7.57-3.05,2.83-4.75,2.83-8.14-.95-6.11-2.83-8.14c-1.91-2.05-4.44-3.08-7.57-3.08s-5.58,1.03-7.5,3.08c-1.91,2.06-2.87,4.71-2.87,7.96Z"/>
    <path d="M617.49,317.09h8.07v3.12c1.48-1.55,2.8-2.62,3.95-3.19,1.17-.6,2.56-.9,4.16-.9,2.13,0,4.35.69,6.67,2.08l-3.7,7.39c-1.53-1.1-3.03-1.65-4.48-1.65-4.4,0-6.6,3.33-6.6,9.97v18.12h-8.07v-34.94Z"/>
    <path d="M678.66,345.54l-15.71-28.45h9.36l10.69,20.09,9.97-20.09h9.11l-27.84,53.95h-9.22l13.63-25.5Z"/>
    <path d="M714.98,317.09v20.05c0,5.79,2.28,8.68,6.85,8.68s6.85-2.89,6.85-8.68v-20.05h8.07v20.23c0,2.8-.35,5.21-1.04,7.25-.67,1.82-1.83,3.46-3.48,4.91-2.73,2.37-6.19,3.55-10.4,3.55s-7.64-1.19-10.37-3.55c-1.67-1.46-2.86-3.1-3.55-4.91-.67-1.62-1-4.04-1-7.25v-20.23h8.07Z"/>
    <path d="M745.9,317.09h8.07v3.12c1.48-1.55,2.8-2.62,3.95-3.19,1.17-.6,2.56-.9,4.16-.9,2.13,0,4.35.69,6.67,2.08l-3.7,7.39c-1.53-1.1-3.03-1.65-4.48-1.65-4.4,0-6.6,3.33-6.6,9.97v18.12h-8.07v-34.94Z"/>
    <path d="M781.25,317.09v20.05c0,5.79,2.28,8.68,6.85,8.68s6.85-2.89,6.85-8.68v-20.05h8.07v20.23c0,2.8-.35,5.21-1.04,7.25-.67,1.82-1.83,3.46-3.48,4.91-2.73,2.37-6.19,3.55-10.4,3.55s-7.64-1.19-10.37-3.55c-1.67-1.46-2.86-3.1-3.55-4.91-.67-1.62-1-4.04-1-7.25v-20.23h8.07Z"/>
    <path d="M812.16,317.09h8.07v3.23c1.55-1.62,2.88-2.72,3.98-3.3,1.17-.6,2.64-.9,4.41-.9,3.95,0,7.07,1.72,9.36,5.16,2.54-3.44,5.97-5.16,10.3-5.16,7.87,0,11.8,4.77,11.8,14.31v21.59h-8.11v-19.41c0-3.35-.41-5.71-1.22-7.1-.84-1.41-2.21-2.12-4.12-2.12-2.22,0-3.84.84-4.86,2.51-1.02,1.67-1.52,4.36-1.52,8.07v18.04h-8.11v-19.3c0-6.22-1.79-9.33-5.38-9.33-2.27,0-3.93.85-4.97,2.55-1.04,1.7-1.56,4.38-1.56,8.04v18.04h-8.07v-34.94Z"/>
    <path d="M868.01,302.56c0-1.41.51-2.63,1.54-3.66,1.03-1.03,2.26-1.54,3.69-1.54s2.7.52,3.73,1.54c1.03,1,1.54,2.24,1.54,3.7s-.51,2.7-1.54,3.73c-1,1.03-2.24,1.54-3.69,1.54s-2.7-.51-3.73-1.54-1.54-2.28-1.54-3.77ZM877.3,317.09v34.94h-8.07v-34.94h8.07Z"/>
    <path d="M918.51,324.62v27.41h-8.07v-27.41h-3.44v-7.53h3.44v-12.81h8.07v12.81h6.28v7.53h-6.28Z"/>
    <path d="M928.46,302.56c0-1.41.51-2.63,1.54-3.66,1.03-1.03,2.26-1.54,3.69-1.54s2.7.52,3.73,1.54c1.03,1,1.54,2.24,1.54,3.7s-.51,2.7-1.54,3.73c-1,1.03-2.24,1.54-3.69,1.54s-2.7-.51-3.73-1.54-1.54-2.28-1.54-3.77ZM937.75,317.09v34.94h-8.07v-34.94h8.07Z"/>
    <path d="M947.1,317.09h8.07v3.23c1.55-1.62,2.88-2.72,3.98-3.3,1.17-.6,2.64-.9,4.41-.9,3.95,0,7.07,1.72,9.36,5.16,2.54-3.44,5.97-5.16,10.3-5.16,7.87,0,11.8,4.77,11.8,14.31v21.59h-8.11v-19.41c0-3.35-.41-5.71-1.22-7.1-.84-1.41-2.21-2.12-4.12-2.12-2.22,0-3.84.84-4.86,2.51-1.02,1.67-1.52,4.36-1.52,8.07v18.04h-8.11v-19.3c0-6.22-1.79-9.33-5.38-9.33-2.27,0-3.93.85-4.97,2.55-1.04,1.7-1.56,4.38-1.56,8.04v18.04h-8.07v-34.94Z"/>
    <path d="M1035.98,336.46h-25.04c.22,2.87,1.15,5.15,2.8,6.85,1.65,1.67,3.77,2.51,6.35,2.51,2.01,0,3.67-.48,4.99-1.44,1.29-.96,2.76-2.73,4.41-5.31l6.82,3.8c-1.05,1.79-2.16,3.33-3.34,4.61s-2.43,2.33-3.77,3.16c-1.34.83-2.79,1.43-4.34,1.81-1.55.38-3.24.57-5.06.57-5.21,0-9.4-1.67-12.55-5.02-3.16-3.37-4.74-7.84-4.74-13.42s1.53-10,4.59-13.42c3.08-3.37,7.17-5.06,12.27-5.06s9.21,1.64,12.2,4.91c2.96,3.25,4.45,7.76,4.45,13.52l-.04,1.9ZM1027.69,329.86c-1.12-4.3-3.84-6.46-8.14-6.46-.98,0-1.9.15-2.76.45-.86.3-1.64.73-2.35,1.29-.71.56-1.31,1.24-1.81,2.03-.5.79-.88,1.69-1.15,2.69h16.21Z"/>
  </g>
  <g>
    <path d="M74.29,227.8L0,93.29h44.27l50.55,94.99,47.16-94.99h43.08L53.43,348.4H9.84l64.46-120.6Z"/>
    <path d="M249.18,93.29v94.82c0,27.37,10.8,41.05,32.4,41.05s32.4-13.68,32.4-41.05v-94.82h38.17v95.67c0,13.23-1.64,24.65-4.92,34.26-3.17,8.59-8.65,16.34-16.45,23.24-12.89,11.2-29.29,16.79-49.19,16.79s-36.13-5.6-49.02-16.79c-7.92-6.9-13.51-14.64-16.79-23.24-3.17-7.69-4.75-19.11-4.75-34.26v-95.67h38.17Z"/>
    <path d="M400.31,93.29h38.17v14.76c7.01-7.35,13.23-12.38,18.66-15.1,5.54-2.83,12.1-4.24,19.68-4.24,10.06,0,20.58,3.28,31.55,9.84l-17.47,34.94c-7.24-5.2-14.31-7.8-21.2-7.8-20.81,0-31.21,15.72-31.21,47.16v85.66h-38.17V93.29Z"/>
    <path d="M573.66,93.29v94.82c0,27.37,10.8,41.05,32.4,41.05s32.4-13.68,32.4-41.05v-94.82h38.17v95.67c0,13.23-1.64,24.65-4.92,34.26-3.17,8.59-8.65,16.34-16.45,23.24-12.89,11.2-29.29,16.79-49.19,16.79s-36.13-5.6-49.02-16.79c-7.92-6.9-13.51-14.64-16.79-23.24-3.17-7.69-4.75-19.11-4.75-34.26v-95.67h38.17Z"/>
    <path d="M724.8,93.29h38.17v15.27c7.35-7.69,13.62-12.89,18.83-15.61,5.54-2.83,12.49-4.24,20.86-4.24,18.66,0,33.42,8.14,44.27,24.43,11.98-16.28,28.21-24.43,48.68-24.43,37.2,0,55.81,22.56,55.81,67.68v102.11h-38.33v-91.77c0-15.83-1.92-27.03-5.77-33.59-3.96-6.67-10.46-10.01-19.51-10.01-10.52,0-18.18,3.96-22.98,11.87-4.81,7.92-7.21,20.64-7.21,38.17v85.32h-38.33v-91.26c0-29.4-8.48-44.1-25.44-44.1-10.75,0-18.57,4.02-23.49,12.04-4.92,8.03-7.38,20.69-7.38,38v85.32h-38.17V93.29Z"/>
    <path d="M993.82,24.6c0-6.67,2.43-12.44,7.29-17.3,4.86-4.86,10.69-7.29,17.47-7.29s12.78,2.43,17.64,7.29c4.86,4.75,7.29,10.57,7.29,17.47s-2.43,12.78-7.29,17.64c-4.75,4.86-10.57,7.29-17.47,7.29s-12.78-2.43-17.64-7.29c-4.86-4.86-7.29-10.8-7.29-17.81ZM1037.75,93.29v165.21h-38.17V93.29h38.17Z"/>
  </g>
</svg>