<?xml version="1.0" encoding="UTF-8"?>
<svg id="AI_x5F_画像_xA0_画像" xmlns="http://www.w3.org/2000/svg" version="1.1" viewBox="0 0 483.68 493.97">
  <!-- Generator: Adobe Illustrator 30.0.0, SVG Export Plug-In . SVG Version: 2.1.1 Build 123)  -->
  <defs>
    <style>
      .st0, .st1, .st2, .st3, .st4, .st5, .st6 {
        fill: none;
      }

      .st1 {
        stroke: #8c5738;
      }

      .st1, .st2, .st3, .st4, .st5, .st6 {
        stroke-linecap: round;
        stroke-linejoin: round;
      }

      .st2 {
        stroke: #fdfdfd;
      }

      .st3 {
        stroke: #fdfdfc;
      }

      .st4 {
        stroke: #fefefe;
      }

      .st7 {
        fill: #d8a2a6;
      }

      .st8 {
        fill: #fdfdfc;
      }

      .st5 {
        stroke: #040404;
      }

      .st9 {
        fill: #040404;
      }

      .st6 {
        stroke: #d8a2a6;
      }

      .st10 {
        fill: #fefefe;
      }

      .st11 {
        fill: #8c5738;
      }

      .st12 {
        fill: #fdfdfd;
      }
    </style>
  </defs>
  <path class="st0" d="M300.16,83.28c-5.09-1.72-10.23-3.2-15.42-4.42,4.67,1.16,9.3,2.54,13.88,4.17.52.21,1.04.29,1.54.25Z"/>
  <path class="st0" d="M305.82,79.92c-1.83,1.17-3.67,2.31-5.56,3.35.69-.07,1.35-.36,1.95-.82,1.07-.75,2.29-1.6,3.61-2.53Z"/>
  <path class="st0" d="M186.98,72.41c-4.25-2.65-8.66-5.04-13.26-6.97-.03-.01-.07-.03-.1-.04.03.01.07.03.1.04,4.6,1.94,9,4.33,13.26,6.97Z"/>
  <path class="st0" d="M139.16,115.81c.6-.19,1.08-.51,1.43-.93-.36.41-.86.73-1.43.93-65.91,26.13-105.12,93.66-102.33,162.84.14,8.1.87,16.03,2.13,23.75-1.27-7.72-1.99-15.65-2.13-23.75-2.78-69.18,36.42-136.7,102.33-162.83Z"/>
  <path class="st0" d="M359.39,335.42c.35-1.93.66-3.88.93-5.84-.27,1.96-.58,3.91-.93,5.84Z"/>
  <path class="st0" d="M360.44,328.71c.26-1.99.49-3.99.66-6-.17,2.01-.39,4.01-.66,6Z"/>
  <polygon class="st0" points="341.02 216.8 341.02 216.8 341.02 216.8 341.02 216.8 341.02 216.8"/>
  <path class="st0" d="M362.34,73.71c-1.48-6.47-4.52-10.18-8.47-11.95,3.87,1.81,6.87,5.53,8.47,11.95Z"/>
  <path class="st0" d="M380.04,227.55c-.42-.46-.8-.86-1.3-1.01-.16-.04-.38-.09-.66-.16.28.07.5.12.66.16.51.15.88.55,1.3,1.01Z"/>
  <path class="st0" d="M375.84,296.59c-1.58,0-3.19,0-4.8-.01-1.48,0-2.9,0-4.19,0,1.28,0,2.71,0,4.19,0,1.62.02,3.22.02,4.8.01Z"/>
  <path class="st0" d="M369.26,224.2c-3.03-.75-6.48-1.6-9.91-2.45-.63-.16-1.34-.34-2.11-.53.77.19,1.48.37,2.11.53,3.43.85,6.88,1.7,9.91,2.45Z"/>
  <path class="st0" d="M388.21,203.38c.08,0,.16,0,.23-.01.32-.03.62-.1.91-.18-.29.09-.59.15-.91.18-.06,0-.15,0-.23.01Z"/>
  <path class="st0" d="M361.99,168.97c.51-6.03.4-12.1-.58-18.17-.23-1.2-.53-2.42-.86-3.65,1.58,7.36,1.99,14.58,1.44,21.81Z"/>
  <path class="st0" d="M393.31,198.35c.33-2.09-.45-4.23-2.8-5.09,2.32.85,3.12,2.99,2.8,5.09Z"/>
  <path class="st0" d="M386.2,335.74c2.25-.42,4.66-1.71,7.07-2.65.82-.31,1.57-.68,2.28-1.1-.71.41-1.46.79-2.28,1.09-2.42.94-4.83,2.23-7.07,2.65Z"/>
  <path class="st0" d="M289.72,247.86c3.96-1.13,7.87-2.42,11.72-3.83-3.88,1.32-7.78,2.65-11.72,3.83Z"/>
  <path class="st0" d="M196.05,242.71c.46-.2.95-.29,1.45-.26-.5-.04-.99.06-1.45.26Z"/>
  <path class="st0" d="M308.35,241.73s0,0-.01,0c0,0,.02,0,.03,0,0,0-.01,0-.02,0Z"/>
  <path class="st0" d="M349.39,298.91c-.1-.58-.22-1.16-.34-1.74.14.67.26,1.34.38,2-.02-.09-.03-.17-.04-.26Z"/>
  <path class="st0" d="M311.38,243.18c3.52,2.03,6.86,4.37,9.99,6.98-3.11-2.69-6.43-5.09-9.99-6.98Z"/>
  <path class="st0" d="M180.57,312.45c-3.43,23.74,4.96,44.82,19.48,59.87-14.39-15.99-22.13-38.04-19.48-59.87Z"/>
  <path class="st0" d="M313.11,278.67c-1.93-2.7-4.06-5.28-6.38-7.72,12.9,13.8,20.13,32.39,20.43,51.13-.14-15.36-4.87-30.73-14.06-43.41Z"/>
  <path class="st0" d="M360.11,297.6s0,0,0,0c-.75,2.91,1.02,8.75,1.21,12.25-.19-3.49-.82-9.2-1.21-12.25h0Z"/>
  <path class="st0" d="M359.65,335.79c1.49,0,3.75,0,6.34,0-2.59,0-4.86,0-6.34,0Z"/>
  <path class="st0" d="M359.39,335.49c0,.17.04.26.18.29-.15-.03-.18-.11-.18-.29Z"/>
  <path class="st0" d="M362.64,296.57h-.69c-.16-.01-.3-.02-.43-.02.14,0,.28,0,.43.02.2,0,.43,0,.69,0Z"/>
  <path class="st0" d="M403.21,313.32c-.92-6.83-4.69-13.27-10.48-15.69,5.8,2.42,9.56,8.86,10.48,15.69Z"/>
  <path class="st0" d="M341.33,275.3c2.77,5.35,4.97,10.99,6.52,16.76-1.56-5.8-3.75-11.42-6.52-16.76Z"/>
  <path class="st0" d="M381.11,232.6c.63-1.6.37-3.55-1.05-5.03,1.42,1.48,1.68,3.42,1.05,5.03Z"/>
  <path class="st0" d="M218.79,256.66c-3.8,2.15-7.54,4.84-11.09,7.93,3.15-2.62,6.59-5.12,10.34-7.49.25-.15.5-.3.75-.44Z"/>
  <path class="st0" d="M362.28,96.68c-1.6,8.94-4.2,17.91-5.1,26.53,1.07-8.21,3.58-17.41,5.1-26.53Z"/>
  <path class="st0" d="M364.04,204.39c-4.64.2-8.98.39-12,.53,3.02-.14,7.35-.33,12-.53Z"/>
  <path class="st0" d="M318,71.77c4.38-2.73,9.09-5.38,13.76-7.43-4.88,1.94-9.38,4.58-13.76,7.43Z"/>
  <path class="st0" d="M341.17,379.13c-.1.17-.25.39-.43.63.24-.3.39-.52.43-.63Z"/>
  <path class="st0" d="M366.97,370.89c2.94,0,5.85,1.04,8.7,3.57-2.81-2.56-5.73-3.6-8.7-3.57Z"/>
  <path class="st0" d="M381.86,388.4c-.09,3.68-1.16,7.49-2.88,11.19,1.74-3.72,2.81-7.5,2.88-11.19Z"/>
  <path class="st0" d="M204.05,82.38c11.32-3.9,22.98-6.32,34.72-7.27-11.72.9-23.36,3.26-34.72,7.27Z"/>
  <path class="st0" d="M369.26,224.2c1.21.3,2.36.58,3.41.84-1.05-.26-2.2-.54-3.41-.84Z"/>
  <path class="st0" d="M409.64,81.68C368.59,37.16,307.92,8.2,228.97,10.26c78.96-2.06,139.63,26.9,180.67,71.41Z"/>
  <path class="st0" d="M74.02,84.57C31.08,131.61,7.65,195.43,10.81,259.94c-3.17-64.51,20.26-128.33,63.2-175.37Z"/>
  <path class="st0" d="M141.04,459.7c40.03,20.07,85.74,28.54,131.05,21.49.93-.15,1.84-.32,2.76-.48-.92.16-1.84.33-2.77.48-45.3,7.04-91.01-1.42-131.04-21.49Z"/>
  <path class="st0" d="M147.36,62.37c.72-.5,1.54-.89,2.46-1.17-.92.28-1.75.67-2.46,1.17Z"/>
  <path class="st0" d="M200.94,82.09c.47.33.94.5,1.44.55-.5-.05-.98-.22-1.44-.55Z"/>
  <path class="st0" d="M335.27,440.09c-11.65,6.49-23.9,11.49-36.51,15.1,12.62-3.6,24.86-8.61,36.51-15.1Z"/>
  <path class="st0" d="M333.64,389.17c-.2-.41.58-1.61,1.7-3.05-1.18,1.46-1.98,2.66-1.7,3.05Z"/>
  <path class="st0" d="M357.81,346.87c.46-.34,1.03-.52,1.66-.54.59-.05,1.17-.09,1.75-.12-.58.03-1.17.07-1.75.12-.64,0-1.21.19-1.66.54Z"/>
  <path class="st0" d="M378.98,399.61c-.15.32-.3.63-.46.94.16-.31.31-.63.46-.94Z"/>
  <path class="st0" d="M387.46,345.89c9.32-1.13,16.08-5.45,20.4-11.3-4.33,5.79-11.09,10.1-20.4,11.3Z"/>
  <path class="st0" d="M328.84,241.77c-.44-.28-.78-.55-.99-.85.21.31.55.57.99.85Z"/>
  <path class="st0" d="M333.18,227.07c.41-.29.78-.3,1.16-.22-.39-.08-.76-.08-1.16.22Z"/>
  <path class="st0" d="M327.76,240.71c-.13-.26-.2-.54-.15-.9.1-.42.22-.89.35-1.39-.13.5-.25.97-.35,1.39-.05.36.02.64.15.9Z"/>
  <path class="st0" d="M404.29,293.77c-4.98-4.69-11.92-7.68-20.72-7.58-.15,0-.3-.01-.46-.02.15,0,.31,0,.46.02,8.79-.04,15.73,2.94,20.72,7.58Z"/>
  <path class="st0" d="M356.53,426.02c.24-.19.48-.39.73-.59-.61.49-1.21.95-1.81,1.41.36-.28.72-.55,1.08-.82Z"/>
  <path class="st0" d="M376.95,403.44c-.15.26-.31.52-.47.77.16-.26.32-.51.47-.77Z"/>
  <path class="st0" d="M347.81,380.53c-4.57,3.48-9.02,6.96-13.14,8.64,0,0,0,0,0,0,0,0,0,0,0,0,4.16-1.64,8.59-5.14,13.14-8.64Z"/>
  <path class="st0" d="M378.1,401.37c-.11.22-.23.44-.34.65.12-.22.23-.44.34-.65Z"/>
  <path class="st0" d="M367.75,415.58c3.05-3.31,6-6.99,8.41-10.84-.46.72-.93,1.44-1.43,2.14-2.2,3.14-4.56,6.04-6.98,8.7Z"/>
  <path class="st0" d="M376.64,235.47c.21.02.41.03.59.03.11-.01.21-.04.32-.06-.11.02-.21.05-.32.06-.18,0-.38-.02-.59-.03Z"/>
  <path class="st0" d="M375.91,235.4c-4.35-.47-13.28-2.43-22.27-4.42,8.98,1.99,17.89,3.95,22.27,4.42Z"/>
  <path class="st0" d="M113.39,192.75c-.29,0-.61.06-.92.17.31-.11.63-.18.92-.17Z"/>
  <path class="st0" d="M292.43,384.86c-12.55,7.08-24.79,10.57-36.32,11.21,18.44-.24,37.21-7.65,52.48-24.5,1.78-1.92,3.42-3.93,4.94-6.01-1.36,1.84-2.82,3.63-4.39,5.37-4.64,5.23-10.5,10.11-16.7,13.93Z"/>
  <path class="st0" d="M113.97,203.31c2.07.11,13.19.51,23.47.89-10.29-.39-21.43-.8-23.47-.89Z"/>
  <path class="st0" d="M350.15,389.5c1.85-1.25,4.07-3.28,6.42-5.18-2.34,1.88-4.55,3.89-6.42,5.18Z"/>
  <path class="st0" d="M357.46,414.49c.96-.87,1.92-1.74,2.85-2.65,2.76-3.1,6.52-7.38,9.32-12.04-2.84,4.7-6.65,9.02-9.32,12.04-.93.91-1.89,1.77-2.85,2.65Z"/>
  <path class="st0" d="M372.85,384.41c-.07-.13-.14-.25-.21-.38.33.78.56,1.58.7,2.39-.1-.68-.26-1.35-.49-2.02Z"/>
  <path class="st0" d="M142.1,173.91c.92,6.67,2.58,13.24,4.94,19.72-2.36-6.47-4.02-13.05-4.94-19.72Z"/>
  <path class="st0" d="M160.98,71.86c-.24-.07-.49-.14-.72-.21-.06-.01-.13-.03-.19-.05.06.01.13.03.19.05.24.06.48.14.72.21Z"/>
  <path class="st0" d="M215.37,112.9c-4.48.87-6.68-4-8.41-7.35,1.73,3.35,3.93,8.22,8.41,7.35Z"/>
  <path class="st0" d="M369.85,380.61c-2.18-1.61-4.62-1.42-7.11-.32,2.47-1.08,4.91-1.27,7.11.32Z"/>
  <path class="st0" d="M209.61,93.45s.01.03.02.05c.81,1.22,4.54,5.93,6.78,10.44-2.22-4.49-5.94-9.19-6.78-10.44-.01-.02-.01-.03-.02-.05Z"/>
  <path class="st0" d="M154.41,70.73c-.87.18-1.65.66-2.28,1.63.62-.97,1.41-1.45,2.28-1.63Z"/>
  <path class="st0" d="M151.75,73.14c-3.02,7.12-2.55,17.61-1.28,27.26-1.26-9.65-1.73-20.13,1.28-27.26Z"/>
  <path class="st0" d="M188.47,446.9c29.08,7.38,61.88,9.09,92.79,3.41-30.92,5.67-63.71,3.97-92.79-3.41Z"/>
  <path class="st0" d="M145.14,133.7c.25-2.68.12-5.34-.75-7.96,0,0,0,0,0,0,.87,2.62.99,5.29.75,7.96Z"/>
  <path class="st0" d="M293.45,93.1c.08-.47-.12-.87-.94-1.04-.62-.2-1.25-.39-1.88-.59.63.19,1.26.39,1.88.59.81.17,1.02.56.94,1.03Z"/>
  <path class="st0" d="M111.24,193.53s.03-.03.05-.04c0,0,.01,0,.02,0,0,0-.01,0-.02,0-.02.01-.03.03-.04.04Z"/>
  <path class="st0" d="M112.35,202.9c-.94-.43-1.69-1.17-2.22-2.05.53.88,1.28,1.61,2.22,2.05Z"/>
  <path class="st0" d="M427.27,391.1c31.96-43.34,46.73-96.84,45.23-149.91,1.5,53.07-13.28,106.58-45.23,149.91Z"/>
  <path class="st0" d="M157.35,366.82c-13.09-25.75-15.89-56.6-5.1-85-11.73,29.69-8.22,59.97,5.1,85Z"/>
  <path class="st0" d="M172.34,227.03c.57.2,1.11.44,1.65.69-.54-.26-1.08-.49-1.65-.69-.87-.28-1.8-.37-2.69-.3-2.36.23-4.76.62-7.19,1.11,2.43-.49,4.83-.88,7.19-1.11.9-.07,1.82.02,2.69.3Z"/>
  <path class="st0" d="M185.25,236.43s.01-.01.02-.02c.04-.05.08-.09.12-.13-.04.04-.08.09-.12.13,0,0-.01.01-.02.02Z"/>
  <path class="st0" d="M292.83,416.77c-10.02,3.41-19.86,6.02-28.72,7.4-13.8,1.37-26.74.33-38.63-2.64,20.93,5.65,44.15,4.89,67.35-4.76Z"/>
  <path class="st0" d="M152.73,204.88s-.05-.05-.08-.08c-.01,0-.03,0-.04,0,.01,0,.03,0,.04,0,.02.02.05.05.08.08Z"/>
  <path class="st0" d="M123.72,226.83s.03-.02.05-.03c2.55-.88,5.16-1.62,7.8-2.3-2.64.67-5.25,1.42-7.8,2.3-.02,0-.03.02-.05.03Z"/>
  <path class="st0" d="M122.37,234.79c-1.26-.94-1.78-2.46-1.6-3.96-.2,1.5.32,3.02,1.6,3.96Z"/>
  <path class="st0" d="M326.52,402.73c8.71-4.23,16.95-8.76,23.62-13.22-6.9,4.44-14.97,8.96-23.62,13.22Z"/>
  <path class="st0" d="M159.5,293.73c-5.59,19.96-4.63,41.71,3.45,61.34-7.84-19.5-8.97-41.28-3.45-61.34Z"/>
  <path class="st0" d="M231.61,251.84c-2.26.38-4.55,1.05-6.84,1.95,8.46-3.14,15.4-1.59,25.73-.62,7.83.65,16.34-.95,24.38-1.71h.14c3.87,1.13,7.55,2.55,11.03,4.23-2.92-1.45-5.97-2.74-9.18-3.83-1.08-.35-1.33-.61-.76-.82-.37.06-.75.12-1.12.17l-.14.02c-6.87,1.05-14.65,2.05-21.42,2.01-4.51-.08-9.48-.88-14.08-1.25-3.09-.39-5.79.1-8.71-.43-1.11-.22-2.21-.45-3.31-.69,1.42.32,2.84.64,4.26.95v.02Z"/>
  <path class="st0" d="M286.95,280.84c-7.08-2.23-14.77-2-21.76.78,6.99-2.78,14.68-3.02,21.76-.78Z"/>
  <path class="st0" d="M261,372.06c-2.1,1.12-3.68,2.14-5.05,2.9,1.37-.76,2.95-1.78,5.05-2.9,25.71-14.63,65.05-50.38,41.12-81.06-.21-.25-.43-.49-.65-.73.22.24.44.48.65.73,23.92,30.7-15.41,66.42-41.12,81.06Z"/>
  <path class="st0" d="M176.42,378.16c12.19,15.76,27.52,25.95,44.02,31.28-12.01-4.12-23.59-10.9-34.08-20.72-3.65-3.3-6.95-6.83-9.94-10.56Z"/>
  <path class="st0" d="M310.22,394.66c19.92-14.02,34.92-35.07,39.4-61.09-4.58,25.36-19.48,46.71-39.4,61.09Z"/>
  <path class="st0" d="M206.44,339.12c-3.04-4.47-5.5-9.17-7.13-14.07,1.63,4.89,4.08,9.59,7.13,14.07Z"/>
  <path class="st0" d="M224.84,358.91c6.68,5.64,13.76,10.53,20.24,14.48,1.89,1.32,3.38,2.14,4.66,2.56-1.28-.42-2.77-1.24-4.66-2.56-6.49-3.97-13.57-8.85-20.24-14.48Z"/>
  <path class="st0" d="M252.8,290.08c-.69.53-1.4.87-2.15.15-.48-.63-1-1.22-1.53-1.8.53.58,1.05,1.17,1.53,1.8.75.72,1.46.38,2.15-.15Z"/>
  <path class="st0" d="M166.21,73.7c9.19,3.71,20.29,10.36,27.87,16.28-7.59-5.92-18.68-12.57-27.87-16.28Z"/>
  <path class="st0" d="M289.27,99.11c1.15-1.43,2.4-2.87,3.42-4.44,0,0,0,0,0,0,0,0,0,0,0,0-1.06,1.6-2.28,3.01-3.42,4.44Z"/>
  <path class="st0" d="M200.01,298.75c-2.42,6.23-3.15,13.29-2.13,20.17-1.02-6.88-.29-13.94,2.13-20.17Z"/>
  <path class="st0" d="M241.66,282.64c-4.84-2.58-10.4-3.74-16.08-3.18,5.67-.56,11.24.6,16.08,3.18Z"/>
  <path class="st0" d="M346.14,131.22c.05.82.14,1.64.26,2.47-.12-.82-.21-1.65-.26-2.47Z"/>
  <path class="st0" d="M352.35,84.46c0-1.64-.05-3.3-.17-5.02,0-.01,0-.02,0-.04,0,.01,0,.02,0,.04.13,1.71.17,3.37.17,5.02Z"/>
  <path class="st0" d="M157.04,132.16c.1-4.39-3.04-11.97-4.24-17.32-.05-.26-.1-.55-.15-.82.05.27.1.56.15.82,1.2,5.35,4.34,12.93,4.24,17.32-6.67,19.81-6.92,37.04-2.55,51.62-4.37-14.58-4.12-31.81,2.55-51.62Z"/>
  <path class="st0" d="M237.99,241.37c56.89,6.04,119.66-22.76,112.49-90.1-.87-5.51-2.94-10.97-3.9-16.34.96,5.37,3.03,10.83,3.89,16.34,7.17,67.34-55.6,96.15-112.49,90.1Z"/>
  <path class="st0" d="M291.33,112.52c-.17.11-.34.23-.54.31.1-.04.22-.07.31-.12.09-.05.15-.13.23-.19Z"/>
  <path class="st0" d="M286.32,103.7c.13-.26.26-.52.39-.77-.02.05-.06.1-.08.15-.1.2-.21.41-.31.62Z"/>
  <path class="st0" d="M338.19,73.22c1.75-.79,3.36-1.46,4.81-1.93-1.44.46-3.04,1.13-4.81,1.93Z"/>
  <path class="st0" d="M209.63,92.78c.16-.19.45-.33.81-.49-.36.16-.65.3-.81.49Z"/>
  <path class="st0" d="M293.07,110.4c.58-1.12,1.01-2.37,1.55-3.52-.57,1.08-.98,2.37-1.55,3.52Z"/>
  <path class="st0" d="M302.85,96.7c5.47-5.46,12.24-10.65,19.11-14.98-6.86,4.3-13.61,9.45-19.11,14.98Z"/>
  <path class="st9" d="M483.68,242.77v-.15C472.94-40.89,94.8-93.19,10.18,178c-33.54,110.79,18.18,233.56,120.35,287.92,35.13,19.06,76.11,29.86,116.95,28.04,3.26-.06,6.52-.09,9.76,0,1.9.13,3.01-.38,4.82-.48,127.36-9.85,225.54-123.23,221.62-250.72ZM427.27,391.1c-.34.46-.7.92-1.04,1.38-.73.98-1.46,1.95-2.21,2.92-1.03,1.33-2.08,2.64-3.14,3.94-.08.09-.15.19-.22.28-32.66,39.99-81,70.07-145.81,81.09-.92.16-1.83.33-2.76.48-45.3,7.05-91.01-1.42-131.05-21.49-36.46-18.28-68.21-46.18-90.63-80.79-24.61-36.67-37.2-76.99-39.49-117.1-.03-.47-.06-.94-.08-1.4,0-.15-.01-.31-.02-.46-3.17-64.51,20.26-128.33,63.2-175.37.32-.35.65-.7.97-1.04.53-.57,1.05-1.14,1.58-1.71C114.36,41.71,166.64,14.39,228.81,10.27h.16c78.96-2.07,139.63,26.89,180.67,71.41.02.02.03.04.05.05,1.19,1.29,2.36,2.59,3.52,3.91.41.46.8.94,1.21,1.41.76.88,1.52,1.75,2.26,2.64,1.1,1.32,2.19,2.65,3.26,3.99.03.04.07.09.11.13,29.57,37.1,46.91,82.99,51.39,130.14.04.43.09.86.13,1.29.09,1.05.17,2.1.25,3.16.06.71.12,1.42.17,2.14.05.77.09,1.55.14,2.32.06.99.13,1.99.18,2.98.02.39.03.79.05,1.18.06,1.38.12,2.75.16,4.13,0,.02,0,.03,0,.05,1.5,53.07-13.27,106.57-45.23,149.91Z"/>
  <path class="st12" d="M472.5,241.19s0-.03,0-.05c-.04-1.38-.1-2.75-.16-4.13-.02-.39-.03-.79-.05-1.18-.05-.99-.12-1.99-.18-2.98-.05-.77-.08-1.55-.14-2.32-.05-.71-.11-1.43-.17-2.14-.08-1.05-.16-2.11-.25-3.16-.04-.43-.09-.86-.13-1.29-4.48-47.15-21.82-93.04-51.39-130.14-.03-.04-.07-.09-.11-.13-1.07-1.34-2.15-2.67-3.26-3.99-.74-.89-1.5-1.76-2.26-2.64-.4-.47-.8-.94-1.21-1.41-1.16-1.32-2.33-2.62-3.52-3.91-.02-.02-.03-.04-.05-.05C368.6,37.16,307.93,8.2,228.97,10.26h-.16c-62.17,4.13-114.45,31.45-152.24,71.56-.53.56-1.06,1.14-1.58,1.71-.32.35-.65.69-.97,1.04C31.08,131.61,7.65,195.43,10.81,259.94c0,.15.01.31.02.46.02.47.06.94.08,1.4,2.29,40.11,14.88,80.44,39.49,117.1,22.42,34.61,54.17,62.51,90.63,80.79,40.03,20.07,85.74,28.53,131.04,21.49.93-.15,1.84-.32,2.77-.48,64.8-11.02,113.15-41.1,145.81-81.09.08-.09.15-.19.22-.28,1.06-1.3,2.11-2.62,3.14-3.94.75-.97,1.48-1.94,2.21-2.92.34-.46.7-.91,1.04-1.38,31.96-43.34,46.73-96.84,45.23-149.91ZM273.42,460.52c-.27.04-.55.07-.82.11-.79.11-1.59.21-2.39.31-.32.04-.63.08-.95.11-.75.09-1.51.17-2.27.25-.36.04-.72.07-1.08.11-.71.07-1.43.14-2.14.2-.4.04-.81.07-1.21.1-.67.05-1.34.11-2.01.16-.45.03-.9.06-1.35.09-.62.04-1.25.08-1.87.11-.5.03-1,.05-1.5.08-.58.03-1.16.05-1.74.08-.54.02-1.09.04-1.63.06-.54.02-1.07.03-1.61.04-.59.01-1.19.02-1.78.03-.49,0-.98.01-1.46.02-.64,0-1.29,0-1.93,0-.44,0-.88,0-1.31,0-.7,0-1.39-.02-2.09-.03-.39,0-.77-.01-1.16-.02-.75-.02-1.49-.04-2.24-.07-.34-.01-.68-.02-1.02-.04-.79-.03-1.58-.07-2.38-.11-.29-.02-.59-.03-.88-.05-.84-.05-1.68-.1-2.52-.16-.24-.02-.49-.03-.73-.05-.89-.06-1.78-.13-2.67-.21-.2-.02-.4-.03-.6-.05-.94-.08-1.87-.17-2.81-.26-.15-.01-.3-.03-.45-.04-.98-.1-1.97-.21-2.95-.32-.1-.01-.2-.02-.31-.04-1.03-.12-2.06-.25-3.09-.38-.06,0-.11-.01-.17-.02-1.07-.14-2.14-.29-3.21-.45-.02,0-.03,0-.05,0-52.79-7.78-103.55-34.84-137.3-75.01,0,0-.01-.02-.02-.02-.68-.81-1.35-1.62-2.01-2.43-.03-.04-.06-.07-.09-.11-.64-.79-1.28-1.59-1.91-2.4-.05-.06-.09-.12-.14-.18-.61-.78-1.21-1.56-1.8-2.34-.07-.09-.14-.18-.2-.27-.58-.76-1.14-1.53-1.71-2.3-.08-.11-.17-.22-.25-.34-.54-.74-1.07-1.49-1.6-2.24-.1-.14-.21-.29-.31-.43-.51-.73-1.01-1.46-1.51-2.19-.12-.17-.24-.34-.35-.51-.48-.71-.95-1.42-1.41-2.14-.13-.2-.26-.4-.39-.6-.44-.68-.88-1.37-1.31-2.06-.15-.24-.3-.47-.45-.71-.41-.66-.81-1.32-1.21-1.98-.17-.27-.33-.54-.5-.82-.38-.64-.75-1.28-1.13-1.92-.18-.3-.35-.6-.53-.9-.35-.62-.7-1.25-1.05-1.87-.18-.33-.37-.66-.55-.99-.33-.6-.65-1.2-.97-1.81-.19-.36-.39-.72-.58-1.08-.3-.57-.59-1.15-.89-1.73-.2-.4-.41-.79-.61-1.19-.27-.55-.54-1.1-.81-1.65-.21-.43-.42-.86-.63-1.3-.25-.52-.49-1.05-.73-1.57-.22-.47-.44-.93-.65-1.4-.22-.49-.44-.99-.66-1.49-.22-.51-.45-1.01-.67-1.52-.2-.47-.4-.95-.6-1.42-.22-.53-.45-1.06-.67-1.6-.18-.45-.36-.91-.54-1.37-.22-.56-.45-1.13-.67-1.69-.16-.42-.31-.84-.47-1.26-.23-.61-.46-1.22-.68-1.83-.14-.39-.27-.78-.41-1.16-.23-.65-.46-1.3-.68-1.95-.12-.37-.24-.74-.36-1.11-.22-.68-.45-1.35-.66-2.03-.11-.35-.21-.69-.32-1.04-.22-.71-.44-1.41-.65-2.12-.09-.31-.18-.63-.27-.95-.22-.75-.43-1.5-.64-2.25-.07-.27-.14-.54-.21-.81-.21-.8-.43-1.6-.63-2.41-.06-.24-.11-.48-.17-.71-.21-.84-.41-1.68-.6-2.53-.05-.21-.09-.41-.14-.62-.2-.88-.39-1.76-.58-2.65-.03-.16-.06-.31-.09-.47-.19-.94-.38-1.88-.55-2.83-.02-.09-.03-.18-.05-.26-.19-1.01-.37-2.03-.53-3.05,0-.03,0-.05-.01-.08-1.27-7.72-1.99-15.65-2.13-23.75-2.79-69.17,36.42-136.71,102.33-162.84.57-.2,1.07-.52,1.43-.93.41-.5.62-1.15.57-1.89-.51-14.84-6.5-39.89,5.5-50.08.22-.2.46-.36.71-.53.72-.5,1.54-.89,2.46-1.17,6.07-1.85,16.06.78,23.8,4.18.03.01.07.03.1.04,4.6,1.94,9,4.33,13.26,6.97,1.42.88,2.82,1.79,4.21,2.72,3.33,2.23,6.57,4.59,9.75,6.96.46.32.94.5,1.44.55.51.05,1.04-.04,1.59-.23.03,0,.06-.02.08-.03,11.35-4.01,23-6.38,34.72-7.27.34-.03.67-.05,1.01-.08.15-.01.29-.02.44-.03,14.9-1.06,29.91.24,44.52,3.86,5.19,1.22,10.34,2.7,15.42,4.42.03,0,.06,0,.1-.01,1.89-1.05,3.73-2.18,5.56-3.35,3.44-2.41,7.64-5.32,12.18-8.15,4.37-2.85,8.87-5.5,13.76-7.43,8.14-3.59,16.16-5.37,22.11-2.59,3.95,1.77,6.99,5.48,8.47,11.95,0,0,0,0,0,0,1.95,7.45,1.32,15.19-.07,22.97-1.52,9.12-4.03,18.32-5.1,26.53-.5,4.84-.47,9.56.58,14.11,1.18,3.31,2.09,6.58,2.79,9.83.33,1.23.63,2.44.86,3.65.98,6.06,1.09,12.14.58,18.17,0,.09-.01.17-.02.26-.05.57-.11,1.15-.17,1.72-.75,7.52-2.47,15.07-4.94,22.82v.07c-.03.14-.02.23.04.28.03.03.08.05.15.05.85-.03,3.72-.16,7.39-.31,8.43-.36,21.1-.91,23.4-1.01.5-.03,1.08.02,1.64.13.35.07.7.16,1.03.27,0,0,0,0,0,0,2.35.85,3.13,2.99,2.8,5.09-.32,2.11-1.77,4.17-3.97,4.83-.29.09-.59.15-.91.18-.06,0-.15,0-.23.01-2.79.13-14.18.59-24.17,1.01-4.65.2-8.98.39-12,.53-.28.01-.56.03-.82.04-2.38,2.51-8.74,10.2-10.2,11.84,0,0,0,0,0,0,0,0,0,0,0,0-.05.13-.25.22-.18.34.18.05.39.11.62.17.01,0,.02,0,.03,0,.2.05.42.11.66.17,2.92.75,8.26,2.05,12.69,3.14.79.19,1.55.38,2.26.56.04.01.09.02.13.03.77.19,1.49.37,2.11.53,3.43.85,6.87,1.7,9.91,2.45,1.21.3,2.36.58,3.41.84.53.13,1.03.25,1.5.37,1.14.28,2.12.53,2.9.72.39.1.73.18,1.01.25.28.07.5.12.66.16.51.15.89.55,1.3,1.01,0,0,0,0,0,0,0,0,0,.01.01.01,1.43,1.48,1.69,3.43,1.05,5.03-.55,1.4-1.79,2.53-3.57,2.84-.11.02-.21.05-.32.06-.18,0-.38-.02-.59-.03,0,0-.02,0-.02,0-.2-.02-.41-.04-.63-.06-.03,0-.05,0-.08,0-4.38-.47-13.29-2.43-22.27-4.42-6.55-1.45-13.14-2.91-18.02-3.83-.48-.04-.88-.21-1.28-.3-.38-.08-.75-.07-1.16.22,0,0-.01,0-.02,0-2.66,2.55-4.28,7.82-5.2,11.34-.13.5-.25.97-.35,1.39-.05.36.02.64.15.9.03.07.05.14.09.2.21.3.55.57.99.85,15.74,9.2,22.42,25.26,27.96,41.9.07.23.16.47.25.71.1.23.2.46.33.67.12.21.27.4.43.57,0,0,0,0,.01.01.07.08.17.13.25.19.1.08.2.18.32.24,8.01,1.91,16.54-.29,24.72.1.15,0,.3,0,.46.02,8.8-.1,15.74,2.89,20.72,7.58,11.07,10.29,12.58,28.77,3.56,40.83-4.31,5.84-11.07,10.17-20.4,11.3,0,0,0,0,0,0-5.73.82-11.39.52-17.06.33-1.89-.06-3.78-.11-5.67-.1-1.16,0-2.33.03-3.5.09-.58.03-1.17.07-1.75.12-.63.02-1.21.2-1.66.54-.45.35-.78.84-.95,1.44-1.37,4.11-2.97,8.15-4.8,12.1-.82,1.77-1.7,3.52-2.61,5.24-.62,1.17-1.25,2.33-1.9,3.48-1.96,3.45-4.09,6.79-6.38,9.99,0,0,0,0,0,0-.03.1-.19.33-.43.63-1.14,1.53-3.67,4.23-5.4,6.37-1.13,1.44-1.9,2.63-1.7,3.05.12.17.44.19,1.02,0,0,0,0,0,0,0,4.12-1.68,8.57-5.16,13.14-8.64,6.02-4.63,12.25-9.25,18.38-9.61.16-.01.32-.03.48-.03.1,0,.2,0,.3,0,2.97-.03,5.89,1.01,8.7,3.57.05.05.1.08.15.13.17.15.32.3.47.45.23.23.46.44.68.68.04.04.07.09.11.13,2.75,2.91,4.2,6.21,4.63,9.68,0,.05.01.11.02.16.05.43.09.87.11,1.31.02.46.02.92,0,1.39-.06,3.69-1.14,7.48-2.88,11.19,0,0,0,.01,0,.02-.15.31-.3.63-.46.94-.14.28-.28.55-.42.82-.11.22-.23.44-.34.65-.26.48-.53.95-.8,1.42-.15.26-.31.52-.47.77-.11.18-.22.35-.33.53-2.41,3.85-5.36,7.53-8.41,10.84-.15.16-.29.32-.44.48-.42.45-.83.88-1.25,1.31-2.31,2.4-4.65,4.58-6.97,6.54-.43.37-.86.72-1.27,1.07-.19.15-.37.3-.55.45-.24.2-.49.4-.73.59-.36.28-.72.55-1.08.82-.13.1-.27.22-.4.32-.13.1-.26.19-.38.29-.65.49-1.3.98-1.96,1.46-.24.17-.47.35-.71.52-.71.52-1.43,1.03-2.14,1.53-.19.13-.37.26-.56.39-.77.53-1.54,1.06-2.31,1.58-.14.09-.28.19-.42.28-.82.54-1.64,1.08-2.46,1.61-.11.07-.21.13-.32.2-.86.55-1.73,1.09-2.59,1.62-.07.04-.14.08-.21.13-.9.55-1.81,1.09-2.72,1.63-.04.02-.07.04-.11.06-.94.55-1.88,1.09-2.83,1.62-.01,0-.02.01-.03.02-11.65,6.49-23.9,11.5-36.51,15.1-.01,0-.03,0-.04.01-1.03.29-2.06.58-3.09.85-.04,0-.07.02-.11.03-1.01.27-2.02.53-3.04.78-.06.01-.12.03-.18.04-.99.24-1.98.48-2.97.7-.09.02-.18.04-.27.06-.96.22-1.93.43-2.9.63-.12.03-.24.05-.36.08-.93.19-1.87.38-2.81.56-.16.03-.32.06-.48.09-.9.17-1.81.33-2.71.49-.19.03-.39.07-.58.1-.87.15-1.74.29-2.61.43-.23.04-.47.07-.7.11-.83.13-1.67.25-2.5.36Z"/>
  <path class="st2" d="M413.21,85.64c.41.46.8.94,1.21,1.41"/>
  <path class="st2" d="M472.5,241.19s0-.03,0-.05"/>
  <path class="st2" d="M426.23,392.48c.34-.46.7-.91,1.04-1.38"/>
  <path class="st2" d="M420.88,399.34c1.06-1.3,2.11-2.62,3.14-3.94"/>
  <path class="st2" d="M471.81,228.39c-.08-1.05-.16-2.11-.25-3.16"/>
  <path class="st2" d="M416.68,89.68c1.1,1.32,2.19,2.65,3.26,3.99"/>
  <path class="st2" d="M472.12,232.85c-.05-.77-.08-1.55-.14-2.32"/>
  <path class="st2" d="M472.34,237.01c-.02-.39-.03-.79-.05-1.18"/>
  <path class="st2" d="M409.64,81.68s.03.04.05.05"/>
  <path class="st2" d="M74.02,84.57c.32-.35.65-.7.97-1.04"/>
  <path class="st2" d="M10.81,259.94c0,.15.01.31.02.46"/>
  <path class="st9" d="M276.62,460.04c.87-.14,1.74-.28,2.61-.43.19-.03.39-.07.58-.1.9-.16,1.81-.32,2.71-.49.16-.03.32-.06.48-.09.94-.18,1.87-.37,2.81-.56.12-.03.24-.05.36-.08.97-.2,1.93-.41,2.9-.63.09-.02.18-.04.27-.06.99-.23,1.98-.46,2.97-.7.06-.01.12-.03.18-.04,1.01-.25,2.03-.51,3.04-.78.04,0,.07-.02.11-.03,1.03-.27,2.06-.56,3.09-.85.01,0,.03,0,.04-.01,12.61-3.6,24.86-8.61,36.51-15.1.01,0,.02-.01.03-.02.95-.53,1.89-1.07,2.83-1.62.04-.02.07-.04.11-.06.91-.53,1.82-1.08,2.72-1.63.07-.04.14-.08.21-.13.87-.53,1.73-1.07,2.59-1.62.11-.07.21-.13.32-.2.82-.53,1.64-1.06,2.46-1.61.14-.09.28-.19.42-.28.77-.52,1.55-1.05,2.31-1.58.19-.13.37-.26.56-.39.72-.5,1.43-1.01,2.14-1.53.24-.17.47-.34.71-.52.66-.48,1.31-.97,1.96-1.46.13-.1.26-.19.38-.29.13-.1.27-.21.4-.32.6-.46,1.2-.92,1.81-1.41.18-.15.37-.3.55-.45.42-.34.84-.7,1.27-1.07,2.32-1.96,4.66-4.14,6.97-6.54.42-.43.84-.87,1.25-1.31.15-.16.29-.31.44-.48,2.42-2.66,4.78-5.55,6.98-8.7.49-.7.97-1.42,1.43-2.14.11-.18.22-.35.33-.53.16-.26.32-.51.47-.77.28-.47.55-.94.8-1.42.12-.22.23-.44.34-.65.14-.27.28-.55.42-.82.16-.31.31-.63.46-.94,0,0,0-.01,0-.02,1.71-3.7,2.79-7.51,2.88-11.19.01-.46.01-.93,0-1.39-.02-.44-.06-.87-.11-1.31,0-.05-.01-.11-.02-.16-.43-3.47-1.88-6.77-4.63-9.68-.04-.04-.07-.09-.11-.13-.23-.25-.45-.46-.68-.68-.16-.15-.31-.3-.47-.45-.05-.05-.1-.08-.15-.13-2.85-2.53-5.76-3.57-8.7-3.57-.1,0-.2,0-.3,0-.16,0-.32.02-.48.03-6.13.36-12.37,4.98-18.38,9.61-4.55,3.5-8.98,7-13.14,8.64,0,0,0,0,0,0-.59.19-.9.17-1.02,0-.28-.38.52-1.58,1.7-3.05,1.73-2.14,4.26-4.84,5.4-6.37.18-.24.33-.45.43-.63,0,0,0,0,0,0,2.3-3.2,4.43-6.55,6.38-9.99.65-1.15,1.29-2.31,1.9-3.48.91-1.73,1.79-3.47,2.61-5.24,1.83-3.95,3.43-7.99,4.8-12.1.17-.6.5-1.09.95-1.44.45-.35,1.02-.55,1.66-.54.59-.05,1.17-.09,1.75-.12,1.17-.06,2.34-.09,3.5-.09,1.89,0,3.78.04,5.67.1,5.66.19,11.32.49,17.06-.33,0,0,0,0,0,0,9.3-1.2,16.06-5.51,20.4-11.3,9.01-12.05,7.5-30.54-3.56-40.83-4.99-4.64-11.93-7.62-20.72-7.58-.15,0-.31-.01-.46-.02-8.18-.39-16.71,1.81-24.72-.1-.12-.06-.21-.16-.32-.24-.08-.07-.18-.11-.25-.19,0,0,0,0-.01-.01-.16-.17-.3-.36-.43-.57-.13-.21-.23-.44-.33-.67-.1-.24-.18-.48-.25-.71-5.54-16.65-12.22-32.7-27.96-41.9-.44-.28-.78-.55-.99-.85-.04-.06-.06-.14-.09-.2-.13-.26-.2-.54-.15-.9.1-.42.22-.89.35-1.39.92-3.53,2.53-8.8,5.2-11.34,0,0,.01,0,.02,0,.4-.29.77-.3,1.16-.22.39.08.8.25,1.28.3,4.88.91,11.47,2.38,18.02,3.83,8.99,1.99,17.92,3.95,22.27,4.42.03,0,.05,0,.08,0,.22.02.43.04.63.06,0,0,.02,0,.02,0,.21.02.41.03.59.03.11-.01.21-.04.32-.06,1.77-.31,3.02-1.44,3.57-2.84.63-1.6.36-3.55-1.05-5.03,0,0,0-.01-.01-.01,0,0,0,0,0,0-.43-.47-.8-.86-1.3-1.01-.16-.04-.38-.09-.66-.16-.28-.07-.62-.15-1.01-.25-.78-.19-1.76-.44-2.9-.72-.47-.12-.98-.24-1.5-.37-1.05-.26-2.2-.54-3.41-.84-3.03-.75-6.48-1.6-9.91-2.45-.63-.16-1.34-.34-2.11-.53-.04-.01-.09-.02-.13-.03-.71-.18-1.47-.36-2.26-.56-4.43-1.09-9.77-2.39-12.69-3.14-.23-.06-.46-.12-.66-.17-.01,0-.02,0-.03,0-.23-.06-.44-.12-.62-.17-.08-.11.13-.21.18-.34,0,0,0,0,0,0,0,0,0,0,0,0,1.46-1.64,7.82-9.33,10.2-11.84.26-.01.53-.03.82-.04,3.02-.15,7.36-.33,12-.53,9.99-.42,21.39-.88,24.17-1.01.08,0,.16,0,.23-.01.32-.03.62-.1.91-.18,2.2-.66,3.65-2.72,3.97-4.83.32-2.09-.47-4.23-2.8-5.09,0,0,0,0,0,0-.33-.12-.68-.21-1.03-.27-.57-.11-1.14-.17-1.64-.13-2.3.1-14.97.64-23.4,1.01-3.67.16-6.54.29-7.39.31-.07,0-.12-.02-.15-.05-.06-.05-.07-.13-.05-.28v-.07c2.48-7.75,4.2-15.3,4.95-22.82.06-.57.12-1.15.17-1.72,0-.09.01-.17.02-.26.55-7.23.14-14.45-1.44-21.81-.7-3.25-1.61-6.52-2.79-9.83-1.06-4.54-1.09-9.27-.58-14.11.9-8.62,3.5-17.6,5.1-26.53,1.39-7.78,2.02-15.52.07-22.97,0,0,0,0,0,0-1.6-6.42-4.6-10.15-8.47-11.95-5.96-2.78-13.97-1-22.11,2.59-4.67,2.06-9.37,4.71-13.76,7.43-4.55,2.83-8.74,5.74-12.18,8.15-1.32.93-2.53,1.78-3.61,2.53-.6.47-1.26.75-1.95.82-.03,0-.06,0-.1.01-.5.04-1.02-.03-1.54-.25-4.57-1.63-9.21-3.02-13.88-4.17-14.61-3.62-29.63-4.92-44.52-3.86-.15,0-.29.02-.44.03-.34.03-.67.05-1.01.08-11.74.95-23.39,3.37-34.72,7.27-.03,0-.06.02-.08.03-.55.19-1.08.28-1.59.23-.49-.05-.97-.22-1.44-.55-3.18-2.37-6.42-4.72-9.75-6.96-1.39-.93-2.79-1.84-4.21-2.72-4.25-2.65-8.66-5.04-13.26-6.97-.03-.01-.07-.03-.1-.04-7.74-3.41-17.73-6.03-23.8-4.18-.92.28-1.75.67-2.46,1.17-.24.17-.49.33-.71.53-12,10.19-6.01,35.24-5.5,50.08.06.75-.15,1.39-.57,1.89-.35.42-.83.74-1.43.93-65.91,26.14-105.11,93.66-102.33,162.83.14,8.1.87,16.03,2.13,23.75,0,.03,0,.05.01.08.17,1.02.35,2.04.53,3.05.02.09.03.18.05.26.18.95.36,1.89.55,2.83.03.16.06.31.09.47.18.89.38,1.77.58,2.65.05.21.09.41.14.62.19.85.4,1.69.6,2.53.06.24.11.48.17.71.2.81.41,1.61.63,2.41.07.27.14.54.21.81.2.75.42,1.5.64,2.25.09.31.18.63.27.95.21.71.43,1.42.65,2.12.11.35.21.7.32,1.04.21.68.44,1.35.66,2.03.12.37.24.74.36,1.11.22.65.45,1.3.68,1.95.14.39.27.78.41,1.16.22.61.45,1.22.68,1.83.16.42.31.84.47,1.26.22.57.44,1.13.67,1.69.18.46.36.91.54,1.37.22.54.44,1.07.67,1.6.2.48.39.95.6,1.42.22.51.44,1.01.67,1.52.22.5.43.99.66,1.49.21.47.43.94.65,1.4.24.52.48,1.05.73,1.57.21.44.42.87.63,1.3.27.55.53,1.1.81,1.65.2.4.4.79.61,1.19.29.58.59,1.15.89,1.73.19.36.39.72.58,1.08.32.6.64,1.21.97,1.81.18.33.37.66.55.99.35.62.69,1.25,1.05,1.87.17.3.35.6.53.9.37.64.74,1.28,1.13,1.92.16.27.33.55.5.82.4.66.8,1.32,1.21,1.98.15.24.3.47.45.71.43.69.87,1.38,1.31,2.06.13.2.26.4.39.6.47.71.94,1.43,1.41,2.14.12.17.24.34.35.51.5.73,1,1.46,1.51,2.19.1.14.2.29.31.43.53.75,1.06,1.5,1.6,2.24.08.11.17.22.25.34.56.77,1.13,1.54,1.71,2.3.07.09.14.18.2.27.59.78,1.19,1.57,1.8,2.34.05.06.09.12.14.18.63.8,1.27,1.6,1.91,2.4.03.04.06.07.09.11.66.82,1.33,1.63,2.01,2.43,0,0,.01.02.02.02,33.75,40.17,84.51,67.23,137.3,75.01.02,0,.03,0,.05,0,1.07.16,2.14.31,3.21.45.06,0,.11.01.17.02,1.03.14,2.06.26,3.09.38.1.01.2.02.31.04.98.11,1.97.22,2.95.32.15.02.3.03.45.04.94.09,1.87.18,2.81.26.2.02.4.03.6.05.89.07,1.78.14,2.67.21.24.02.49.03.73.05.84.06,1.68.11,2.52.16.29.02.59.03.88.05.79.04,1.58.08,2.38.11.34.01.68.03,1.02.04.75.03,1.49.05,2.24.07.39,0,.77.02,1.16.02.7.01,1.39.02,2.09.03.44,0,.88,0,1.31,0,.64,0,1.29,0,1.93,0,.49,0,.98,0,1.46-.02.59,0,1.19-.02,1.78-.03.54-.01,1.07-.03,1.61-.04.54-.02,1.09-.03,1.63-.06.58-.02,1.16-.05,1.74-.08.5-.02,1-.05,1.5-.08.62-.03,1.25-.07,1.87-.11.45-.03.9-.06,1.35-.09.67-.05,1.34-.1,2.01-.16.4-.03.81-.07,1.21-.1.71-.06,1.43-.13,2.14-.2.36-.04.72-.07,1.08-.11.76-.08,1.51-.16,2.27-.25.32-.04.63-.07.95-.11.8-.1,1.59-.2,2.39-.31.27-.04.55-.07.82-.11.83-.12,1.67-.24,2.5-.36.23-.04.47-.07.7-.11ZM389.31,296.71c1.21.15,2.34.47,3.41.92,5.8,2.42,9.56,8.86,10.48,15.69.99,7.28-1.26,14.98-7.66,18.68-.71.41-1.46.79-2.28,1.1-2.42.94-4.83,2.23-7.07,2.65-.08.02-.17.04-.25.05-1.61.02-12.23,0-19.95,0-2.59,0-4.85,0-6.34,0-.02,0-.05,0-.07,0,0,0,0,0-.01,0-.15-.03-.18-.11-.18-.29v-.07c.35-1.93.66-3.88.93-5.84.04-.29.08-.57.12-.86.26-1.99.49-3.99.66-6,.35-4.28.46-8.59.23-12.86,0,0,0,0,0,0-.19-3.5-1.97-9.34-1.21-12.25,0,0,0,0,0,0-.11-.85.54-1.05,1.41-1.04.13,0,.27,0,.43.02h1.54c.62,0,1.33,0,2.12,0h1.24c1.28,0,2.71,0,4.19,0,1.62.02,3.22.02,4.8.01,1.58,0,3.15-.03,4.68-.04.77,0,1.53,0,2.28,0,2.25,0,4.44.04,6.52.17ZM340.29,273.35s.05.08.07.12c.33.61.66,1.22.97,1.83,2.77,5.33,4.97,10.96,6.52,16.76.03.11.06.22.09.33.15.57.3,1.15.44,1.73.13.52.24,1.03.36,1.55.05.21.1.42.14.63,0,.03.02.07.02.1.05.26.09.51.15.77.12.58.23,1.16.34,1.74.02.09.03.17.04.26,2.08,11.36,2.13,22.27.49,32.54-.03.21-.07.43-.1.64-.07.41-.13.81-.2,1.22-4.48,26.02-19.47,47.07-39.4,61.09-25.42,18.35-59.01,25.33-89.78,14.78-16.5-5.34-31.84-15.52-44.02-31.28-5.22-6.51-9.43-13.61-12.63-21.08-.05-.12-.11-.24-.16-.36-.23-.55-.45-1.1-.67-1.65-8.08-19.63-9.04-41.38-3.45-61.34.28-1.01.57-2.01.88-3.01.04-.12.08-.25.12-.37,5.85-18.54,17.48-35.38,34.85-47.25.06-.04.13-.07.19-.11.16-.1.32-.2.49-.27,0,0,.02,0,.02-.01.46-.21.95-.3,1.45-.26.04,0,.08,0,.12.01.17.02.34.06.51.11.07.02.13.02.2.04,9.41,3.53,19.21,6.04,29,8.26,1.1.23,2.2.47,3.31.69,2.92.53,5.62.04,8.71.43,4.59.37,9.56,1.16,14.08,1.25,6.77.05,14.55-.95,21.42-2.01l.14-.02c.38-.05.75-.11,1.12-.17.18-.06.43-.12.78-.17,4.31-.76,8.59-1.79,12.83-3,3.94-1.18,7.84-2.52,11.72-3.83,1.69-.62,3.38-1.26,5.05-1.92.59-.24,1.22-.41,1.84-.38,0,0,0,0,.01,0,0,0,.01,0,.02,0,.18.01.36.03.54.08.84.44,1.66.89,2.47,1.36,3.56,1.88,6.88,4.29,9.99,6.98,7.66,6.39,14.07,14.36,18.92,23.19ZM151.75,73.14c.05-.12.09-.26.14-.38.08-.15.16-.27.24-.4.62-.97,1.41-1.45,2.28-1.63,1.74-.36,3.81.44,5.65.88.06.01.13.03.19.05.24.06.48.14.72.21,1.64.48,3.4,1.1,5.23,1.84,9.19,3.71,20.28,10.36,27.87,16.28,1.8,1.4,3.41,2.77,4.74,4.04l.09.09c3.1,3.35,5.71,7.47,8.01,11.36.01.03.03.05.04.08,1.73,3.35,3.93,8.22,8.41,7.35.11-.02.22-.03.33-.06,3.22-.98,2.79-4.33,1.14-7.99,0-.02-.01-.03-.02-.05-.06-.14-.13-.27-.19-.41-.06-.13-.12-.26-.19-.39,0-.02-.02-.04-.03-.06-2.23-4.5-5.96-9.21-6.78-10.44-.01-.02-.01-.03-.02-.05-.14-.29-.12-.49.03-.66.16-.19.45-.33.81-.49.03-.01.06-.03.1-.04,25.02-9.84,54.68-8.58,80.09-.77.63.19,1.26.39,1.88.59.83.17,1.03.56.94,1.04,0,0,0,0,0,0-.02.1-.05.2-.09.3-.14.4-.42.85-.67,1.27,0,0,0,0,0,0-1.02,1.56-2.27,3-3.42,4.44-.1.12-.19.25-.29.37-.13.16-.25.32-.38.48-.21.27-.41.55-.61.83-.03.04-.06.08-.09.12-.22.32-.44.65-.64.99-.06.11-.13.23-.19.35-.13.23-.26.46-.37.69-.13.25-.26.51-.39.77,0,0,0,.01,0,.02-.09.19-.18.38-.27.58-.03.07-.06.15-.09.22-.06.13-.11.26-.17.4-.04.1-.08.2-.12.3-.04.11-.08.22-.12.33-.04.11-.08.23-.12.34-.03.1-.06.19-.09.29-.04.12-.08.25-.11.37-.03.09-.05.18-.07.27-.03.13-.07.26-.1.39-.02.08-.03.15-.04.23-.05.23-.08.45-.11.67-.01.11-.03.22-.04.33,0,.09,0,.18-.01.28,0,.12,0,.23,0,.35,0,.08,0,.17.02.25,0,.12.02.24.04.36.01.08.02.15.04.22.02.12.05.24.09.36.02.06.04.13.06.19.04.12.1.24.15.36.02.05.05.11.08.16.07.13.15.25.24.37.03.04.05.07.08.11.12.15.26.3.41.44.3.26.67.48,1.08.67.11.05.23.09.35.13.08.03.16.06.25.09.17.05.34.1.51.14.05.01.09.02.14.03.15.03.31.05.46.07.09.01.17.02.26.03.11,0,.21.01.32.01.14,0,.28,0,.42,0,.06,0,.11,0,.17-.02.15-.02.3-.04.44-.08.07-.02.14-.03.21-.06.06-.02.1-.04.16-.06.2-.09.37-.2.54-.31.21-.15.43-.31.61-.49.01-.01.02-.02.04-.03.44-.46.79-1.01,1.1-1.6.57-1.15.98-2.44,1.55-3.52.3-.64.64-1.25,1.08-1.77,1.72-2.49,3.82-4.99,6.19-7.44.28-.29.57-.58.86-.87.03-.03.06-.06.09-.09,5.5-5.52,12.24-10.68,19.11-14.98.32-.2.65-.4.97-.6.09-.05.18-.11.27-.16,5.07-3.11,10.15-5.73,14.78-7.63.07-.03.14-.06.22-.1,1.76-.8,3.37-1.46,4.81-1.93.03-.01.07-.02.1-.03.15-.05.3-.09.45-.14.07-.02.14-.04.21-.06.12-.04.25-.07.37-.1.09-.02.18-.05.26-.07.11-.03.21-.05.31-.07.1-.02.2-.04.29-.06.1-.02.19-.03.28-.05.1-.02.2-.03.3-.05.09-.01.18-.02.27-.03.1-.01.19-.02.29-.03.09,0,.18,0,.26-.01.09,0,.18,0,.27-.01.09,0,.18,0,.26,0,.08,0,.16,0,.24,0,.09,0,.18.02.26.03.07,0,.15.02.22.03.09.01.17.03.26.05.07.01.14.03.2.04.08.02.16.05.24.08.07.02.13.04.2.07.08.03.15.06.22.1.07.03.13.06.2.09.06.03.12.07.19.11.07.04.14.08.21.13.05.03.1.07.14.11.08.06.15.11.23.18.03.03.06.06.09.09.09.08.17.16.25.25.01.01.02.03.04.05,1.17,1.33,1.88,3.67,2.07,7.41,0,.01,0,.02,0,.04.13,1.71.17,3.37.17,5.02,0,.55.02,1.1,0,1.64,0,.05,0,.09,0,.14-.33,15.06-5.19,27.48-6.22,42.19-.06.93-.05,1.86,0,2.8.05.82.14,1.64.26,2.47.06.41.13.82.2,1.24.96,5.37,3.03,10.83,3.9,16.34,7.16,67.34-55.61,96.15-112.49,90.1-37.97-4.03-73.31-23.59-83.5-57.59-4.37-14.58-4.12-31.81,2.55-51.62.1-4.39-3.04-11.97-4.24-17.32-.05-.26-.1-.55-.15-.82-.7-3.94-1.55-8.66-2.2-13.62-1.27-9.65-1.74-20.14,1.28-27.26ZM188.47,446.9c-1.25-.32-2.5-.63-3.74-.97-61.36-17.05-113.8-75.07-130.9-135.7-20.99-76.32,18.04-158.06,90.56-184.5,0,0,0,0,0,0,0,0,0,0,0,0,.87,2.62.99,5.29.75,7.96-.5,5.45-2.56,10.96-3.16,16.28-1.03,8.11-.96,16.08.12,23.93.92,6.67,2.58,13.24,4.94,19.72l.02.07c.02.09.02.16.01.21,0,0,0,0,0,0,0,0,0,0,0,0-.01.05-.05.08-.14.09-.79-.02-3.83-.14-7.79-.29-9.27-.35-23.56-.89-25.76-.97-.29,0-.61.06-.92.17-.41.14-.81.35-1.17.57,0,0-.01,0-.02,0-.02.01-.03.03-.05.04-2.28,1.55-2.51,4.68-1.3,6.99.04.07.07.15.11.22.02.04.06.08.08.12.54.88,1.29,1.61,2.22,2.05.22.1.45.18.68.24.03,0,.05.02.08.03.27.07.55.12.85.14,0,0,0,0,0,0,2.05.09,13.18.5,23.47.89,6,.22,11.71.44,15.17.6.01,0,.03,0,.04,0,.02.02.05.05.08.08,2.39,2.33,8.51,9.4,10.11,11.1.21.28.27.51.21.7,0,.03-.02.05-.03.07,0,.02-.01.04-.03.06-.02.04-.05.08-.08.12,0,0,0,0,0,0-.02.03-.05.05-.08.08-.02.01-.03.03-.04.04,0,0-.01,0-.02.01-.4.31-1.12.48-1.59.58-9.55,2.89-19.8,4.35-29.61,6.86-2.64.67-5.25,1.42-7.8,2.3-.02,0-.03.02-.05.03-1.76.87-2.75,2.42-2.95,3.99-.18,1.5.34,3.02,1.6,3.96.6.44,1.36.76,2.3.9,12.01-.11,25.24-5.33,37.79-7.84,2.43-.49,4.83-.88,7.19-1.11.9-.07,1.82.02,2.69.3.57.2,1.11.44,1.65.69.04.02.09.04.14.06.04.02.09.05.13.07,4,1.98,7.33,5.34,11.35,7.29.09.11.14.21.16.32.02.09,0,.17-.02.26-.06.18-.19.36-.36.55-.04.04-.08.09-.12.13,0,0-.01.01-.02.02-10.02,9.52-19.06,19.12-25.94,30.76-2.79,4.84-5.12,9.73-7.06,14.63-10.79,28.41-7.99,59.26,5.1,85,14,26.3,38.82,46.79,68.12,54.71,11.9,2.96,24.84,4,38.63,2.64,8.86-1.37,18.7-3.99,28.72-7.4.28-.12.56-.22.84-.34,10.25-3.58,21.92-8.4,32.85-13.7,8.65-4.26,16.72-8.78,23.62-13.22,0,0,0,0,0,0,0,0,0,0,0,0,1.88-1.29,4.08-3.3,6.42-5.18.09-.07.18-.14.27-.22.11-.09.21-.17.32-.25.17-.13.34-.27.51-.4.06-.04.11-.08.17-.13.2-.16.41-.31.61-.46.04-.03.08-.06.13-.09.21-.15.42-.3.62-.45.05-.04.1-.07.15-.11.19-.13.38-.26.57-.39.08-.05.16-.1.23-.15.16-.1.32-.2.48-.3.11-.07.22-.13.33-.2.12-.07.25-.14.37-.21.15-.08.3-.17.45-.24.08-.04.16-.08.24-.12.19-.1.39-.19.58-.28.03-.02.07-.03.1-.05,2.49-1.09,4.93-1.29,7.11.32.09.07.18.14.27.21.1.09.21.17.31.26.7.62,1.37,1.43,2.01,2.48.07.16.13.32.2.47.07.13.14.24.21.38.23.66.38,1.34.49,2.02.64,3.81-.69,7.92-2.82,11.84-.04.08-.09.16-.14.25-.1.17-.19.35-.29.52-.13.23-.26.46-.4.68-.02.03-.04.06-.06.09-2.8,4.66-6.56,8.94-9.32,12.04-.93.91-1.89,1.77-2.85,2.65-20.87,19.1-47.73,30.59-76.2,35.82-30.92,5.68-63.71,3.97-92.79-3.41Z"/>
  <path class="st5" d="M67.7,372.01c-.51-.73-1.01-1.46-1.51-2.19"/>
  <path class="st5" d="M259.19,461.96c.45-.03.9-.06,1.35-.09"/>
  <path class="st5" d="M69.61,374.68c-.54-.74-1.07-1.49-1.6-2.24"/>
  <path class="st5" d="M228.06,461.59c-.94-.08-1.87-.17-2.81-.26"/>
  <path class="st5" d="M238.77,75.11c.34-.03.67-.05,1.01-.08"/>
  <path class="st5" d="M255.82,462.15c.5-.02,1-.05,1.5-.08"/>
  <path class="st5" d="M361.99,168.97c0,.09-.01.17-.02.26"/>
  <path class="st5" d="M224.81,461.29c-.98-.1-1.97-.21-2.95-.32"/>
  <path class="st5" d="M65.84,369.31c-.48-.71-.95-1.42-1.41-2.14"/>
  <path class="st5" d="M357.06,284.38c.1.23.2.46.33.67"/>
  <path class="st5" d="M327.76,240.71c.03.07.05.14.09.2"/>
  <path class="st5" d="M75.62,382.5c-.64-.79-1.28-1.59-1.91-2.4"/>
  <path class="st5" d="M218.29,460.53c-1.07-.14-2.14-.29-3.21-.45"/>
  <path class="st5" d="M221.55,460.93c-1.03-.12-2.06-.25-3.09-.38"/>
  <path class="st5" d="M77.72,385.04c-.68-.81-1.35-1.62-2.01-2.43"/>
  <path class="st5" d="M237.84,462.21c-.79-.03-1.58-.07-2.38-.11"/>
  <path class="st5" d="M357.23,221.22s-.09-.02-.13-.03"/>
  <path class="st5" d="M71.57,377.32c-.58-.76-1.14-1.53-1.71-2.3"/>
  <path class="st5" d="M375.91,235.4s.05,0,.08,0"/>
  <path class="st5" d="M376.64,235.47s-.02,0-.02,0"/>
  <path class="st5" d="M73.57,379.93c-.61-.78-1.21-1.56-1.8-2.34"/>
  <path class="st5" d="M262.56,461.71c.4-.03.81-.07,1.21-.1"/>
  <path class="st5" d="M45.43,328.31c-.12-.37-.24-.74-.36-1.11"/>
  <path class="st5" d="M55.77,352.43c-.3-.57-.59-1.15-.89-1.73"/>
  <path class="st5" d="M234.58,462.06c-.84-.05-1.68-.1-2.52-.16"/>
  <path class="st5" d="M44.4,325.17c-.11-.35-.21-.69-.32-1.04"/>
  <path class="st5" d="M244.34,462.37c-.7,0-1.39-.02-2.09-.03"/>
  <path class="st5" d="M57.32,355.32c-.33-.6-.65-1.2-.97-1.81"/>
  <path class="st5" d="M54.28,349.52c-.27-.55-.54-1.1-.81-1.65"/>
  <path class="st5" d="M52.84,346.57c-.25-.52-.49-1.05-.73-1.57"/>
  <path class="st5" d="M241.09,462.32c-.75-.02-1.49-.04-2.24-.07"/>
  <path class="st5" d="M48.87,337.57c-.18-.45-.36-.91-.54-1.37"/>
  <path class="st5" d="M50.13,340.59c-.2-.47-.4-.95-.6-1.42"/>
  <path class="st5" d="M46.51,331.42c-.14-.39-.27-.78-.41-1.16"/>
  <path class="st5" d="M43.43,322.01c-.09-.31-.18-.63-.27-.95"/>
  <path class="st5" d="M47.66,334.5c-.16-.42-.31-.84-.47-1.26"/>
  <path class="st5" d="M252.44,462.28c.54-.02,1.09-.03,1.63-.06"/>
  <path class="st5" d="M51.46,343.6c-.22-.49-.44-.99-.66-1.49"/>
  <path class="st5" d="M62.28,363.8c-.41-.66-.81-1.32-1.21-1.98"/>
  <path class="st5" d="M39.56,305.79c-.02-.09-.03-.18-.05-.26"/>
  <path class="st5" d="M40.2,309.09c-.03-.16-.06-.31-.09-.47"/>
  <path class="st5" d="M245.66,462.38c.64,0,1.29,0,1.93,0"/>
  <path class="st5" d="M64.04,366.57c-.44-.68-.88-1.37-1.31-2.06"/>
  <path class="st5" d="M38.96,302.4s0,.05.01.08"/>
  <path class="st5" d="M249.05,462.36c.59,0,1.19-.02,1.78-.03"/>
  <path class="st5" d="M60.57,361c-.38-.64-.75-1.28-1.13-1.92"/>
  <path class="st5" d="M231.32,461.85c-.89-.06-1.78-.13-2.67-.21"/>
  <path class="st5" d="M40.91,312.35c-.05-.21-.09-.41-.14-.62"/>
  <path class="st5" d="M42.53,318.81c-.07-.27-.14-.54-.21-.81"/>
  <path class="st5" d="M41.69,315.59c-.06-.24-.11-.48-.17-.71"/>
  <path class="st5" d="M58.92,358.18c-.35-.62-.7-1.25-1.05-1.87"/>
  <path class="st5" d="M298.76,455.19s-.03,0-.04.01"/>
  <path class="st5" d="M289.33,457.61c-.09.02-.18.04-.27.06"/>
  <path class="st5" d="M269.26,461.05c.32-.04.63-.07.95-.11"/>
  <path class="st5" d="M279.81,459.52c-.19.03-.39.07-.58.1"/>
  <path class="st5" d="M272.6,460.63c.27-.04.55-.07.82-.11"/>
  <path class="st5" d="M282.52,459.03c.16-.03.32-.06.48-.09"/>
  <path class="st5" d="M286.16,458.3c-.12.03-.24.05-.36.08"/>
  <path class="st5" d="M276.62,460.04c-.23.04-.47.07-.7.11"/>
  <path class="st5" d="M370.4,346.22c-1.89-.06-3.78-.11-5.67-.1"/>
  <path class="st5" d="M349.45,365.65c-.62,1.17-1.25,2.33-1.9,3.48"/>
  <path class="st5" d="M265.92,461.41c.36-.04.72-.07,1.08-.11"/>
  <path class="st5" d="M381.74,385.7c.05.43.09.87.11,1.31"/>
  <path class="st5" d="M352.7,428.9c-.24.17-.47.35-.71.52"/>
  <path class="st5" d="M346.97,432.92c-.14.09-.28.19-.42.28"/>
  <path class="st5" d="M349.84,430.95c-.19.13-.37.26-.56.39"/>
  <path class="st5" d="M367.75,415.58c-.15.16-.29.32-.44.48"/>
  <path class="st5" d="M357.25,425.43c.18-.15.37-.3.55-.45"/>
  <path class="st5" d="M344.09,434.81c-.11.07-.21.13-.32.2"/>
  <path class="st5" d="M292.48,456.86c-.06.01-.12.03-.18.04"/>
  <path class="st5" d="M335.31,440.07s-.02.01-.03.02"/>
  <path class="st5" d="M295.63,456.05s-.07.02-.11.03"/>
  <path class="st5" d="M341.18,436.63c-.07.04-.14.08-.21.13"/>
  <path class="st5" d="M338.25,438.39s-.07.04-.11.06"/>
  <path class="st5" d="M366.97,370.89c-.1,0-.2,0-.3,0"/>
  <path class="st5" d="M357.82,285.62s0,0,.01.01"/>
  <path class="st12" d="M281.26,450.31c28.47-5.23,55.33-16.72,76.2-35.82.96-.87,1.92-1.74,2.85-2.65,2.67-3.02,6.48-7.34,9.32-12.04.02-.03.04-.06.06-.09.14-.23.27-.46.4-.68.1-.17.2-.35.29-.52.05-.08.09-.16.14-.25,2.14-3.91,3.46-8.02,2.82-11.84-.14-.81-.37-1.61-.7-2.39-.07-.16-.13-.32-.2-.47-.64-1.05-1.31-1.86-2.01-2.48-.1-.09-.21-.17-.31-.26-.09-.07-.18-.15-.27-.21-2.2-1.59-4.64-1.4-7.11-.32-.03.02-.07.03-.1.05-.19.09-.39.18-.58.28-.08.04-.16.08-.24.12-.15.08-.3.16-.45.24-.12.07-.25.14-.37.21-.11.07-.22.13-.33.2-.16.1-.32.2-.48.3-.08.05-.16.1-.23.15-.19.13-.38.25-.57.39-.05.04-.1.07-.15.11-.21.15-.42.29-.62.45-.04.03-.08.06-.13.09-.21.15-.41.3-.61.46-.06.04-.11.08-.17.13-.17.13-.34.26-.51.4-.11.08-.21.17-.32.25-.09.07-.18.14-.27.22-2.36,1.9-4.57,3.92-6.42,5.18,0,0,0,0,0,0,0,0,0,0,0,0-6.68,4.46-14.91,9-23.62,13.22-10.93,5.3-22.6,10.12-32.85,13.7-.28.12-.56.22-.84.34-23.21,9.65-46.42,10.41-67.35,4.76-29.31-7.92-54.13-28.41-68.12-54.71-13.32-25.03-16.83-55.32-5.1-85,1.94-4.9,4.26-9.79,7.06-14.63,6.88-11.64,15.92-21.24,25.94-30.76,0,0,.01-.01.02-.02.04-.05.08-.09.12-.13.17-.2.3-.38.36-.55.03-.09.04-.17.02-.26-.02-.1-.07-.21-.16-.32-4.02-1.95-7.35-5.31-11.35-7.29-.04-.02-.09-.05-.13-.07-.04-.02-.09-.04-.14-.06-.54-.26-1.08-.49-1.65-.69-.87-.28-1.79-.37-2.69-.3-2.36.23-4.76.62-7.19,1.11-12.55,2.51-25.78,7.73-37.79,7.84-.93-.13-1.7-.45-2.3-.9-1.28-.95-1.79-2.46-1.6-3.96.2-1.57,1.19-3.12,2.95-3.99.02,0,.03-.02.05-.03,2.55-.87,5.16-1.62,7.8-2.3,9.81-2.51,20.06-3.97,29.61-6.86.47-.1,1.19-.27,1.59-.58,0,0,.01,0,.02-.01.02-.01.03-.03.04-.04.03-.02.06-.05.08-.08,0,0,0,0,0,0,.03-.04.06-.08.08-.12.01-.02.02-.04.03-.06,0-.02.02-.05.03-.07.05-.19,0-.43-.21-.7-1.6-1.7-7.72-8.77-10.11-11.1-.02-.02-.05-.05-.08-.08-.01,0-.02,0-.04,0-3.47-.16-9.18-.37-15.17-.6-10.28-.38-21.4-.78-23.47-.89,0,0,0,0,0,0-.29-.02-.58-.07-.85-.14-.03,0-.05-.02-.08-.03-.24-.07-.47-.14-.68-.24-.94-.43-1.69-1.17-2.22-2.05-.03-.04-.06-.08-.08-.12-.04-.07-.07-.14-.11-.22-1.21-2.31-.98-5.44,1.3-6.99.02-.01.03-.03.04-.04,0,0,.01,0,.02,0,.36-.22.76-.43,1.17-.57.31-.11.62-.18.92-.17,2.2.08,16.49.62,25.76.97,3.96.15,7.01.27,7.79.29.08,0,.12-.04.14-.09,0,0,0,0,0,0,0,0,0,0,0,0,.01-.05,0-.12-.01-.21l-.02-.07c-2.37-6.48-4.02-13.05-4.94-19.72-1.09-7.84-1.16-15.82-.12-23.93.61-5.32,2.66-10.83,3.16-16.28.24-2.68.12-5.34-.75-7.96,0,0,0,0,0,0-72.52,26.43-111.55,108.18-90.56,184.5,17.1,60.63,69.54,118.64,130.9,135.7,1.24.34,2.49.65,3.74.97,29.08,7.38,61.88,9.08,92.79,3.41Z"/>
  <path class="st2" d="M112.35,202.9c.22.1.45.18.68.24"/>
  <path class="st2" d="M163.03,216.76s-.01.04-.03.06"/>
  <path class="st2" d="M360.99,381.18c.12-.07.25-.14.37-.21"/>
  <path class="st2" d="M369.63,399.8s.04-.06.06-.09"/>
  <path class="st2" d="M359.93,381.83c-.19.13-.38.25-.57.39"/>
  <path class="st2" d="M147.07,193.91s0,0,0,0"/>
  <path class="st2" d="M370.38,398.51c-.1.17-.19.35-.29.52"/>
  <path class="st2" d="M110.12,200.86s-.06-.08-.08-.12"/>
  <path class="st2" d="M359.2,382.33c-.21.15-.42.29-.62.45"/>
  <path class="st2" d="M362.64,380.33s.07-.03.1-.05"/>
  <path class="st2" d="M358.45,382.86c-.21.15-.41.3-.61.46"/>
  <path class="st2" d="M361.81,380.73c.08-.04.16-.08.24-.12"/>
  <path class="st2" d="M356.57,384.32c.09-.07.18-.14.27-.22"/>
  <path class="st2" d="M357.67,383.45c-.17.13-.34.26-.51.4"/>
  <path class="st2" d="M360.65,381.38c-.16.1-.32.2-.48.3"/>
  <path class="st2" d="M162.79,217.06s.03-.03.04-.04"/>
  <path class="st2" d="M162.92,216.93s0,0,0,0"/>
  <path class="st2" d="M370.12,380.82c-.09-.07-.18-.15-.27-.21"/>
  <path class="st2" d="M173.99,227.72s.09.04.14.06"/>
  <path class="st10" d="M150.46,100.4c.65,4.96,1.5,9.68,2.2,13.62.05.27.1.56.15.82,1.2,5.35,4.34,12.93,4.24,17.32-6.67,19.81-6.92,37.04-2.55,51.62,10.19,34,45.53,53.56,83.5,57.59,56.89,6.04,119.66-22.76,112.49-90.1-.87-5.51-2.94-10.97-3.89-16.34-.07-.41-.14-.83-.2-1.24-.12-.82-.21-1.65-.26-2.47-.06-.94-.06-1.87,0-2.8,1.04-14.71,5.9-27.13,6.22-42.19,0-.05,0-.09,0-.14.01-.54,0-1.09,0-1.64,0-1.64-.05-3.3-.17-5.02,0-.01,0-.02,0-.04-.19-3.73-.9-6.08-2.07-7.41-.01-.01-.02-.03-.04-.05-.08-.09-.17-.17-.25-.25-.03-.03-.06-.06-.09-.09-.07-.06-.15-.12-.23-.18-.05-.04-.09-.08-.14-.11-.07-.05-.14-.09-.21-.13-.06-.04-.12-.08-.19-.11-.06-.03-.13-.06-.2-.09-.07-.03-.14-.07-.22-.1-.06-.02-.13-.04-.2-.07-.08-.03-.16-.06-.24-.08-.07-.02-.14-.03-.2-.04-.09-.02-.17-.04-.26-.05-.07-.01-.15-.02-.22-.03-.09-.01-.17-.02-.26-.03-.08,0-.16,0-.24,0-.09,0-.17,0-.26,0-.09,0-.18,0-.27.01-.09,0-.17,0-.26.01-.09,0-.19.02-.29.03-.09,0-.18.02-.27.03-.1.01-.2.03-.3.05-.09.02-.19.03-.28.05-.1.02-.19.04-.29.06-.1.02-.21.04-.31.07-.09.02-.17.04-.26.07-.12.03-.24.06-.37.1-.07.02-.14.04-.21.06-.15.04-.3.09-.45.14-.03.01-.07.02-.1.03-1.45.47-3.05,1.14-4.81,1.93-.07.03-.14.06-.22.1-4.63,1.9-9.71,4.52-14.78,7.63-.09.05-.18.11-.27.16-.32.2-.65.4-.97.6-6.87,4.33-13.64,9.51-19.11,14.98-.03.03-.06.06-.09.09-.29.29-.57.58-.86.87-2.37,2.45-4.47,4.95-6.19,7.44-.44.52-.78,1.13-1.08,1.77-.54,1.15-.97,2.41-1.55,3.52-.31.58-.65,1.13-1.1,1.6-.01.01-.02.02-.04.03-.18.18-.39.34-.61.49-.08.06-.14.13-.23.19-.09.05-.21.08-.31.12-.05.02-.1.05-.16.06-.07.02-.14.04-.21.06-.14.03-.29.06-.44.08-.06,0-.11.01-.17.02-.14,0-.28,0-.42,0-.1,0-.21,0-.32-.01-.09,0-.17-.02-.26-.03-.15-.02-.31-.04-.46-.07-.05,0-.09-.02-.14-.03-.17-.04-.34-.08-.51-.14-.08-.03-.17-.06-.25-.09-.12-.04-.24-.09-.35-.13-.41-.18-.78-.41-1.08-.67-.15-.14-.29-.28-.41-.44-.03-.03-.05-.07-.08-.11-.09-.12-.17-.24-.24-.37-.03-.05-.05-.1-.08-.16-.06-.12-.11-.24-.15-.36-.02-.06-.04-.13-.06-.19-.03-.12-.06-.24-.09-.36-.01-.07-.03-.15-.04-.22-.02-.12-.03-.24-.04-.36,0-.08-.01-.17-.02-.25,0-.11,0-.23,0-.35,0-.09,0-.18.01-.28,0-.11.02-.22.04-.33.03-.22.06-.45.11-.67.02-.08.03-.15.04-.23.03-.13.06-.26.1-.39.02-.09.04-.18.07-.27.03-.12.07-.25.11-.37.03-.1.06-.19.09-.29.04-.11.08-.23.12-.34.04-.11.08-.22.12-.33.04-.1.08-.2.12-.3.05-.13.11-.27.17-.4.03-.07.06-.15.09-.22.09-.19.18-.39.27-.58,0,0,0-.01,0-.02.1-.21.21-.42.31-.62.02-.05.05-.1.08-.15.12-.23.24-.46.37-.69.06-.12.13-.23.19-.35.2-.33.41-.66.64-.99.03-.04.06-.08.09-.12.2-.28.4-.56.61-.83.12-.16.25-.32.38-.48.1-.12.19-.25.29-.37,1.14-1.43,2.36-2.83,3.42-4.44,0,0,0,0,0,0,.26-.42.53-.86.67-1.27.04-.1.07-.2.09-.3,0,0,0,0,0,0,.08-.48-.13-.86-.94-1.03-.62-.2-1.25-.4-1.88-.59-25.41-7.8-55.06-9.07-80.09.77-.03.02-.07.03-.1.04-.36.16-.65.3-.81.49-.14.17-.17.37-.03.66,0,.02.01.03.02.05.84,1.25,4.55,5.95,6.78,10.44,0,.02.02.04.03.06.06.13.12.26.19.39.07.14.13.28.19.41,0,.02.01.03.02.05,1.65,3.66,2.09,7.01-1.14,7.99-.11.03-.22.04-.33.06-4.48.88-6.68-4-8.41-7.35-.01-.03-.03-.05-.04-.08-2.3-3.89-4.92-8.02-8.01-11.36l-.09-.09c-1.33-1.27-2.94-2.64-4.74-4.04-7.59-5.92-18.68-12.57-27.87-16.28-1.84-.74-3.59-1.36-5.23-1.84-.24-.07-.49-.14-.72-.21-.06-.01-.13-.03-.19-.05-1.84-.44-3.92-1.24-5.65-.88-.87.18-1.65.66-2.28,1.63-.08.13-.17.25-.24.4-.05.12-.09.26-.14.38-3.01,7.13-2.55,17.61-1.28,27.26Z"/>
  <path class="st4" d="M216.44,103.99s-.02-.04-.03-.06"/>
  <path class="st4" d="M321.96,81.72c.32-.2.65-.4.97-.6"/>
  <path class="st4" d="M286.32,103.7s0,.01,0,.02"/>
  <path class="st4" d="M344.12,70.97c.09-.02.18-.05.26-.07"/>
  <path class="st4" d="M285.66,105.21c.04-.1.08-.2.12-.3"/>
  <path class="st4" d="M285.42,105.89c.04-.11.08-.23.12-.34"/>
  <path class="st4" d="M302.76,96.79s.06-.06.09-.09"/>
  <path class="st4" d="M342.99,71.29s.07-.02.1-.03"/>
  <path class="st4" d="M285.95,104.52c.03-.07.06-.15.09-.22"/>
  <path class="st4" d="M216.82,104.8c-.06-.14-.13-.27-.19-.41"/>
  <path class="st4" d="M343.55,71.12c.07-.02.14-.04.21-.06"/>
  <path class="st4" d="M289.27,99.11c-.1.12-.19.25-.29.37"/>
  <path class="st4" d="M293.45,93.1s0,0,0,0"/>
  <path class="st4" d="M288,100.79c.2-.28.4-.56.61-.83"/>
  <path class="st4" d="M288.82,113.01c.09.01.17.02.26.03"/>
  <path class="st4" d="M285.02,110.25c.02.06.04.13.06.19"/>
  <path class="st4" d="M285.54,111.33s.05.07.08.11"/>
  <path class="st4" d="M285.23,110.8c.02.05.05.11.08.16"/>
  <path class="st4" d="M288.22,112.9s.09.02.14.03"/>
  <path class="st4" d="M287.46,112.68c.08.03.16.06.25.09"/>
  <path class="st4" d="M290.43,112.96c-.14.03-.29.06-.44.08"/>
  <path class="st4" d="M284.89,109.66c.01.08.02.15.04.22"/>
  <path class="st4" d="M285.14,106.81c-.03.13-.07.26-.1.39"/>
  <path class="st4" d="M291.94,112.03c-.18.18-.39.34-.61.49"/>
  <path class="st4" d="M285,107.43c-.05.23-.08.45-.11.67"/>
  <path class="st4" d="M285.21,106.55c.03-.12.07-.25.11-.37"/>
  <path class="st4" d="M284.86,108.43c0,.09,0,.18-.01.28"/>
  <path class="st4" d="M287.08,102.24c-.13.23-.26.46-.37.69"/>
  <path class="st4" d="M289.4,113.06c.14,0,.28,0,.42,0"/>
  <path class="st4" d="M284.84,109.06c0,.08,0,.17.02.25"/>
  <path class="st4" d="M347.16,70.6c-.08,0-.16,0-.24,0"/>
  <path class="st4" d="M347.64,70.66c-.07-.01-.15-.02-.22-.03"/>
  <path class="st4" d="M346.65,70.59c-.09,0-.18,0-.27.01"/>
  <path class="st4" d="M352.36,86.1c.01-.54,0-1.09,0-1.64"/>
  <path class="st4" d="M345.84,70.64c.1-.01.19-.02.29-.03"/>
  <path class="st4" d="M348.1,70.76c-.07-.02-.14-.03-.2-.04"/>
  <path class="st4" d="M345.27,70.72c.1-.02.2-.03.3-.05"/>
  <path class="st4" d="M344.7,70.83c.1-.02.2-.04.29-.06"/>
  <path class="st4" d="M349.35,71.32c-.07-.05-.14-.09-.21-.13"/>
  <path class="st4" d="M349.72,71.61c-.07-.06-.15-.12-.23-.18"/>
  <path class="st4" d="M350.07,71.95c-.08-.09-.17-.17-.25-.25"/>
  <path class="st4" d="M348.96,71.09c-.06-.03-.13-.06-.2-.09"/>
  <path class="st4" d="M348.54,70.9c-.06-.02-.13-.04-.2-.07"/>
  <path class="st3" d="M349.82,332.36c-.07.41-.13.81-.2,1.22"/>
  <path class="st3" d="M341.33,275.3c-.32-.61-.64-1.22-.97-1.83"/>
  <path class="st3" d="M196.05,242.71s-.02,0-.02.01"/>
  <path class="st3" d="M197.62,242.46s-.08,0-.12-.01"/>
  <path class="st8" d="M321.36,250.16c-3.13-2.61-6.47-4.95-9.99-6.98-.82-.47-1.64-.93-2.47-1.36-.18-.05-.36-.07-.54-.08,0,0-.02,0-.03,0-.62-.03-1.26.14-1.84.38-1.67.66-3.36,1.3-5.05,1.92-3.85,1.41-7.76,2.7-11.72,3.83-4.23,1.21-8.52,2.24-12.83,3-.34.05-.6.11-.78.17-.57.2-.32.47.76.82,3.2,1.1,6.26,2.39,9.18,3.83,7.45,3.6,14,8.41,19.56,14.09.34.34.67.69,1,1.03.04.05.09.09.13.14,2.31,2.44,4.44,5.02,6.38,7.72,9.19,12.68,13.92,28.05,14.06,43.41,0,.09,0,.18,0,.27,0,.34,0,.67,0,1.01,0,14.08-3.94,28.19-12.32,40.35-.29.43-.59.84-.89,1.26-.14.2-.29.4-.43.6-1.52,2.08-3.16,4.09-4.94,6.01-15.27,16.84-34.04,24.25-52.48,24.5-22.56,1.24-42.34-8.5-56.06-23.76-14.52-15.05-22.9-36.12-19.48-59.87,2.07-17.09,10.52-34.05,27.14-47.85,3.55-3.09,7.29-5.79,11.09-7.93.27-.15.53-.3.8-.45,1.8-1.01,3.52-1.81,5.17-2.43,2.29-.9,4.58-1.57,6.84-1.95v-.02c-1.43-.31-2.85-.63-4.27-.95-9.79-2.22-19.59-4.73-29-8.26-.07-.02-.13-.02-.2-.04-.17-.05-.34-.09-.51-.11-.04,0-.08,0-.12-.01-.5-.03-.99.07-1.45.26,0,0-.02,0-.02.01-.17.08-.33.17-.49.27-.06.04-.13.06-.19.11-17.37,11.87-29,28.71-34.85,47.25-.04.12-.08.25-.12.37-.31,1-.61,2-.88,3.01-5.52,20.06-4.39,41.84,3.45,61.34.22.55.44,1.1.67,1.65.05.12.11.24.16.36,3.21,7.47,7.42,14.57,12.63,21.08,2.99,3.73,6.29,7.27,9.94,10.56,10.5,9.83,22.08,16.61,34.08,20.72,30.77,10.55,64.36,3.57,89.78-14.78,19.92-14.38,34.81-35.73,39.4-61.09.07-.4.14-.81.2-1.22.03-.21.07-.43.1-.64,1.64-10.28,1.59-21.19-.49-32.54-.12-.67-.24-1.33-.38-2-.05-.26-.09-.51-.15-.77,0-.03-.02-.07-.02-.1-.04-.21-.1-.42-.14-.63-.11-.52-.23-1.04-.36-1.55-.14-.58-.29-1.15-.44-1.73-.03-.11-.06-.22-.09-.33-1.56-5.77-3.76-11.4-6.52-16.76-.32-.61-.64-1.22-.97-1.83-.02-.04-.05-.08-.07-.12-4.85-8.83-11.26-16.8-18.92-23.19Z"/>
  <path class="st3" d="M160.38,290.72c-.31,1-.61,2-.88,3.01"/>
  <path class="st3" d="M347.94,292.39c-.03-.11-.06-.22-.09-.33"/>
  <path class="st3" d="M348.74,295.67c-.11-.52-.23-1.04-.36-1.55"/>
  <path class="st3" d="M163.62,356.72c-.23-.55-.45-1.1-.67-1.65"/>
  <path class="st11" d="M274.87,251.46c-8.04.76-16.55,2.37-24.38,1.71-10.33-.97-17.27-2.52-25.73.62-1.65.61-3.37,1.41-5.17,2.43-.27.15-.53.3-.8.45-.25.14-.49.29-.75.44-3.75,2.37-7.19,4.88-10.34,7.49-16.62,13.8-25.06,30.76-27.14,47.85-2.65,21.83,5.09,43.88,19.48,59.87,13.73,15.26,33.5,24.99,56.06,23.76,11.52-.63,23.77-4.12,36.32-11.21,6.21-3.82,12.07-8.7,16.7-13.93,1.57-1.74,3.03-3.53,4.39-5.37.15-.2.29-.4.43-.6.3-.42.6-.84.89-1.26,8.38-12.17,12.31-26.27,12.32-40.35,0-.34,0-.67,0-1.01,0-.09,0-.18,0-.27-.3-18.74-7.53-37.33-20.43-51.13-.04-.05-.09-.09-.13-.14-.33-.35-.66-.69-1-1.03-5.56-5.68-12.1-10.49-19.56-14.09-3.48-1.68-7.16-3.1-11.03-4.22h-.14ZM286.95,280.84c5.4,1.7,10.43,4.85,14.52,9.42.22.24.44.48.65.73,23.93,30.69-15.41,66.43-41.12,81.06-2.1,1.13-3.68,2.14-5.05,2.9-.11.06-.23.13-.34.19-.02.01-.04.02-.06.03-1.14.6-2.15,1.01-3.21,1.11-.02,0-.05,0-.07,0-.24.02-.49.03-.74.01-.14,0-.28-.04-.43-.05-.14-.02-.28-.03-.43-.06-.27-.05-.55-.13-.84-.22-.03,0-.05-.01-.08-.02-1.28-.42-2.77-1.24-4.66-2.56-6.48-3.95-13.56-8.84-20.24-14.48-6.93-5.85-13.44-12.5-18.4-19.79-3.05-4.47-5.5-9.18-7.13-14.07-.11-.32-.22-.64-.32-.97-.48-1.7-.85-3.43-1.1-5.16-1.02-6.88-.29-13.94,2.13-20.17,3.98-10.24,12.54-18.21,25.41-19.28h.16c5.67-.57,11.24.58,16.08,3.17,2.77,1.48,5.29,3.43,7.46,5.8.53.58,1.05,1.17,1.53,1.8.75.72,1.46.38,2.15-.15.29-.22.57-.47.85-.69,3.4-3.51,7.34-6.09,11.54-7.76,6.99-2.78,14.68-3.02,21.76-.78Z"/>
  <path class="st1" d="M313.53,365.56c.15-.2.29-.4.43-.6"/>
  <path class="st1" d="M306.73,270.95s-.09-.09-.13-.14"/>
  <path class="st1" d="M327.17,322.08c0,.09,0,.18,0,.27"/>
  <path class="st8" d="M382.8,296.54c-.75,0-1.51,0-2.28,0-1.53.01-3.1.03-4.68.04-1.58,0-3.19.01-4.8-.01-1.48,0-2.9,0-4.19,0h-1.24c-.79,0-1.5,0-2.12,0h-.85c-.26,0-.49,0-.69,0-.15,0-.29-.01-.43-.02-.87,0-1.52.19-1.41,1.04h0c.4,3.04,1.02,8.76,1.21,12.25,0,0,0,0,0,0,.23,4.28.13,8.58-.23,12.86-.17,2.01-.39,4.01-.66,6-.04.29-.08.57-.12.86-.27,1.96-.58,3.91-.93,5.84v.07c0,.17.04.26.18.29,0,0,0,0,.01,0,.02,0,.05,0,.07,0,1.49,0,3.75,0,6.34,0,7.72,0,18.34.02,19.95,0,.08-.01.17-.04.25-.05,2.25-.42,4.66-1.71,7.07-2.65.82-.31,1.57-.68,2.28-1.09,6.4-3.7,8.65-11.4,7.66-18.68-.93-6.83-4.69-13.27-10.48-15.69-1.07-.45-2.21-.77-3.41-.92-2.08-.13-4.26-.17-6.52-.17Z"/>
  <path class="st3" d="M375.84,296.59c1.58,0,3.15-.03,4.68-.04"/>
  <path class="st7" d="M265.19,281.63c-4.2,1.67-8.14,4.25-11.54,7.76-.28.22-.56.47-.85.69-.69.53-1.4.88-2.15.15-.48-.63-1-1.22-1.53-1.8-2.17-2.37-4.69-4.32-7.46-5.8-4.84-2.58-10.4-3.74-16.08-3.18h-.16c-12.87,1.09-21.43,9.05-25.41,19.3-2.42,6.23-3.15,13.29-2.13,20.17.26,1.74.62,3.47,1.1,5.16.1.32.22.64.32.97,1.63,4.9,4.09,9.6,7.13,14.07,4.96,7.29,11.47,13.94,18.4,19.79,6.67,5.63,13.75,10.51,20.24,14.48,1.89,1.32,3.38,2.14,4.66,2.56.03,0,.05.01.08.02.29.09.57.17.84.22.15.03.29.04.43.06.14.02.29.05.43.05.25.01.5,0,.74-.01.02,0,.05,0,.07,0,1.07-.1,2.08-.5,3.21-1.11.02-.01.04-.02.06-.03.11-.06.23-.13.34-.19,1.37-.76,2.95-1.78,5.05-2.9,25.71-14.64,65.04-50.37,41.12-81.06-.21-.25-.43-.49-.65-.73-4.09-4.57-9.12-7.72-14.52-9.42-7.08-2.23-14.77-1.99-21.76.78Z"/>
  <path class="st6" d="M252.26,376.29c-.24.02-.49.03-.74.01"/>
  <path class="st6" d="M251.09,376.25c-.14-.02-.28-.03-.43-.06"/>
  <path class="st6" d="M249.74,375.95s.05.01.08.02"/>
  <path class="st6" d="M255.95,374.96c-.11.06-.23.13-.34.19"/>
</svg>