<?xml version="1.0" encoding="UTF-8"?>
<svg id="_レイヤー_3" data-name="レイヤー_3" xmlns="http://www.w3.org/2000/svg" version="1.1" xmlns:xlink="http://www.w3.org/1999/xlink" viewBox="0 0 500 500">
  <!-- Generator: Adobe Illustrator 29.8.4, SVG Export Plug-In . SVG Version: 2.1.1 Build 6)  -->
  <defs>
    <style>
      .st0 {
        clip-path: url(#clippath-6);
      }

      .st1 {
        clip-path: url(#clippath-7);
      }

      .st2 {
        clip-path: url(#clippath-4);
      }

      .st3 {
        clip-path: url(#clippath-9);
      }

      .st4 {
        clip-path: url(#clippath-10);
      }

      .st5 {
        clip-path: url(#clippath-11);
      }

      .st6 {
        fill: none;
      }

      .st7 {
        clip-path: url(#clippath-1);
      }

      .st8 {
        clip-path: url(#clippath-5);
      }

      .st9 {
        clip-path: url(#clippath-8);
      }

      .st10 {
        clip-path: url(#clippath-3);
      }

      .st11 {
        clip-path: url(#clippath-12);
      }

      .st12 {
        fill: #727171;
        opacity: .6;
      }

      .st13 {
        clip-path: url(#clippath-2);
      }

      .st14 {
        clip-path: url(#clippath-13);
      }

      .st15 {
        clip-path: url(#clippath);
      }
    </style>
    <clipPath id="clippath">
      <polygon class="st12" points="246.3 350 219 449.5 219 449.5 219 449.5 205.1 500 359.9 500 324.4 350 246.3 350"/>
    </clipPath>
    <clipPath id="clippath-1">
      <polygon class="st12" points="305.7 270.9 318.5 325 350.1 325 350.1 350 324.4 350 359.9 500 375.9 500 500 375.9 500 249.8 305.7 270.9"/>
    </clipPath>
    <clipPath id="clippath-2">
      <polygon class="st12" points="82.5 395.3 43.1 500 205.1 500 219 449.5 82.5 395.3"/>
    </clipPath>
    <clipPath id="clippath-3">
      <polygon class="st12" points="219 449.5 246.3 350 99.6 350 82.5 395.3 219 449.5"/>
    </clipPath>
    <clipPath id="clippath-4">
      <polygon class="st12" points="82.5 395.3 82.5 395.3 99.6 350 0 350 0 500 43.1 500 82.5 395.3 82.5 395.3"/>
    </clipPath>
    <clipPath id="clippath-5">
      <polygon class="st12" points="500 249.8 500 175 283 175 305.7 270.9 500 249.8"/>
    </clipPath>
    <clipPath id="clippath-6">
      <polygon class="st12" points="113.6 105.7 149.9 150 256.3 150 281.8 84.6 314.9 0 266.8 0 111.4 103.1 113.6 105.7"/>
    </clipPath>
    <clipPath id="clippath-7">
      <polygon class="st12" points="149.9 175 0 279.7 0 325 181.9 325 188.8 175 149.9 175"/>
    </clipPath>
    <clipPath id="clippath-8">
      <polygon class="st12" points="305.7 270.9 305.7 270.9 283 175 188.8 175 181.9 325 318.5 325 305.7 270.9 305.7 270.9"/>
    </clipPath>
    <clipPath id="clippath-9">
      <polygon class="st12" points="266.8 0 124.1 0 124.1 0 70.6 53.5 111.4 103.1 266.8 0"/>
    </clipPath>
    <clipPath id="clippath-10">
      <polygon class="st12" points="149.9 150 113.6 105.7 111.4 103.1 111.4 103.1 111.4 103.1 70.6 53.5 0 124.1 0 279.7 149.9 175 149.9 150"/>
    </clipPath>
    <clipPath id="clippath-11">
      <polygon class="st12" points="294.7 51.5 273.3 106.4 256.3 150 259.2 150 368.6 150 402.5 67.9 294.7 51.5"/>
    </clipPath>
    <clipPath id="clippath-12">
      <polygon class="st12" points="402.8 67.1 402.5 67.9 500 82.6 500 53.4 500 0 371.9 0 314.9 0 294.7 51.5 402.5 67.9 402.8 67.1"/>
    </clipPath>
    <clipPath id="clippath-13">
      <polygon class="st12" points="402.5 67.9 368.6 150 404.6 150 426.4 150 500 150 500 82.6 402.5 67.9"/>
    </clipPath>
  </defs>
  <polygon class="st6" points="350.1 325 318.5 325 324.4 350 350.1 350 350.1 325"/>
  <g>
    <polygon class="st12" points="246.3 350 219 449.5 219 449.5 219 449.5 205.1 500 359.9 500 324.4 350 246.3 350"/>
    <g class="st15">
      <image width="500" height="375" transform="translate(163.1 365.2) rotate(-11.3) scale(.5)" xlink:href="S-画像ー２/PXL_20250924_023447909.webp"/>
    </g>
  </g>
  <g>
    <polygon class="st12" points="305.7 270.9 318.5 325 350.1 325 350.1 350 324.4 350 359.9 500 375.9 500 500 375.9 500 249.8 305.7 270.9"/>
    <g class="st7">
      <image width="500" height="666" transform="translate(553.2 462.9) rotate(166.8) scale(.4)" xlink:href="S-画像ー２/IMG_5196.webp"/>
    </g>
  </g>
  <g>
    <polygon class="st12" points="82.5 395.3 43.1 500 205.1 500 219 449.5 82.5 395.3"/>
    <g class="st13">
      <image width="500" height="334" transform="translate(82 389.5) rotate(22.4) scale(.4)" xlink:href="S-画像ー２/DSC02518.webp"/>
    </g>
  </g>
  <g>
    <polygon class="st12" points="219 449.5 246.3 350 99.6 350 82.5 395.3 219 449.5"/>
    <g class="st10">
      <image width="500" height="375" transform="translate(80 323.7) rotate(2) scale(.4)" xlink:href="S-画像ー２/IMG_3594.webp"/>
    </g>
  </g>
  <g>
    <polygon class="st12" points="82.5 395.3 82.5 395.3 99.6 350 0 350 0 500 43.1 500 82.5 395.3 82.5 395.3"/>
    <g class="st2">
      <image width="500" height="755" transform="translate(-39.7 288.2) rotate(-8.4) scale(.3)" xlink:href="S-画像ー２/DSC_31361.webp"/>
    </g>
  </g>
  <g>
    <polygon class="st12" points="500 249.8 500 175 283 175 305.7 270.9 500 249.8"/>
    <g class="st8">
      <image width="500" height="281" transform="translate(277.2 142.4) scale(.5)" xlink:href="S-画像ー２/IMG_3595.webp"/>
    </g>
  </g>
  <g>
    <polygon class="st12" points="113.6 105.7 149.9 150 256.3 150 281.8 84.6 314.9 0 266.8 0 111.4 103.1 113.6 105.7"/>
    <g class="st0">
      <image width="500" height="375" transform="translate(63.7 7.3) rotate(-12.4) scale(.5)" xlink:href="S-画像ー２/kumagawa-1.webp"/>
    </g>
  </g>
  <g>
    <polygon class="st12" points="149.9 175 0 279.7 0 325 181.9 325 188.8 175 149.9 175"/>
    <g class="st1">
      <image width="500" height="375" transform="translate(-35.5 222.8) rotate(-14.9) scale(.5)" xlink:href="S-画像ー２/IMG_4593.webp"/>
    </g>
  </g>
  <g>
    <polygon class="st12" points="305.7 270.9 305.7 270.9 283 175 188.8 175 181.9 325 318.5 325 305.7 270.9 305.7 270.9"/>
    <g class="st9">
      <image width="500" height="667" transform="translate(156.3 163.1) rotate(-5.6) scale(.3)" xlink:href="S-画像ー２/kanamitsu-01.webp"/>
    </g>
  </g>
  <g>
    <polygon class="st12" points="266.8 0 124.1 0 124.1 0 70.6 53.5 111.4 103.1 266.8 0"/>
    <g class="st3">
      <image width="500" height="375" transform="translate(65.7 -71.2) scale(.5)" xlink:href="S-画像ー２/DSC_1430.webp"/>
    </g>
  </g>
  <g>
    <polygon class="st12" points="149.9 150 113.6 105.7 111.4 103.1 111.4 103.1 111.4 103.1 70.6 53.5 0 124.1 0 279.7 149.9 175 149.9 150"/>
    <g class="st4">
      <image width="500" height="750" transform="translate(-14.7 51.5) scale(.3)" xlink:href="S-画像ー２/4588a3afb4d4b3f4.webp"/>
    </g>
  </g>
  <g>
    <polygon class="st12" points="294.7 51.5 273.3 106.4 256.3 150 259.2 150 368.6 150 402.5 67.9 294.7 51.5"/>
    <g class="st5">
      <image width="500" height="368" transform="translate(199.3 13) scale(.4)" xlink:href="S-画像ー２/ミカン.webp"/>
    </g>
  </g>
  <g>
    <polygon class="st12" points="402.8 67.1 402.5 67.9 500 82.6 500 53.4 500 0 371.9 0 314.9 0 294.7 51.5 402.5 67.9 402.8 67.1"/>
    <g class="st11">
      <image width="500" height="375" transform="translate(304.5 -86.7) rotate(5.7) scale(.4)" xlink:href="S-画像ー２/IMG_2772.webp"/>
    </g>
  </g>
  <g>
    <polygon class="st12" points="402.5 67.9 368.6 150 404.6 150 426.4 150 500 150 500 82.6 402.5 67.9"/>
    <g class="st14">
      <image width="768" height="1024" transform="translate(314.9 137.8) rotate(-74.2) scale(.2)" xlink:href="S-画像ー２/IMG20251010113909_BURST018.png"/>
    </g>
  </g>
</svg>